<svg width="32" height="24" viewBox="0 0 32 24" fill="none" xmlns="http://www.w3.org/2000/svg">
<g clip-path="url(#clip0_1662_733)">
<rect width="32" height="24" fill="white"/>
<path fill-rule="evenodd" clip-rule="evenodd" d="M0 0V24H32V0H0Z" fill="#F7FCFF"/>
<mask id="mask0_1662_733" style="mask-type:luminance" maskUnits="userSpaceOnUse" x="0" y="0" width="32" height="24">
<path fill-rule="evenodd" clip-rule="evenodd" d="M0 0V24H32V0H0Z" fill="white"/>
</mask>
<g mask="url(#mask0_1662_733)">
<path fill-rule="evenodd" clip-rule="evenodd" d="M0 0V8H32V0H0Z" fill="#E31D1C"/>
<path fill-rule="evenodd" clip-rule="evenodd" d="M0 16V24H32V16H0Z" fill="#3D58DB"/>
<rect x="10.0765" y="6.39731" width="11.4" height="4" fill="#E31D1C"/>
<path d="M10.6522 8.95981H20.7807C20.7978 9.72877 20.803 11.0702 20.8029 12.3615C20.8028 13.1954 20.8006 13.9983 20.7984 14.5927C20.7973 14.8899 20.7962 15.135 20.7954 15.3057L20.7945 15.5032L20.7943 15.5318C20.7941 15.5328 20.794 15.5339 20.7938 15.5349C20.7893 15.5616 20.7818 15.6034 20.7703 15.6584C20.7473 15.7685 20.7085 15.9301 20.6469 16.1259C20.5231 16.5193 20.3101 17.0407 19.9552 17.5589C19.2607 18.5728 17.9998 19.6153 15.6497 19.6153C13.3028 19.6153 12.1029 18.5742 11.4643 17.57C11.1363 17.0544 10.949 16.5347 10.8442 16.1417C10.7921 15.9461 10.7611 15.7847 10.7433 15.6747C10.7345 15.6198 10.729 15.578 10.7258 15.5514C10.7251 15.545 10.7244 15.5394 10.7239 15.5349L10.7234 15.4901L10.721 15.2938L10.7125 14.5853C10.7055 13.9944 10.6961 13.1958 10.6867 12.3647C10.6724 11.0949 10.6582 9.75334 10.6522 8.95981ZM10.7222 15.5185C10.7222 15.5183 10.7222 15.5182 10.7222 15.5185L10.7222 15.5185Z" fill="#F7FCFF" stroke="#E31D1C" stroke-width="1.125"/>
<mask id="mask1_1662_733" style="mask-type:luminance" maskUnits="userSpaceOnUse" x="10" y="8" width="12" height="13">
<path d="M10.6522 8.95981H20.7807C20.7978 9.72877 20.803 11.0702 20.8029 12.3615C20.8028 13.1954 20.8006 13.9983 20.7984 14.5927C20.7973 14.8899 20.7962 15.135 20.7954 15.3057L20.7945 15.5032L20.7943 15.5318C20.7941 15.5328 20.794 15.5339 20.7938 15.5349C20.7893 15.5616 20.7818 15.6034 20.7703 15.6584C20.7473 15.7685 20.7085 15.9301 20.6469 16.1259C20.5231 16.5193 20.3101 17.0407 19.9552 17.5589C19.2607 18.5728 17.9998 19.6153 15.6497 19.6153C13.3028 19.6153 12.1029 18.5742 11.4643 17.57C11.1363 17.0544 10.949 16.5347 10.8442 16.1417C10.7921 15.9461 10.7611 15.7847 10.7433 15.6747C10.7345 15.6198 10.729 15.578 10.7258 15.5514C10.7251 15.545 10.7244 15.5394 10.7239 15.5349L10.7234 15.4901L10.721 15.2938L10.7125 14.5853C10.7055 13.9944 10.6961 13.1958 10.6867 12.3647C10.6724 11.0949 10.6582 9.75334 10.6522 8.95981ZM10.7222 15.5185C10.7222 15.5183 10.7222 15.5182 10.7222 15.5185L10.7222 15.5185Z" fill="white" stroke="white" stroke-width="1.125"/>
</mask>
<g mask="url(#mask1_1662_733)">
<path fill-rule="evenodd" clip-rule="evenodd" d="M10.4984 9.03989H12.6078V11.1818H10.4984V9.03989ZM14.7172 11.1818H12.6078V13.3237H10.4984V15.4656H12.6078V17.6075H10.4984V19.7494H12.6078V17.6075H14.7172V19.7494H16.8265V17.6075H18.9359V19.7494H21.0453V17.6075H18.9359V15.4656H21.0453V13.3237H18.9359V11.1818H21.0453V9.03989H18.9359V11.1818H16.8265V9.03989H14.7172V11.1818ZM14.7172 13.3237V11.1818H16.8265V13.3237H14.7172ZM14.7172 15.4656V13.3237H12.6078V15.4656H14.7172ZM16.8265 15.4656V17.6075H14.7172V15.4656H16.8265ZM16.8265 15.4656V13.3237H18.9359V15.4656H16.8265Z" fill="#F50100"/>
</g>
<path fill-rule="evenodd" clip-rule="evenodd" d="M10.453 8.16261C10.453 8.16261 11.1055 7.81411 11.6619 7.63452C12.2184 7.45492 12.6583 7.35679 12.6583 7.35679L11.8303 4.3047L10.172 3.68512L9.23279 5.23322L10.453 8.16261Z" fill="#56C6F5" stroke="white" stroke-width="0.5"/>
<path d="M10.181 6.49076L10.3716 6.3989C10.5684 6.81982 10.8278 6.94983 11.1833 6.81715C11.5465 6.68161 11.6945 6.42532 11.6423 6.019L11.8514 5.99127C11.9163 6.49564 11.7129 6.84769 11.2561 7.01819C10.7916 7.19153 10.4221 7.00631 10.181 6.49076Z" fill="white"/>
<path fill-rule="evenodd" clip-rule="evenodd" d="M10.6323 5.54183L10.4501 5.65218C10.4098 5.6766 10.3597 5.64151 10.3688 5.59527L10.4102 5.38634L10.2236 5.28375C10.1823 5.26104 10.1876 5.20009 10.2322 5.18491L10.4339 5.11629L10.4294 4.90334C10.4284 4.85622 10.4838 4.83036 10.5193 4.8614L10.6795 5.00172L10.8617 4.89136C10.902 4.86694 10.9522 4.90204 10.943 4.94827L10.9016 5.15721L11.0883 5.2598C11.1296 5.2825 11.1242 5.34346 11.0796 5.35864L10.878 5.42726L10.8825 5.64021C10.8835 5.68733 10.828 5.71319 10.7925 5.68214L10.6323 5.54183Z" fill="#FECA00"/>
<path fill-rule="evenodd" clip-rule="evenodd" d="M14.5407 7.07578C14.5407 7.07578 15.0971 7.02613 15.6817 7.03749C16.2664 7.04884 16.7609 7.053 16.7609 7.053L17.0465 4.04352L15.7942 2.91213L14.4021 4.07011L14.5407 7.07578Z" fill="#56C6F5" stroke="white" stroke-width="0.5"/>
<path fill-rule="evenodd" clip-rule="evenodd" d="M15.7501 6.58481C16.2325 6.58481 16.2787 6.06385 16.2787 5.70897C16.1553 5.51213 16.1802 5.37128 15.7848 5.37128C15.3895 5.37128 15.3444 5.49074 15.229 5.70897C15.229 6.06385 15.2678 6.58481 15.7501 6.58481Z" fill="#FECA00"/>
<path fill-rule="evenodd" clip-rule="evenodd" d="M16.293 5.11285C16.7753 5.11285 16.8215 4.59189 16.8215 4.23701C16.6982 4.04018 16.723 3.89932 16.3277 3.89932C15.9323 3.89932 15.8872 4.01879 15.7719 4.23701C15.7719 4.59189 15.8106 5.11285 16.293 5.11285Z" fill="#FECA00"/>
<path fill-rule="evenodd" clip-rule="evenodd" d="M15.2383 5.11285C15.7206 5.11285 15.7668 4.59189 15.7668 4.23701C15.6435 4.04018 15.6683 3.89932 15.273 3.89932C14.8776 3.89932 14.8325 4.01879 14.7172 4.23701C14.7172 4.59189 14.7559 5.11285 15.2383 5.11285Z" fill="#FECA00"/>
<path d="M12.4446 7.60484L12.3726 7.36014L11.506 4.4164L11.465 4.2769L11.5659 4.17224L12.8044 2.88833L12.9537 2.73352L13.1291 2.85806L14.4918 3.82587L14.5862 3.89289L14.5961 4.00821L14.8484 6.93263L14.8709 7.19317L14.6096 7.2039L14.6096 7.2039L14.6096 7.2039L14.6093 7.20391L14.6082 7.20396L14.6037 7.20415L14.5857 7.20495L14.5179 7.20825C14.46 7.21122 14.3786 7.21573 14.2853 7.2219C14.0973 7.23434 13.8664 7.25318 13.6811 7.27891C13.5042 7.3035 13.2591 7.36417 13.0501 7.42171C12.9474 7.44999 12.8565 7.47665 12.7912 7.49623C12.7586 7.50601 12.7326 7.514 12.7147 7.51952L12.6944 7.52583L12.6893 7.52743L12.6881 7.52781L12.6878 7.52789L12.6878 7.5279L12.4446 7.60484ZM12.4446 7.60484L12.6878 7.5279L12.4446 7.60484Z" fill="#2E42A5" stroke="white" stroke-width="0.5"/>
<mask id="mask2_1662_733" style="mask-type:luminance" maskUnits="userSpaceOnUse" x="11" y="2" width="5" height="6">
<path d="M12.4446 7.60484L12.3726 7.36014L11.506 4.4164L11.465 4.2769L11.5659 4.17224L12.8044 2.88833L12.9537 2.73352L13.1291 2.85806L14.4918 3.82587L14.5862 3.89289L14.5961 4.00821L14.8484 6.93263L14.8709 7.19317L14.6096 7.2039L14.6096 7.2039L14.6096 7.2039L14.6093 7.20391L14.6082 7.20396L14.6037 7.20415L14.5857 7.20495L14.5179 7.20825C14.46 7.21122 14.3786 7.21573 14.2853 7.2219C14.0973 7.23434 13.8664 7.25318 13.6811 7.27891C13.5042 7.3035 13.2591 7.36417 13.0501 7.42171C12.9474 7.44999 12.8565 7.47665 12.7912 7.49623C12.7586 7.50601 12.7326 7.514 12.7147 7.51952L12.6944 7.52583L12.6893 7.52743L12.6881 7.52781L12.6878 7.52789L12.6878 7.5279L12.4446 7.60484ZM12.4446 7.60484L12.6878 7.5279L12.4446 7.60484Z" fill="white" stroke="white" stroke-width="0.5"/>
</mask>
<g mask="url(#mask2_1662_733)">
<path d="M12.4364 6.63781L12.1859 6.04773C12.7239 5.81224 13.6328 5.66774 14.5891 5.61124L14.6259 6.25272C13.7368 6.30525 12.8958 6.43673 12.4364 6.63781Z" fill="#C51918"/>
<path d="M12.0137 5.21045L11.7632 4.62037C12.3012 4.38487 13.4576 4.19422 14.414 4.13773L14.4507 4.77921C13.5617 4.83173 12.4731 5.00936 12.0137 5.21045Z" fill="#C51918"/>
</g>
<path d="M18.9687 7.6066L19.0367 7.35468L19.8324 4.40609L19.8682 4.27369L19.7757 4.1724L18.608 2.89333L18.4589 2.73002L18.2786 2.85806L16.9159 3.82587L16.8215 3.89289L16.8116 4.00821L16.5593 6.93263L16.5368 7.19317L16.7981 7.2039L16.7981 7.2039L16.7981 7.2039L16.7984 7.20391L16.7995 7.20396L16.804 7.20415L16.8219 7.20495L16.8898 7.20825C16.9477 7.21122 17.0291 7.21573 17.1224 7.2219C17.3104 7.23434 17.5413 7.25318 17.7266 7.27891C17.9035 7.3035 18.1486 7.36417 18.3575 7.42171C18.4603 7.44999 18.5512 7.47665 18.6165 7.49623C18.6491 7.50601 18.6751 7.514 18.693 7.51952L18.7133 7.52583L18.7184 7.52743L18.7196 7.52781L18.7199 7.52789L18.7199 7.5279L18.9687 7.6066ZM18.9687 7.6066L18.7199 7.5279L18.9687 7.6066Z" fill="#2E42A5" stroke="white" stroke-width="0.5"/>
<mask id="mask3_1662_733" style="mask-type:luminance" maskUnits="userSpaceOnUse" x="16" y="2" width="5" height="6">
<path d="M18.9687 7.6066L19.0367 7.35468L19.8324 4.40609L19.8682 4.27369L19.7757 4.1724L18.608 2.89333L18.4589 2.73002L18.2786 2.85806L16.9159 3.82587L16.8215 3.89289L16.8116 4.00821L16.5593 6.93263L16.5368 7.19317L16.7981 7.2039L16.7981 7.2039L16.7981 7.2039L16.7984 7.20391L16.7995 7.20396L16.804 7.20415L16.8219 7.20495L16.8898 7.20825C16.9477 7.21122 17.0291 7.21573 17.1224 7.2219C17.3104 7.23434 17.5413 7.25318 17.7266 7.27891C17.9035 7.3035 18.1486 7.36417 18.3575 7.42171C18.4603 7.44999 18.5512 7.47665 18.6165 7.49623C18.6491 7.50601 18.6751 7.514 18.693 7.51952L18.7133 7.52583L18.7184 7.52743L18.7196 7.52781L18.7199 7.52789L18.7199 7.5279L18.9687 7.6066ZM18.9687 7.6066L18.7199 7.5279L18.9687 7.6066Z" fill="white" stroke="white" stroke-width="0.5"/>
</mask>
<g mask="url(#mask3_1662_733)">
<path fill-rule="evenodd" clip-rule="evenodd" d="M18.3978 6.46648C18.3978 6.46648 18.6918 6.30285 18.7342 6.02697C18.7766 5.75109 19.2313 5.41129 19.0039 5.45173C18.7766 5.49217 18.9066 5.52376 18.5774 5.45173C18.2481 5.3797 17.822 5.33206 17.822 5.12967C17.822 4.92728 18.0338 4.76665 17.8607 4.76665C17.6875 4.76665 17.3182 4.5751 17.3923 4.72151C17.4665 4.86792 17.2217 4.70237 17.3441 5.00633C17.4665 5.3103 17.3182 5.61652 17.3923 5.6971C17.4665 5.77767 17.3441 6.17286 17.3441 6.17286C17.3441 6.17286 17.3891 6.31964 17.4677 6.09979C17.5464 5.87995 17.7185 5.72585 17.6325 5.91282C17.5464 6.09979 17.4366 6.54452 17.5345 6.46648C17.6325 6.38844 17.7298 6.17262 17.7298 6.09979C17.7298 6.02697 17.9769 5.74111 17.9769 5.95698C17.9769 6.17286 17.7444 6.34287 17.8607 6.34287C17.9769 6.34287 18.0421 6.38874 18.1152 6.17286C18.1882 5.95698 18.3657 5.81418 18.4385 5.95698C18.5113 6.09979 18.4952 6.09216 18.3978 6.27932C18.3005 6.46648 18.3978 6.46648 18.3978 6.46648Z" fill="#FECA00"/>
<path fill-rule="evenodd" clip-rule="evenodd" d="M17.7072 4.8665L17.5978 4.68339C17.7942 4.56238 17.9745 4.53013 18.1328 4.5976C18.2049 4.62828 18.2591 4.66323 18.4005 4.76268L18.419 4.77566C18.5662 4.87891 18.6441 4.92097 18.6921 4.92097V5.13516C18.5823 5.13516 18.4873 5.0839 18.2991 4.9519L18.2804 4.93875C18.1531 4.84923 18.104 4.81758 18.0512 4.79511C17.9636 4.75779 17.8509 4.77794 17.7072 4.8665ZM17.3609 6.26344C17.423 6.26344 17.4734 6.21369 17.4734 6.15233C17.4734 6.09096 17.423 6.04122 17.3609 6.04122C17.2988 6.04122 17.2484 6.09096 17.2484 6.15233C17.2484 6.21369 17.2988 6.26344 17.3609 6.26344ZM17.6844 6.36652C17.6844 6.42788 17.634 6.47763 17.5719 6.47763C17.5097 6.47763 17.4594 6.42788 17.4594 6.36652C17.4594 6.30515 17.5097 6.25541 17.5719 6.25541C17.634 6.25541 17.6844 6.30515 17.6844 6.36652ZM17.9508 6.46937C18.0129 6.46937 18.0633 6.41962 18.0633 6.35826C18.0633 6.29689 18.0129 6.24715 17.9508 6.24715C17.8886 6.24715 17.8383 6.29689 17.8383 6.35826C17.8383 6.41962 17.8886 6.46937 17.9508 6.46937ZM18.4157 6.53608C18.4157 6.59744 18.3654 6.64719 18.3032 6.64719C18.2411 6.64719 18.1907 6.59744 18.1907 6.53608C18.1907 6.47471 18.2411 6.42497 18.3032 6.42497C18.3654 6.42497 18.4157 6.47471 18.4157 6.53608Z" fill="#C51918"/>
</g>
<path d="M21.3524 8.18593L21.2444 8.43467L21.0053 8.30693L21.0053 8.30693L21.0052 8.30692L21.005 8.30679L21.0039 8.30617L20.9988 8.30349L20.9782 8.2927C20.9601 8.28321 20.9332 8.26933 20.8992 8.25205C20.8311 8.21746 20.7344 8.16941 20.6207 8.11588C20.3917 8.008 20.1006 7.88119 19.8373 7.79623C19.5645 7.70819 19.3201 7.64005 19.144 7.59395C19.056 7.57093 18.9852 7.55345 18.9368 7.5418L18.8814 7.52872L18.8675 7.52552L18.8642 7.52477L18.8635 7.52461L18.8634 7.52459L18.8633 7.52458L18.8633 7.52458L18.8633 7.52458L18.6049 7.46693L18.6773 7.21222L19.5233 4.23633L19.5579 4.11475L19.6763 4.07051L21.3346 3.45093L21.5285 3.37849L21.6359 3.55545L22.5751 5.10355L22.6421 5.21412L22.5907 5.33275L21.3524 8.18593Z" fill="#56C6F5" stroke="white" stroke-width="0.5"/>
<mask id="mask4_1662_733" style="mask-type:luminance" maskUnits="userSpaceOnUse" x="18" y="3" width="5" height="6">
<path d="M21.3524 8.18593L21.2444 8.43467L21.0053 8.30693L21.0053 8.30693L21.0052 8.30692L21.005 8.30679L21.0039 8.30617L20.9988 8.30349L20.9782 8.2927C20.9601 8.28321 20.9332 8.26933 20.8992 8.25205C20.8311 8.21746 20.7344 8.16941 20.6207 8.11588C20.3917 8.008 20.1006 7.88119 19.8373 7.79623C19.5645 7.70819 19.3201 7.64005 19.144 7.59395C19.056 7.57093 18.9852 7.55345 18.9368 7.5418L18.8814 7.52872L18.8675 7.52552L18.8642 7.52477L18.8635 7.52461L18.8634 7.52459L18.8633 7.52458L18.8633 7.52458L18.8633 7.52458L18.6049 7.46693L18.6773 7.21222L19.5233 4.23633L19.5579 4.11475L19.6763 4.07051L21.3346 3.45093L21.5285 3.37849L21.6359 3.55545L22.5751 5.10355L22.6421 5.21412L22.5907 5.33275L21.3524 8.18593Z" fill="white" stroke="white" stroke-width="0.5"/>
</mask>
<g mask="url(#mask4_1662_733)">
<path fill-rule="evenodd" clip-rule="evenodd" d="M21.1274 5.08912L20.9854 5.24792C20.954 5.28306 20.8958 5.26415 20.8911 5.21726L20.8696 5.00535L20.6611 4.96181C20.615 4.95218 20.6022 4.89233 20.6405 4.86476L20.8132 4.74019L20.7467 4.53785C20.732 4.49308 20.7774 4.45214 20.8204 4.47146L21.0147 4.5588L21.1566 4.4C21.188 4.36486 21.2462 4.38377 21.251 4.43066L21.2725 4.64257L21.481 4.6861C21.5271 4.69574 21.5399 4.75559 21.5016 4.78315L21.3289 4.90773L21.3954 5.11006C21.4101 5.15483 21.3647 5.19578 21.3217 5.17645L21.1274 5.08912Z" fill="#FECA00"/>
<path d="M18.9951 6.48761L19.2075 5.65845C20.1483 5.90695 21.129 6.22543 21.8484 6.53341L21.5207 7.32288C20.841 7.03194 19.8985 6.72623 18.9951 6.48761Z" fill="#E31D1C"/>
<path d="M19.2831 5.72195L19.3332 5.51389C20.2351 5.7377 21.1937 6.09483 21.8903 6.42745L21.8005 6.62128C21.1173 6.29505 20.1719 5.94252 19.2831 5.72195Z" fill="white"/>
<path d="M19.0157 6.57651L19.0658 6.36844C19.9677 6.59226 20.8013 6.89595 21.4979 7.22857L21.4082 7.4224C20.725 7.09617 19.9046 6.79708 19.0157 6.57651Z" fill="white"/>
<path d="M19.4229 6.17498L19.616 6.08777C19.6973 6.27808 19.7977 6.32001 19.9656 6.23844C20.3621 6.04578 21.3457 6.31501 21.3457 6.67805C21.3457 6.81967 21.2636 6.90554 21.1383 6.90057C21.0676 6.89776 20.9921 6.86981 20.8813 6.81505C20.8679 6.80841 20.859 6.80396 20.8372 6.79288C20.7148 6.73042 20.7055 6.72586 20.6729 6.71412L20.7427 6.50946C20.7878 6.52574 20.7949 6.52923 20.931 6.59861C20.952 6.60927 20.9601 6.6134 20.9727 6.6196C21.0576 6.66158 21.1144 6.68259 21.1464 6.68386C21.1494 6.68398 21.1348 6.69928 21.1348 6.67805C21.1348 6.51831 20.3342 6.29919 20.0557 6.43451C19.7779 6.56947 19.5509 6.47466 19.4229 6.17498Z" fill="#272727"/>
</g>
</g>
</g>
<defs>
<clipPath id="clip0_1662_733">
<rect width="32" height="24" fill="white"/>
</clipPath>
</defs>
</svg>
