<?xml version="1.0" encoding="utf-8"?>
<!-- Generator: Adobe Illustrator 27.5.0, SVG Export Plug-In . SVG Version: 6.00 Build 0)  -->
<svg version="1.1" id="Capa_2" xmlns="http://www.w3.org/2000/svg" xmlns:xlink="http://www.w3.org/1999/xlink" x="0px" y="0px"
	 viewBox="0 0 2122 2122" style="enable-background:new 0 0 2122 2122;" xml:space="preserve">
<path style="fill:#E7393A;" d="M1731.529,1217.576l0.021-0.377c0.307-5.598,0.552-11.205,0.731-16.819l0.008-0.219
	c0.142-4.519,0.244-9.042,0.303-13.567l0.002-0.089c0.044-3.419,0.065-6.839,0.061-10.259v-0.004
	c-0.008-6.868-0.114-13.737-0.321-20.602c-0.068-2.288-0.149-4.576-0.239-6.863c-0.592-14.866-1.656-29.701-3.212-44.443
	c-0.119-1.134-0.242-2.267-0.368-3.4c-1.256-11.328-2.803-22.598-4.65-33.78c-2.587-15.656-5.762-31.14-9.553-46.374
	c-1.524-6.125-3.148-12.21-4.871-18.249c-0.575-2.013-1.161-4.021-1.758-6.024c-0.298-1.001-0.599-2.002-0.904-3
	c-0.608-1.998-1.228-3.99-1.858-5.976c-1.262-3.973-2.57-7.924-3.922-11.851c-1.353-3.927-2.752-7.831-4.197-11.71
	c-0.36-0.97-0.726-1.938-1.093-2.905c-0.734-1.933-1.48-3.859-2.238-5.779c-1.136-2.881-2.298-5.745-3.487-8.596
	c-1.586-3.8-3.217-7.572-4.898-11.315c-0.646-1.441-1.301-2.875-1.961-4.307c-1.264-2.741-2.555-5.466-3.872-8.176
	c-0.456-0.936-0.914-1.872-1.375-2.804c-2.941-5.944-6.005-11.808-9.202-17.582c-0.492-0.889-0.988-1.776-1.485-2.661
	c-3.987-7.079-8.168-14.022-12.551-20.818c-0.548-0.849-1.099-1.696-1.653-2.541c-1.282-1.956-2.584-3.899-3.901-5.831
	c-3.231-4.74-6.562-9.403-9.997-13.985c-0.946-1.262-1.903-2.516-2.865-3.764c-2.387-3.101-4.823-6.164-7.308-9.187
	c-2.269-2.76-4.576-5.489-6.927-8.181c-1.324-1.517-2.663-3.024-4.014-4.52c-0.724-0.803-1.454-1.601-2.186-2.397
	c-0.964-1.048-1.936-2.087-2.913-3.124c-1.047-1.112-2.099-2.219-3.163-3.317c-0.701-0.725-1.407-1.447-2.114-2.167
	c-2.106-2.138-4.24-4.25-6.403-6.336l-0.158-0.153c-2.153-2.073-4.335-4.12-6.546-6.141c-4.15-3.793-8.406-7.488-12.762-11.09
	c-3.498-2.891-7.06-5.721-10.692-8.483c-4.895-3.723-9.912-7.327-15.055-10.809c-3.755-2.542-7.579-5.018-11.469-7.427
	c-6.761-4.188-13.722-8.175-20.893-11.944c-0.942-0.495-1.886-0.986-2.834-1.473c-17.069-8.772-35.291-16.336-54.707-22.553
	c-65.942-21.115-138.648-21.647-208.273-6.352c-1.105,0.242-2.209,0.489-3.313,0.74c-9.932,2.256-19.798,4.834-29.569,7.72
	c-2.172,0.641-4.339,1.297-6.499,1.969c-2.163,0.672-4.32,1.357-6.47,2.059c-1.077,0.351-2.151,0.705-3.223,1.063
	c-2.146,0.716-4.288,1.447-6.421,2.193c-1.068,0.373-2.134,0.749-3.198,1.129c-3.194,1.141-6.373,2.314-9.539,3.52
	c-2.111,0.804-4.214,1.622-6.312,2.454c-2.097,0.832-4.188,1.679-6.272,2.539c-31.92,13.184-62.185,29.668-89.667,48.901
	c15.334-190.273,108.683-372.379,248.398-473.497c2.568-1.859,3.143-5.444,1.286-8.012c-1.851-2.565-5.452-3.147-8.009-1.284
	c-76.797,55.58-139.844,135.117-184.083,226.975c-0.651-11.583-1.861-23.074-3.637-34.428c-0.373-2.383-0.77-4.759-1.191-7.13
	c-0.423-2.371-0.87-4.735-1.341-7.092c-0.472-2.357-0.967-4.708-1.487-7.052c-0.26-1.171-0.527-2.341-0.8-3.51
	c-0.817-3.504-1.69-6.993-2.62-10.462c-0.928-3.47-1.912-6.923-2.952-10.356c-0.693-2.288-1.409-4.569-2.151-6.84
	c-0.372-1.135-0.748-2.269-1.131-3.401c-0.766-2.262-1.557-4.516-2.372-6.76c-0.408-1.122-0.822-2.242-1.241-3.359
	c-5.458-14.523-11.949-28.638-19.464-42.239c-2.313-4.185-4.723-8.321-7.229-12.405c-6.893-11.231-14.519-22.071-22.872-32.454
	c-2.279-2.832-4.61-5.63-6.998-8.392c-1.59-1.842-3.205-3.667-4.845-5.478c-20.896-23.076-45.129-43.065-71.623-59.403
	c-1.039-0.641-2.081-1.276-3.128-1.905c-9.935-5.979-20.178-11.449-30.675-16.38c-1.104-0.519-2.212-1.032-3.323-1.539
	c-1.109-0.507-2.223-1.009-3.339-1.503c-1.116-0.495-2.235-0.984-3.356-1.467c-6.165-2.656-12.409-5.128-18.721-7.412
	c-1.149-0.415-2.298-0.824-3.451-1.226c-0.576-0.201-1.152-0.401-1.73-0.599c-1.154-0.396-2.31-0.786-3.469-1.17
	c-0.58-0.192-1.159-0.382-1.739-0.57c-4.643-1.509-9.318-2.917-14.021-4.219c-1.177-0.326-2.354-0.646-3.534-0.958
	c-1.18-0.312-2.362-0.619-3.543-0.919c-0.592-0.15-1.184-0.298-1.776-0.445c-7.107-1.759-14.273-3.28-21.484-4.558
	c-0.601-0.106-1.201-0.211-1.803-0.314c-4.211-0.721-8.436-1.359-12.673-1.913c-101.013-13.191-212.119,21.137-302.863-24.656
	l0.019,0.049c-0.565-0.285-1.13-0.571-1.694-0.863c14.862,118.85,36.923,244.177,115.839,334.281
	c58.728,67.056,146.49,107.758,235.616,109.273c84.954,1.444,169.88-32.737,230.451-92.252
	c-34.259,76.581-55.651,160.939-61.388,246.658c-4.149,3.124-8.228,6.311-12.229,9.561c-30.112-24.468-63.59-44.751-99.072-60.495
	c-2.129-0.944-4.266-1.873-6.409-2.785c-11.43-4.863-23.056-9.26-34.835-13.177c-1.471-0.49-2.946-0.972-4.424-1.447
	c-2.216-0.712-4.436-1.407-6.661-2.085c-1.484-0.452-2.97-0.897-4.458-1.334c-3.72-1.093-7.453-2.138-11.197-3.136
	c-1.498-0.399-2.997-0.79-4.499-1.174c-2.251-0.576-4.508-1.134-6.768-1.675c-2.26-0.542-4.524-1.066-6.791-1.573
	c-0.755-0.169-1.511-0.336-2.268-0.501c-1.513-0.331-3.026-0.653-4.542-0.967c-0.757-0.157-1.516-0.313-2.275-0.466
	c-4.55-0.921-9.113-1.772-13.686-2.552c-2.286-0.39-4.575-0.763-6.864-1.118c-1.528-0.237-3.056-0.466-4.585-0.687
	c-0.765-0.111-1.53-0.219-2.295-0.326c-1.53-0.213-3.059-0.418-4.59-0.616c-0.766-0.099-1.531-0.196-2.299-0.29
	c-6.127-0.757-12.267-1.388-18.411-1.891c-0.769-0.063-1.536-0.123-2.304-0.183c-1.537-0.117-3.073-0.227-4.61-0.329
	c-3.841-0.254-7.686-0.457-11.529-0.61c-3.058-0.122-6.117-0.211-9.175-0.269c-0.784-0.015-1.569-0.027-2.353-0.038
	c-2.304-0.031-4.609-0.043-6.913-0.037c-3.839,0.009-7.676,0.071-11.51,0.184c-0.766,0.023-1.533,0.047-2.3,0.074
	c-29.89,1.04-59.542,5.223-88.308,12.715c-1.475,0.384-2.949,0.777-4.419,1.179c-3.676,1.004-7.337,2.063-10.981,3.176
	c-1.458,0.445-2.914,0.899-4.367,1.363c-2.178,0.694-4.35,1.409-6.517,2.143c-0.722,0.245-1.444,0.492-2.164,0.741
	c-35.609,12.312-69.451,30.028-100.214,53.489l-0.042,0.032c-1.705,1.301-3.401,2.619-5.087,3.954l-0.079,0.063
	c-0.783,0.622-1.565,1.248-2.345,1.877l-0.254,0.205c-1.604,1.297-3.198,2.61-4.784,3.939l-0.399,0.336
	c-0.646,0.543-1.292,1.09-1.935,1.639l-0.473,0.403c-0.759,0.65-1.517,1.304-2.271,1.962l-0.229,0.201
	c-0.674,0.589-1.346,1.181-2.018,1.776l-0.551,0.49c-0.636,0.565-1.269,1.133-1.901,1.705l-0.359,0.324
	c-0.727,0.66-1.453,1.323-2.177,1.99l-0.524,0.485c-0.576,0.533-1.149,1.068-1.722,1.605l-0.585,0.549
	c-0.721,0.68-1.441,1.362-2.158,2.048l-0.166,0.16l-0.27,0.261l-1.215,1.173l-0.232,0.223l-0.368,0.361l-0.661,0.646l-0.3,0.294
	l-0.537,0.526l-0.327,0.324c-1.133,1.119-2.258,2.244-3.374,3.375c-0.535,0.542-1.067,1.086-1.597,1.63l-0.173,0.177l-1.087,1.124
	l-0.754,0.78l-0.732,0.768l-1.049,1.101l-0.778,0.828l-1.006,1.071l-0.744,0.803l-1.003,1.082l-0.812,0.887l-0.939,1.029
	l-0.848,0.939l-0.865,0.96l-0.927,1.043l-0.792,0.892l-0.822,0.936l-0.885,1.009l-0.764,0.883l-0.922,1.068l-0.731,0.857
	l-0.943,1.106l-0.75,0.892l-0.887,1.055l-0.853,1.028l-0.787,0.95l-0.809,0.988l-0.821,1.003l-0.772,0.957l-0.838,1.039
	l-0.839,1.054l-0.737,0.926l-0.896,1.141l-0.685,0.874l-0.804,1.038l-0.786,1.016l-0.814,1.065l-0.702,0.921l-0.928,1.23
	l-0.611,0.814l-0.874,1.174l-0.654,0.883l-0.909,1.241l-0.581,0.794l-0.933,1.291l-0.565,0.783l-0.865,1.213l-0.625,0.879
	l-0.85,1.21l-0.605,0.863l-0.83,1.195l-0.629,0.909l-0.886,1.295l-0.522,0.766c-0.315,0.465-0.629,0.931-0.941,1.397l-0.475,0.707
	l-0.878,1.321l-0.56,0.845l-0.803,1.225l-0.574,0.878c-0.294,0.451-0.585,0.903-0.876,1.355l-0.491,0.762
	c-0.308,0.48-0.614,0.962-0.92,1.443l-0.427,0.672c-0.318,0.502-0.633,1.006-0.949,1.51l-0.404,0.646
	c-0.295,0.474-0.589,0.949-0.882,1.424l-0.468,0.758c-0.298,0.486-0.596,0.974-0.892,1.461l-0.41,0.673
	c-0.312,0.515-0.622,1.031-0.932,1.547l-0.371,0.62c-0.313,0.524-0.624,1.05-0.935,1.575l-0.353,0.597
	c-0.307,0.521-0.612,1.042-0.915,1.564l-0.377,0.647c-0.292,0.504-0.583,1.009-0.873,1.514l-0.394,0.686
	c-0.292,0.511-0.584,1.023-0.874,1.536l-0.369,0.651c-0.315,0.561-0.63,1.123-0.944,1.685l-0.263,0.472
	c-0.337,0.607-0.672,1.215-1.007,1.823l-0.205,0.374c-0.331,0.603-0.66,1.208-0.987,1.813l-0.23,0.425
	c-0.346,0.641-0.69,1.283-1.032,1.925l-0.134,0.25c-0.347,0.652-0.691,1.304-1.035,1.957l-0.16,0.305
	c-0.341,0.651-0.681,1.304-1.018,1.957l-0.142,0.275c-0.357,0.69-0.711,1.382-1.065,2.075l-0.066,0.128
	c-0.373,0.732-0.743,1.466-1.111,2.2l-0.013,0.026c-0.377,0.75-0.751,1.502-1.123,2.255l-0.001,0.003
	c-76.481,154.789-59.029,358.133,3.72,511.481c53.293,130.237,139.421,239.218,236.427,328.661
	c54.199,49.973,116.101,95.308,181.353,119.899l0.067,0.025c3.569,1.344,7.149,2.626,10.737,3.844l0.211,0.071
	c0.67,0.227,1.341,0.452,2.011,0.673l0.234,0.077c2.751,0.91,5.508,1.781,8.27,2.613l0.527,0.159
	c0.59,0.176,1.179,0.351,1.769,0.524l0.58,0.169c0.598,0.175,1.197,0.347,1.795,0.518l0.239,0.067
	c1.992,0.565,3.986,1.108,5.982,1.63l0.594,0.156c0.562,0.146,1.123,0.289,1.686,0.432l0.743,0.188
	c0.553,0.138,1.106,0.275,1.659,0.411l0.625,0.152c1.83,0.443,3.66,0.868,5.494,1.275l0.838,0.186
	c0.507,0.111,1.016,0.219,1.523,0.328l0.918,0.194c0.499,0.105,0.999,0.208,1.499,0.31l0.937,0.189
	c0.506,0.101,1.013,0.203,1.52,0.301l0.765,0.146c0.916,0.176,1.832,0.346,2.747,0.512l1.153,0.208l1.322,0.229l1.141,0.194
	l1.34,0.221l1.176,0.187l1.311,0.205l1.195,0.178c0.582,0.086,1.164,0.171,1.748,0.254c0.607,0.085,1.213,0.171,1.82,0.251
	l1.173,0.153l1.334,0.17l1.186,0.144c0.451,0.054,0.902,0.106,1.354,0.158l1.174,0.132c0.465,0.051,0.929,0.099,1.394,0.148
	l1.11,0.115c0.648,0.065,1.296,0.126,1.944,0.185c0.494,0.045,0.988,0.088,1.482,0.13c0.477,0.041,0.954,0.082,1.431,0.12
	l1.135,0.087c0.47,0.035,0.94,0.07,1.41,0.103l1.121,0.075c0.489,0.032,0.979,0.062,1.47,0.091l1.055,0.061
	c0.61,0.033,1.219,0.064,1.83,0.093l0.982,0.045c0.711,0.03,1.421,0.059,2.131,0.083l0.962,0.03
	c0.522,0.016,1.046,0.031,1.569,0.044l1.042,0.022c0.517,0.01,1.035,0.019,1.553,0.025l1.012,0.012
	c0.579,0.005,1.156,0.008,1.735,0.009l0.781,0.002c0.828-0.001,1.656-0.007,2.484-0.016l0.71-0.012
	c0.617-0.009,1.232-0.02,1.848-0.034l0.914-0.024c0.546-0.014,1.09-0.031,1.636-0.049l0.982-0.035
	c0.571-0.021,1.143-0.046,1.715-0.072l0.827-0.038c0.834-0.04,1.669-0.085,2.503-0.135l0.395-0.025
	c0.726-0.044,1.451-0.092,2.177-0.144l0.82-0.061c0.572-0.042,1.145-0.087,1.717-0.134l0.951-0.08
	c0.555-0.048,1.11-0.098,1.664-0.15l0.93-0.087c0.67-0.066,1.34-0.135,2.01-0.206l0.517-0.053c0.844-0.092,1.688-0.19,2.532-0.291
	l0.709-0.088c0.621-0.077,1.244-0.156,1.866-0.238l0.85-0.114c0.589-0.08,1.177-0.162,1.767-0.247l0.846-0.123
	c0.652-0.096,1.305-0.196,1.958-0.298l0.603-0.093c0.852-0.136,1.702-0.275,2.552-0.421l0.531-0.093
	c0.685-0.119,1.368-0.24,2.053-0.365l0.811-0.151c0.588-0.11,1.175-0.222,1.764-0.336l0.885-0.174
	c0.587-0.117,1.174-0.236,1.761-0.358l0.839-0.174c0.844-0.178,1.688-0.36,2.531-0.548c4.362-0.973,8.741-2.075,13.135-3.273
	c0.548-0.15,1.099-0.301,1.648-0.453c0.671-0.187,1.344-0.376,2.016-0.567c3.73-1.057,7.466-2.177,11.212-3.339
	c0.553-0.172,1.105-0.344,1.658-0.517c1.106-0.347,2.212-0.696,3.318-1.049c0.554-0.177,1.107-0.354,1.661-0.531
	c1.66-0.533,3.321-1.072,4.984-1.615c0.553-0.181,1.109-0.363,1.661-0.545c3.88-1.274,7.763-2.568,11.647-3.859
	c1.295,0.43,2.588,0.86,3.881,1.29c0.742,0.247,1.483,0.492,2.223,0.738c0.922,0.306,1.844,0.611,2.765,0.915
	c0.926,0.306,1.851,0.611,2.777,0.915c0.736,0.241,1.47,0.481,2.205,0.721c1.304,0.425,2.605,0.848,3.908,1.267
	c0.731,0.235,1.464,0.47,2.195,0.703c1.107,0.353,2.213,0.703,3.318,1.049c0.723,0.227,1.447,0.451,2.171,0.675
	c3.695,1.143,7.386,2.246,11.067,3.285c5.501,1.555,10.981,2.972,16.432,4.188c7.389,1.648,14.776,2.909,22.156,3.802
	c1.845,0.224,3.689,0.423,5.533,0.601c2.767,0.266,5.532,0.482,8.295,0.648c3.686,0.221,7.366,0.353,11.046,0.399
	c4.598,0.058,9.191-0.019,13.778-0.225c4.586-0.206,9.166-0.541,13.738-1c1.83-0.184,3.656-0.388,5.483-0.611
	c3.651-0.446,7.299-0.971,10.941-1.571c1.819-0.3,3.638-0.619,5.455-0.957c1.817-0.337,3.633-0.693,5.447-1.068
	c0.907-0.187,1.813-0.379,2.719-0.575c9.966-2.159,19.881-4.865,29.727-8.064c0.894-0.291,1.789-0.586,2.684-0.885
	c21.455-7.174,42.581-16.67,63.226-27.927c0.86-0.469,1.72-0.941,2.578-1.416c13.736-7.602,27.255-15.975,40.515-24.955
	c0.828-0.561,1.656-1.125,2.482-1.69c3.307-2.264,6.597-4.565,9.87-6.9c0.819-0.584,1.636-1.17,2.452-1.758
	c25.296-18.231,49.547-38.5,72.425-59.595c12.125-11.18,24.082-22.666,35.825-34.46c8.807-8.846,17.495-17.865,26.045-27.059
	c1.424-1.533,2.845-3.07,4.263-4.612c7.794-8.482,15.47-17.11,23.014-25.888c1.372-1.596,2.739-3.197,4.102-4.802
	c2.043-2.408,4.078-4.828,6.102-7.259c1.349-1.62,2.695-3.245,4.034-4.876c10.05-12.227,19.837-24.732,29.328-37.516
	c1.264-1.704,2.525-3.414,3.78-5.129s2.503-3.434,3.748-5.158c2.487-3.449,4.953-6.918,7.396-10.407
	c0.612-0.873,1.221-1.746,1.828-2.621c2.432-3.499,4.841-7.018,7.227-10.557c1.193-1.77,2.38-3.544,3.561-5.324
	c1.182-1.779,2.356-3.564,3.525-5.354c2.338-3.579,4.653-7.178,6.943-10.798c1.145-1.81,2.284-3.625,3.416-5.445
	c1.133-1.82,2.26-3.644,3.379-5.474c4.479-7.32,8.856-14.721,13.128-22.203c0.535-0.935,1.066-1.871,1.597-2.809
	c4.774-8.44,9.414-16.984,13.908-25.631c0.999-1.922,1.992-3.849,2.975-5.78c8.371-16.42,16.221-33.211,23.501-50.375
	c0.428-1.01,0.855-2.021,1.279-3.033c0.849-2.024,1.691-4.054,2.523-6.089c5.021-12.271,9.704-24.947,14.03-37.967
	c0.331-1.001,0.663-2.005,0.991-3.011c1.895-5.803,3.719-11.673,5.471-17.604c0.138-0.467,0.276-0.935,0.413-1.403
	c1.055-3.601,2.084-7.224,3.085-10.868c0.651-2.371,1.294-4.75,1.922-7.138c0.277-1.05,0.551-2.101,0.822-3.154
	c0.881-3.411,1.736-6.84,2.569-10.284c2.767-11.436,5.272-23.049,7.503-34.803c0.414-2.185,0.819-4.375,1.214-6.57
	c0.199-1.097,0.394-2.196,0.586-3.295c0.354-2.014,0.699-4.033,1.036-6.054l0.17-1.024c1.045-6.316,2.012-12.666,2.898-19.047
	l0.128-0.926c0.267-1.934,0.525-3.871,0.777-5.811l0.105-0.818c1.267-9.859,2.341-19.784,3.215-29.755l0.05-0.569
	C1730.54,1233.184,1731.096,1225.389,1731.529,1217.576z"/>
<path style="fill:#EA5250;" d="M1472.159,1117.91c-14.151-60.249-46.753-120.81-100.561-154.36
	c-28.542-17.796-62.888-27.101-96.389-21.075c-33.889,6.096-64.467,23.203-96.319,35.409
	c-51.876,19.879-116.113,30.544-162.234-8.323c-23.727-19.995-35.591-49.262-43.925-78.38c-9.122-31.873-13.314-66.708-35.08-93.164
	c-20.53-24.954-51.32-40.297-81.64-49.805c-57.72-8.011-117.933-2.123-174.316,9.566c-63.545,13.174-123.421,40.135-173.46,81.741
	c-12.527,10.416-23.42,20.677-34.281,32.648l-1.079,1.329l-0.533,0.707l-0.872,1.225l-0.599,0.853l-0.854,1.218l-0.663,0.956
	l-0.772,1.116l-0.713,1.043l-0.717,1.052l-0.79,1.172l-0.604,0.898l-0.74,1.112l-0.721,1.088l-0.649,0.991l-0.704,1.077
	l-0.732,1.133l-0.66,1.025l-0.716,1.123l-0.631,0.993l-0.759,1.209l-0.593,0.946l-0.758,1.224l-0.567,0.919l-0.758,1.242
	l-0.566,0.93c-0.274,0.452-0.546,0.905-0.818,1.358l-0.46,0.767c-0.291,0.487-0.581,0.976-0.871,1.465l-0.42,0.711
	c-0.267,0.455-0.533,0.91-0.799,1.365l-0.52,0.893l-0.725,1.257l-0.525,0.914c-0.27,0.471-0.537,0.944-0.805,1.416l-0.423,0.748
	c-0.284,0.503-0.566,1.008-0.848,1.513l-0.377,0.674c-0.302,0.545-0.604,1.091-0.904,1.637l-0.307,0.557
	c-0.291,0.533-0.581,1.066-0.87,1.599l-0.358,0.66c-0.295,0.548-0.59,1.097-0.882,1.646l-0.287,0.538
	c-0.305,0.575-0.609,1.149-0.911,1.725l-0.273,0.518c-0.302,0.577-0.602,1.154-0.901,1.733l-0.267,0.514
	c-0.309,0.6-0.617,1.2-0.923,1.801l-0.21,0.409c-0.326,0.643-0.651,1.286-0.975,1.93l-0.15,0.299
	c-0.332,0.662-0.661,1.324-0.989,1.987l-0.135,0.273c-0.335,0.678-0.667,1.357-0.998,2.036l-0.104,0.213
	c-0.353,0.725-0.704,1.452-1.053,2.18l-0.019,0.041c-0.358,0.747-0.714,1.495-1.068,2.244l-0.021,0.044
	c-0.357,0.755-0.712,1.513-1.064,2.271l-0.004,0.008c-1.064,2.289-2.107,4.588-3.132,6.897l-0.124,0.277
	c-1.033,2.332-2.045,4.675-3.038,7.026l-0.09,0.211c-63.3,150.116-45.416,338.929,12.984,484.127
	c5.046,6.746,10.173,13.433,15.399,20.046c17.483,22.126,34.296,44.673,52.849,65.944c38.601,44.256,85.173,90.486,142.945,107.738
	c1.558,0.465,3.126,0.907,4.701,1.325c26.28,26.448,59.238,58.453,92.741,73.371c26.552,11.823,60.936,11.873,82.253-7.471
	c21.843-19.823,26.459-55.71,53.38-68.411c23.687-11.176,55.52,0.944,76.465-14.529c16.666-12.311,17.779-36.844,10.444-55.845
	c-14.071-36.449-50.247-59.486-82.22-83.098c-3.665-2.707-7.297-5.458-10.897-8.245c28.973-39.882,62.369-76.516,110.465-92.511
	c18.526-6.161,38.997-8.54,57.991-3.014c17.006,4.948,31.685,15.394,43.398,28.526c27.599,30.947,42.367,71.894,56.356,110.258
	c13.939,38.23,25.511,79.713,49.34,113.261c14.345,20.197,35.09,39.292,61.313,39.442c23.288,0.133,44.76-12.912,62.066-27.417
	c21.178-17.752,39.098-39.464,55.044-61.933c15.468-21.798,29.697-44.839,41.258-68.953
	c28.339-59.105,47.295-122.938,57.816-187.573C1485.364,1252.305,1487.498,1183.214,1472.159,1117.91z"/>
<path style="fill:#F2907C;" d="M778.144,1368.692c-65.279-80.472-110.264-176.306-129.976-276.796
	c-9.923-50.589-12.255-101.243-9.924-152.58c0.969-21.363,14.315-84.493-23.42-83.188c-19.456,0.678-34.473,23.338-43.697,37.195
	c-24.469,36.758-42.711,80.683-54.445,122.893c-3.668,13.191-6.896,26.592-9.688,40.16c-31.512,153.11-7.573,327.635,66.593,464.072
	c21.003,38.637,47.153,74.796,78.4,106.345c1.781,1.798,3.599,3.632,5.448,5.494c26.28,26.448,59.238,58.453,92.741,73.371
	c26.552,11.823,60.936,11.873,82.253-7.471c21.843-19.823,26.459-55.71,53.38-68.411c23.687-11.176,55.52,0.944,76.465-14.529
	c16.666-12.311,17.779-36.844,10.444-55.845c-14.071-36.449-50.247-59.486-82.22-83.098c-3.665-2.707-7.297-5.458-10.897-8.245
	C841.943,1438.897,807.919,1405.396,778.144,1368.692z"/>
<path style="fill:#9CC54B;" d="M1337.008,320.034c-1.856-2.565-5.457-3.145-8.009-1.284
	c-76.797,55.581-139.845,135.119-184.083,226.977c-4.202-74.789-31.907-145.675-82.33-201.358
	c-52.447-57.918-125.906-96.385-203.384-106.502c-101.632-13.271-213.491,21.598-304.539-25.47
	c14.862,118.851,36.925,244.177,115.839,334.281c58.729,67.056,146.491,107.758,235.616,109.273
	c84.955,1.444,169.881-32.737,230.453-92.253c-34.26,76.582-55.653,160.939-61.389,246.659c-1.964,29.347-2.092,58.855-0.273,88.264
	c-16.978-5.388-31.948-17.142-40.999-32.497c-1.403-2.377-4.463-3.167-6.83-1.764c-2.373,1.398-3.162,4.458-1.764,6.831
	c11.815,20.046,32.502,34.697,55.327,39.186c5.126,1.008,10.343,1.503,15.566,1.503c18.041,0,36.122-5.893,50.49-16.811
	c2.193-1.669,2.617-4.799,0.95-6.992c-1.666-2.195-4.789-2.619-6.992-0.955c-15.211,11.562-35.151,16.713-54.083,14.13
	c-2.226-33.228-1.92-66.592,0.749-99.709c15.334-190.271,108.685-372.377,248.398-473.497
	C1338.29,326.187,1338.865,322.602,1337.008,320.034z"/>
<path style="fill:#7EAB36;" d="M706.774,401.751c-52.528-35.334-94.511-87.263-116.732-146.201
	c-0.726-1.934,0.249-4.092,2.183-4.821c1.934-0.733,4.098,0.249,4.823,2.18c28.166,74.711,88.887,137.878,162.431,168.975
	c29.146,12.323,60.291,19.956,91.818,25.701c29.044,3.732,58.356,6.248,87.11,10.768c31.851,5.005,63.549,11.767,94.118,22.134
	c3.98,1.349,7.998,2.745,12.03,4.202c17.395,6.042,34.284,13.462,50.387,22.82c12.177,7.075,21.562,14.67,28.117,22.731
	c6.942,7.268,12.854,15.172,18.05,23.516c1.253-2.687,2.522-5.364,3.806-8.031c-0.033-0.579-0.063-1.157-0.098-1.736l-0.026-0.423
	c-0.145-2.331-0.313-4.658-0.504-6.981c-0.191-2.323-0.406-4.641-0.642-6.955c-0.135-1.324-0.277-2.646-0.427-3.967
	c-0.249-2.192-0.52-4.379-0.811-6.563c-0.194-1.455-0.397-2.909-0.609-4.36c-0.213-1.451-0.434-2.901-0.664-4.347
	c-0.116-0.723-0.233-1.446-0.353-2.169c-0.225-1.354-0.455-2.707-0.695-4.058c-0.381-2.14-0.785-4.274-1.206-6.403
	c-0.094-0.472-0.189-0.943-0.284-1.414c-0.31-1.537-0.631-3.07-0.964-4.601c-0.331-1.531-0.673-3.059-1.026-4.583l-0.31-1.326
	c-0.262-1.111-0.529-2.221-0.801-3.329c-0.818-3.324-1.685-6.631-2.604-9.923c-0.321-1.152-0.649-2.303-0.983-3.452
	c-0.413-1.419-0.839-2.834-1.271-4.247c-0.616-2.018-1.248-4.029-1.902-6.033c-0.37-1.135-0.748-2.269-1.13-3.401
	c-0.766-2.262-1.557-4.516-2.373-6.76c-0.407-1.122-0.821-2.242-1.241-3.359c-6.717-17.875-14.999-35.131-24.83-51.571
	c-0.615-1.027-1.235-2.051-1.862-3.073c-2.506-4.085-5.11-8.116-7.81-12.094c-0.675-0.994-1.356-1.985-2.042-2.973
	c-4.124-5.924-8.463-11.724-13.02-17.388c-0.759-0.944-1.525-1.884-2.296-2.82c-0.884-1.073-1.778-2.14-2.679-3.203
	c-1.356-1.603-2.731-3.194-4.123-4.772l-0.559-0.633c-0.723-0.816-1.45-1.63-2.184-2.44c-1.639-1.81-3.298-3.601-4.978-5.373
	s-3.379-3.524-5.097-5.257l-1.294-1.296c-0.864-0.862-1.733-1.718-2.607-2.57c-1.747-1.703-3.515-3.387-5.3-5.051
	c-0.892-0.832-1.791-1.658-2.692-2.481c-1.804-1.643-3.627-3.267-5.466-4.87c-0.92-0.802-1.845-1.598-2.774-2.389
	c-1.392-1.186-2.796-2.362-4.209-3.526c-1.413-1.163-2.836-2.315-4.268-3.456c-0.955-0.76-1.913-1.515-2.876-2.264
	c-0.963-0.75-1.93-1.494-2.901-2.233c-1.943-1.478-3.901-2.935-5.875-4.37c-1.481-1.077-2.971-2.141-4.469-3.193
	c-1.498-1.052-3.004-2.092-4.52-3.12c-2.02-1.371-4.056-2.719-6.105-4.045c-2.563-1.658-5.147-3.28-7.753-4.868
	c-1.043-0.635-2.088-1.265-3.138-1.888c-1.049-0.624-2.101-1.241-3.158-1.854c-0.528-0.306-1.057-0.611-1.586-0.914
	c-1.588-0.91-3.185-1.807-4.788-2.692c-1.604-0.884-3.215-1.755-4.832-2.614c-1.078-0.572-2.16-1.139-3.244-1.699
	c-1.355-0.701-2.716-1.392-4.081-2.074c-1.364-0.682-2.734-1.355-4.108-2.019c-1.099-0.531-2.201-1.056-3.305-1.575
	c-1.105-0.519-2.212-1.032-3.323-1.539c-1.11-0.507-2.223-1.009-3.339-1.504c-0.558-0.247-1.116-0.493-1.675-0.738
	c-1.119-0.488-2.24-0.972-3.363-1.449c-1.124-0.477-2.25-0.948-3.379-1.412c-0.564-0.233-1.129-0.464-1.695-0.693
	c-4.162-1.687-8.358-3.29-12.583-4.809c-0.74-0.266-1.481-0.53-2.224-0.791c-0.924-0.325-1.85-0.646-2.778-0.963
	c-0.864-0.295-1.728-0.587-2.594-0.875c-0.91-0.303-1.822-0.601-2.735-0.896c-1.375-0.445-2.753-0.88-4.134-1.306l-1.075-0.33
	c-0.815-0.249-1.632-0.495-2.45-0.738l-1.036-0.305c-1.421-0.417-2.845-0.824-4.273-1.221c-1.548-0.432-3.101-0.853-4.656-1.262
	c-0.767-0.202-1.535-0.401-2.303-0.597c-0.94-0.24-1.88-0.476-2.822-0.707c-0.898-0.221-1.798-0.439-2.699-0.652l-0.84-0.198
	c-2.674-0.627-5.358-1.219-8.047-1.779l-0.932-0.193c-2.654-0.544-5.314-1.054-7.98-1.532c-0.906-0.162-1.812-0.32-2.72-0.475
	c-4.089-0.696-8.192-1.314-12.307-1.851c-101.012-13.191-212.118,21.138-302.862-24.656l0.019,0.049
	c13.417,34.514,29.604,67.798,51.52,97.551C634.63,347.13,668.237,378.429,706.774,401.751z"/>
<path style="fill:#3B6F2E;" d="M1094.943,507.509c-16.103-9.358-32.993-16.778-50.387-22.82
	c-42.576-14.788-88.181-21.303-132.711-27.663c-20.056-2.864-40.38-5.767-60.547-9.442c-31.527-5.745-62.672-13.377-91.818-25.701
	c-73.544-31.096-134.265-94.263-162.431-168.975c-0.726-1.932-2.889-2.914-4.823-2.18c-1.934,0.728-2.909,2.887-2.183,4.821
	c22.221,58.938,64.205,110.867,116.732,146.201c15.734,10.584,32.413,19.679,49.792,27.027
	c48.682,20.585,102.333,28.246,154.221,35.657c62.012,8.855,126.134,18.014,180.394,49.544c15.869,9.221,34.943,24.424,35.703,44.48
	c0.073,2.017,1.735,3.6,3.732,3.6l0.146-0.002c2.065-0.078,3.673-1.815,3.596-3.881c-0.371-9.821-4.156-19.155-11.299-27.936
	C1116.504,522.179,1107.119,514.584,1094.943,507.509z"/>
<path style="fill:#3B6F2E;" d="M926.767,278.466c66.908,28.821,124.375,78.146,161.807,138.889c0.706,1.147,1.934,1.778,3.192,1.778
	c0.667,0,1.344-0.18,1.959-0.555c1.759-1.084,2.304-3.391,1.223-5.15c-38.237-62.039-96.911-112.411-165.218-141.836
	c-1.89-0.819-4.098,0.053-4.916,1.956C923.995,275.445,924.872,277.647,926.767,278.466z"/>
<path style="fill:#3B6F2E;" d="M758.3,584.77c-61.247-28.339-126.87-134.607-152.55-216.813c-0.619-1.976-2.724-3.082-4.687-2.456
	c-1.973,0.616-3.074,2.714-2.456,4.687c26.733,85.581,92.599,191.783,156.555,221.374c0.507,0.236,1.043,0.346,1.569,0.346
	c1.413,0,2.762-0.804,3.396-2.171C760.994,587.862,760.176,585.637,758.3,584.77z"/>
<path style="fill:#D43436;" d="M1731.955,1145.486l-0.013-0.301c-0.1-2.233-0.211-4.464-0.332-6.694
	c-0.432-7.904-0.999-15.794-1.704-23.662l-0.053-0.59c-0.269-2.974-0.558-5.946-0.867-8.914c-0.206-1.978-0.42-3.955-0.645-5.93
	c-0.111-0.987-0.225-1.974-0.341-2.961c-0.48-4.066-0.997-8.124-1.553-12.173c-0.253-1.845-0.513-3.688-0.782-5.529
	c-0.593-4.062-1.226-8.113-1.898-12.153c-0.301-1.81-0.608-3.617-0.924-5.422c-0.171-0.972-0.344-1.944-0.519-2.915
	c-2.277-12.623-4.944-25.124-8.013-37.461c-9.511-38.225-22.886-74.877-40.505-108.714c-0.569-1.091-1.141-2.18-1.718-3.265
	c-0.424-0.796-0.849-1.591-1.278-2.384c-1.189-2.203-2.394-4.394-3.62-6.571c-0.709-1.258-1.426-2.511-2.148-3.761
	c-4.176-7.24-8.562-14.334-13.16-21.269c-0.372-0.561-0.745-1.121-1.12-1.679c-1.9-2.834-3.836-5.642-5.809-8.421
	c-0.334-0.472-0.67-0.943-1.007-1.413c-2.04-2.849-4.12-5.667-6.236-8.455l-0.87-1.141c-0.949-1.241-1.907-2.476-2.873-3.703
	l-0.79-1.002c-1.636-2.067-3.294-4.117-4.975-6.148l-0.656-0.791c-1.087-1.306-2.183-2.605-3.288-3.896
	c-0.752-0.879-1.508-1.755-2.269-2.627c-1.928-2.209-3.885-4.393-5.869-6.556c-0.781-0.851-1.566-1.698-2.355-2.542
	c-2.711-2.898-5.473-5.752-8.287-8.561l-0.014-0.014c-37.173-37.101-83.294-66.299-139.385-84.26
	c-87.922-28.154-187.868-19.715-276.505,14.043c-1.055,0.402-2.108,0.807-3.161,1.216c-10.519,4.09-20.875,8.538-31.026,13.323
	c-1.015,0.478-2.029,0.96-3.04,1.446c-2.022,0.97-4.035,1.954-6.041,2.951c-10.026,4.987-19.836,10.305-29.392,15.936
	c-1.911,1.126-3.812,2.266-5.703,3.417c-8.167,4.974-16.138,10.181-23.888,15.605c-2.669,33.117-2.974,66.48-0.749,99.708
	c18.931,2.582,38.872-2.568,54.083-14.13c2.202-1.664,5.325-1.24,6.992,0.955c1.666,2.193,1.242,5.323-0.95,6.992
	c-14.367,10.919-32.448,16.811-50.49,16.811c-5.223,0-10.441-0.494-15.566-1.503c-22.826-4.49-43.513-19.14-55.327-39.186
	c-1.398-2.373-0.609-5.432,1.764-6.831c2.368-1.403,5.427-0.614,6.83,1.764c9.051,15.355,24.021,27.109,40.999,32.497
	c-1.819-29.409-1.691-58.916,0.273-88.264h0c-4.149,3.124-8.228,6.311-12.229,9.561c-9.636-7.83-19.617-15.231-29.897-22.192
	c-3.214-2.175-6.454-4.308-9.725-6.397c-1.307-0.836-2.62-1.664-3.936-2.486c-1.318-0.822-2.638-1.636-3.964-2.444
	c-0.663-0.404-1.327-0.806-1.992-1.206c-1.329-0.801-2.664-1.595-4.002-2.381c-0.669-0.394-1.339-0.785-2.01-1.175
	c-2.014-1.17-4.036-2.323-6.068-3.461c-1.355-0.759-2.714-1.511-4.076-2.255c-1.362-0.744-2.729-1.482-4.099-2.212
	c-3.425-1.826-6.874-3.607-10.346-5.344c-2.083-1.042-4.174-2.068-6.273-3.078c-0.699-0.336-1.4-0.671-2.101-1.004
	c-2.105-0.999-4.217-1.982-6.336-2.948c-2.119-0.966-4.245-1.916-6.379-2.85c-2.845-1.245-5.702-2.461-8.572-3.647
	c-1.435-0.594-2.872-1.18-4.313-1.758c-7.924-3.182-15.935-6.143-24.02-8.877c-0.735-0.249-1.471-0.496-2.207-0.74
	c-21.35-7.101-43.2-12.629-65.283-16.516c-0.761-0.134-1.524-0.266-2.285-0.396c-26.665-4.553-53.658-6.712-80.511-6.357
	l-0.061,0.001c-1.507,0.021-3.012,0.048-4.518,0.084l-0.111,0.003c-1.488,0.036-2.976,0.08-4.465,0.131
	c-8.53,0.295-17.041,0.847-25.517,1.658c-2.127,0.204-4.252,0.424-6.374,0.66c-3.516,0.392-7.024,0.828-10.526,1.31
	c-1.75,0.241-3.499,0.493-5.246,0.756c-1.747,0.264-3.491,0.539-5.233,0.825c-1.288,0.212-2.576,0.43-3.862,0.654
	c-1.381,0.241-2.76,0.49-4.137,0.746c-1.884,0.349-3.768,0.711-5.647,1.087c-1.344,0.269-2.688,0.544-4.03,0.828
	c-2.984,0.63-5.962,1.294-8.93,1.993c-3.076,0.724-6.141,1.486-9.198,2.285c-3.057,0.8-6.103,1.636-9.138,2.51
	c-1.036,0.298-2.072,0.601-3.105,0.908c-2.408,0.715-4.81,1.453-7.203,2.216c-1.634,0.521-3.265,1.053-4.892,1.596
	c-1.347,0.45-2.69,0.909-4.031,1.373c-0.492,0.17-0.983,0.341-1.474,0.514c-1.918,0.674-3.832,1.364-5.74,2.069
	c-1.102,0.407-2.202,0.818-3.3,1.236c-1.426,0.542-2.849,1.094-4.269,1.655c-2.84,1.121-5.667,2.278-8.481,3.471
	c-2.902,1.23-5.789,2.498-8.661,3.805c-4.787,2.178-9.532,4.462-14.232,6.854c-0.683,0.348-1.365,0.698-2.047,1.05
	c-1.363,0.705-2.722,1.419-4.078,2.142c-2.711,1.446-5.405,2.929-8.084,4.449c-0.67,0.38-1.338,0.762-2.005,1.147
	c-1.335,0.769-2.666,1.547-3.993,2.335c-1.989,1.181-3.969,2.383-5.939,3.606c-1.97,1.222-3.93,2.466-5.881,3.73
	c-0.649,0.422-1.299,0.845-1.946,1.271c-1.943,1.278-3.876,2.578-5.798,3.898c-0.641,0.44-1.28,0.883-1.919,1.327
	c-1.276,0.89-2.548,1.788-3.816,2.696c-0.633,0.454-1.265,0.91-1.896,1.37c-1.262,0.917-2.519,1.844-3.771,2.781
	c-0.863,0.645-1.722,1.296-2.58,1.95l-0.191,0.146l-0.971,0.742c-0.476,0.365-0.949,0.733-1.422,1.101l-0.074,0.057l-0.028,0.022
	c-0.731,0.568-1.46,1.138-2.187,1.714l-0.314,0.25l-0.102,0.081c-0.752,0.596-1.502,1.196-2.25,1.8l-0.396,0.32l-0.618,0.498
	c-1.222,0.993-2.438,1.996-3.649,3.007l-0.398,0.335l-0.545,0.459c-0.596,0.502-1.19,1.005-1.784,1.511l-0.563,0.48
	c-0.735,0.63-1.468,1.262-2.199,1.898l-0.437,0.384c-0.597,0.521-1.192,1.045-1.786,1.571l-0.688,0.611
	c-0.582,0.519-1.162,1.04-1.743,1.564l-0.471,0.425c-0.703,0.637-1.404,1.278-2.104,1.922l-0.677,0.628
	c-0.514,0.476-1.027,0.954-1.539,1.433l-0.721,0.677c-0.625,0.589-1.247,1.18-1.868,1.775l-0.232,0.22l-0.873,0.842l-0.753,0.726
	c-0.471,0.458-0.941,0.917-1.41,1.377l-0.146,0.143c-15.64,15.367-29.673,31.95-42.173,49.363
	c10.861-11.972,22.597-23.316,35.125-33.732c50.038-41.606,109.915-68.567,173.46-81.741c56.383-11.69,116.596-17.578,174.316-9.566
	c12.895,1.79,25.667,4.27,38.242,7.538c33.265,8.645,63.517,23.726,89.821,45.918c1.471,1.242,2.927,2.499,4.372,3.768
	c5.264,23.206,11.921,46.242,25.175,66.127c17.549,26.327,46.39,45.32,77.82,51.248c31.429,5.928,65.001-1.295,90.582-19.487
	c8.494-6.042,10.195-22.162,3.208-30.061c-0.831-0.94-1.722-1.812-2.663-2.623c8.977-7.092,17.804-14.32,26.852-20.728
	c58.489-41.428,137.48-50.78,206.137-33.164c59.822,15.35,111.505,54.841,146.531,105.167
	c33.385,47.967,51.707,104.934,60.185,162.351c9.147,61.942,6.272,125.659-3.137,187.402
	c-10.702,70.227-31.497,139.155-61.296,203.639c-29.257,63.309-67.917,120.39-115.558,171.243
	c-45.468,48.532-95.974,97.161-158.052,123.479c-27.636,11.716-59.221,18.768-89.238,13.973
	c-23.502-3.754-44.199-16.341-61.921-31.741c-17.804-15.471-32.873-33.711-49.694-50.186
	c-14.512-14.212-30.995-27.904-51.463-31.892c-24.184-4.712-49.205,5.777-69.163,18.694c-23.763,15.38-43.43,36.136-63.495,55.87
	c-20.11,19.779-41.041,39.573-65.817,53.435c-24.752,13.849-53.223,21.13-81.631,19.907c-5.901-0.254-11.689-0.928-17.407-1.838
	c21.701,16.731,44.261,32.117,67.46,45.346l0.175,0.1c1.259,0.717,2.519,1.428,3.782,2.132l0.103,0.057
	c0.599,0.334,1.199,0.666,1.799,0.997l0.49,0.27c1.227,0.676,2.456,1.345,3.688,2.008l0.012,0.007
	c0.56,0.301,1.12,0.601,1.681,0.901l0.795,0.423c0.973,0.516,1.948,1.028,2.924,1.537l0.663,0.346
	c0.495,0.258,0.991,0.512,1.487,0.768l1.095,0.561c0.466,0.239,0.932,0.477,1.399,0.713c0.69,0.349,1.38,0.696,2.07,1.041
	c0.466,0.233,0.933,0.464,1.399,0.695l1.216,0.6l1.286,0.631c0.743,0.362,1.486,0.721,2.23,1.078l1.135,0.541
	c0.498,0.237,0.997,0.473,1.496,0.709l1.129,0.531c0.784,0.367,1.568,0.73,2.354,1.092l0.954,0.435
	c0.559,0.255,1.119,0.51,1.678,0.762l1.036,0.466c0.813,0.364,1.627,0.725,2.442,1.083l0.747,0.326
	c0.648,0.283,1.297,0.565,1.946,0.844l0.922,0.396c0.841,0.359,1.683,0.716,2.526,1.07l0.503,0.209
	c0.743,0.31,1.488,0.618,2.232,0.922l0.77,0.315c0.879,0.358,1.759,0.714,2.64,1.064l0.279,0.11c0.823,0.327,1.647,0.649,2.471,0.97
	l0.694,0.269c0.906,0.35,1.813,0.698,2.72,1.039l0.04,0.015c2.677,1.009,5.36,1.982,8.048,2.92c0.896,0.313,1.793,0.621,2.69,0.926
	l0.237,0.08c0.666,0.225,1.333,0.448,1.999,0.669l0.242,0.079c2.104,0.696,4.213,1.37,6.324,2.021l0.083,0.026
	c0.624,0.192,1.248,0.381,1.872,0.569l0.493,0.149c0.602,0.18,1.203,0.358,1.805,0.534l0.532,0.155
	c0.613,0.179,1.225,0.356,1.838,0.53l0.183,0.051c1.976,0.56,3.954,1.1,5.936,1.619l0.729,0.191
	c0.543,0.141,1.086,0.279,1.629,0.417l0.758,0.191c0.549,0.138,1.098,0.274,1.646,0.409l0.654,0.158
	c1.819,0.441,3.642,0.864,5.465,1.268l0.849,0.188c0.507,0.111,1.014,0.219,1.522,0.328l0.915,0.194
	c0.502,0.105,1.005,0.209,1.509,0.312l0.961,0.193c0.481,0.096,0.963,0.193,1.444,0.287l1.107,0.211
	c0.808,0.154,1.616,0.304,2.424,0.451l1.181,0.213l1.326,0.229l1.135,0.193l1.336,0.22l1.212,0.193l1.239,0.193
	c0.451,0.069,0.901,0.135,1.352,0.201c0.516,0.077,1.033,0.152,1.55,0.225c0.634,0.09,1.267,0.178,1.901,0.263l1.168,0.152
	l1.344,0.172l1.173,0.142c0.457,0.054,0.915,0.108,1.372,0.16l1.161,0.13c0.489,0.054,0.978,0.105,1.468,0.156l1.009,0.104
	c0.798,0.08,1.595,0.156,2.394,0.228l0.95,0.081c0.517,0.044,1.033,0.089,1.55,0.13l1.125,0.086c0.474,0.036,0.947,0.07,1.421,0.104
	l1.114,0.075c0.492,0.032,0.985,0.062,1.478,0.091l1.048,0.061c0.615,0.034,1.229,0.064,1.844,0.093l0.957,0.044
	c0.715,0.031,1.431,0.06,2.146,0.084l0.957,0.029c0.524,0.016,1.049,0.031,1.573,0.044l1.039,0.023
	c0.528,0.01,1.055,0.019,1.583,0.026l0.948,0.011c0.608,0.005,1.217,0.008,1.826,0.009l0.723,0.002
	c0.828-0.001,1.656-0.007,2.484-0.017l0.713-0.011c0.615-0.01,1.23-0.02,1.844-0.034l0.917-0.023
	c0.544-0.015,1.089-0.03,1.633-0.049l0.983-0.034c0.57-0.021,1.14-0.046,1.71-0.072l0.833-0.037
	c0.833-0.041,1.666-0.085,2.499-0.135l0.41-0.026c0.72-0.044,1.44-0.091,2.161-0.142l0.829-0.062
	c0.569-0.043,1.138-0.087,1.707-0.133l0.959-0.081c0.563-0.048,1.124-0.099,1.687-0.152l0.875-0.082
	c0.688-0.068,1.376-0.138,2.064-0.212l0.492-0.051c0.843-0.092,1.685-0.189,2.526-0.29l0.725-0.09
	c0.616-0.076,1.232-0.154,1.848-0.235l0.862-0.116c0.584-0.079,1.167-0.161,1.75-0.245l0.861-0.125
	c0.65-0.096,1.299-0.195,1.949-0.297l0.607-0.094c0.849-0.135,1.698-0.275,2.547-0.42l0.559-0.098
	c0.674-0.117,1.347-0.236,2.022-0.359l0.831-0.155c0.58-0.109,1.161-0.219,1.741-0.332l0.903-0.178
	c0.579-0.115,1.156-0.233,1.735-0.353l0.864-0.179c0.842-0.178,1.683-0.359,2.525-0.547c1.635-0.365,3.273-0.748,4.914-1.148
	c2.187-0.532,4.379-1.094,6.574-1.681c1.097-0.293,2.196-0.593,3.295-0.898c2.198-0.61,4.4-1.244,6.606-1.896
	c2.755-0.816,5.516-1.66,8.281-2.526c1.657-0.52,3.318-1.047,4.978-1.58c1.48-0.475,2.961-0.955,4.442-1.439
	c0.735-0.24,1.47-0.48,2.205-0.721c0.971-0.319,1.942-0.639,2.914-0.96l0.963-0.319c1.48-0.49,2.961-0.981,4.441-1.473
	c1.109-0.369,2.219-0.738,3.329-1.107c1.11,0.369,2.219,0.738,3.329,1.107c1.664,0.553,3.328,1.106,4.991,1.655
	c1.109,0.367,2.218,0.732,3.327,1.097c0.554,0.182,1.108,0.364,1.662,0.545c1.661,0.543,3.324,1.082,4.985,1.615
	c1.66,0.533,3.32,1.06,4.978,1.58c2.763,0.866,5.524,1.711,8.28,2.526c1.103,0.326,2.205,0.648,3.306,0.964
	c1.101,0.317,2.201,0.627,3.3,0.932c1.1,0.305,2.198,0.605,3.295,0.898c1.098,0.293,2.194,0.581,3.29,0.861
	c2.738,0.701,5.471,1.359,8.197,1.967c118.22,26.377,236.087-46.646,330.553-133.746c6.821-6.289,13.588-12.675,20.293-19.157
	c2.235-2.161,4.464-4.333,6.685-6.515c2.221-2.182,4.435-4.376,6.642-6.58c3.677-3.673,7.335-7.377,10.971-11.112
	c0.727-0.746,1.453-1.495,2.179-2.244c2.901-2.998,5.788-6.013,8.66-9.049c0.718-0.759,1.435-1.519,2.152-2.281
	c7.163-7.613,14.231-15.348,21.196-23.205c0.697-0.786,1.392-1.573,2.086-2.361c4.861-5.517,9.67-11.094,14.424-16.731
	c1.359-1.61,2.713-3.226,4.062-4.846c1.349-1.62,2.694-3.246,4.034-4.876c1.34-1.63,2.676-3.265,4.006-4.905
	c1.331-1.64,2.657-3.285,3.978-4.935c0.66-0.825,1.32-1.651,1.978-2.479c1.974-2.483,3.937-4.975,5.89-7.48
	c5.205-6.679,10.33-13.438,15.37-20.275c1.89-2.564,3.767-5.14,5.633-7.727c3.731-5.174,7.414-10.392,11.044-15.656
	c1.211-1.754,2.416-3.514,3.614-5.278c8.391-12.351,16.498-24.949,24.293-37.794c1.113-1.835,2.221-3.675,3.321-5.52
	c1.652-2.768,3.287-5.547,4.909-8.338c1.082-1.861,2.156-3.726,3.224-5.597c2.135-3.741,4.244-7.502,6.326-11.284
	c1.562-2.836,3.107-5.684,4.637-8.544c0.51-0.953,1.018-1.907,1.525-2.863c2.026-3.823,4.024-7.666,5.993-11.529
	c0.492-0.966,0.982-1.933,1.471-2.902c0.977-1.937,1.948-3.879,2.911-5.826c2.558-5.172,5.064-10.381,7.518-15.625
	c0.981-2.098,1.954-4.202,2.917-6.311c0.482-1.055,0.962-2.111,1.44-3.169c0.955-2.115,1.903-4.237,2.841-6.364
	s1.867-4.26,2.788-6.398c1.84-4.278,3.647-8.578,5.416-12.903c5.214-12.743,10.064-25.923,14.527-39.47
	c1.574-4.778,3.098-9.602,4.576-14.468c0.537-1.771,1.068-3.547,1.591-5.328c0.854-2.9,1.69-5.815,2.509-8.743
	c0.473-1.694,0.941-3.391,1.402-5.094c0.154-0.567,0.307-1.135,0.46-1.703c0.5-1.862,0.992-3.73,1.478-5.602
	c0.447-1.724,0.888-3.452,1.323-5.185c3.461-13.785,6.54-27.84,9.215-42.1c0.303-1.613,0.6-3.228,0.892-4.846
	c0.379-2.099,0.75-4.202,1.111-6.309l0.185-1.086c3.555-20.902,6.248-42.2,8.016-63.7c0.734-8.929,1.31-17.892,1.721-26.876
	c0.13-2.852,0.245-5.706,0.342-8.562c0.097-2.856,0.179-5.713,0.244-8.572C1732.83,1177.443,1732.665,1161.444,1731.955,1145.486z"
	/>
<path style="fill:#3B6F2E;" d="M1074.909,898.621c-16.978-5.388-31.948-17.142-40.999-32.497c-1.403-2.377-4.463-3.167-6.83-1.764
	c-2.373,1.398-3.162,4.458-1.764,6.831c11.815,20.046,32.502,34.697,55.327,39.186c5.126,1.008,10.343,1.503,15.566,1.503
	c18.041,0,36.122-5.893,50.49-16.811c2.193-1.669,2.617-4.799,0.95-6.992c-1.666-2.195-4.789-2.619-6.992-0.955
	c-15.211,11.562-35.151,16.713-54.083,14.13c-2.226-33.228-1.92-66.591,0.749-99.708v0
	c15.334-190.271,108.685-372.377,248.398-473.497c2.568-1.859,3.143-5.444,1.286-8.012c-1.856-2.565-5.457-3.145-8.009-1.284
	c-76.797,55.581-139.845,135.119-184.083,226.977c-2.861,5.94-5.643,11.931-8.345,17.971
	c-34.26,76.582-55.653,160.939-61.389,246.659C1073.218,839.704,1073.09,869.211,1074.909,898.621z"/>
</svg>
