<svg width="260" height="315" viewBox="0 0 260 315" fill="none" xmlns="http://www.w3.org/2000/svg">
<path d="M154.141 285.472L154.633 269.068H115.59L115.098 285.472H153.977H154.141Z" fill="#4C4EAA"/>
<path d="M172.844 305.158L153.979 285.472H115.1L114.279 305.158H172.844Z" fill="white"/>
<path d="M172.514 315.001L172.842 305.158H114.277L113.785 315.001H172.514Z" fill="#EEA160"/>
<path d="M156.109 238.883C156.109 233.633 154.031 229.149 149.875 225.431C145.829 221.713 140.853 219.854 134.947 219.854C129.151 219.854 124.175 221.713 120.019 225.431C115.863 229.149 113.785 233.633 113.785 238.883L115.59 269.067H154.633L156.109 238.883Z" fill="#676AC6"/>
<path d="M66.8671 285.472L66.3749 269.068H105.418L105.91 285.472H67.0311H66.8671Z" fill="#4C4EAA"/>
<path d="M48.1659 305.158L67.0312 285.472H105.91L106.73 305.158H48.1659Z" fill="white"/>
<path d="M48.496 315.001L48.1679 305.158H106.732L107.225 315.001H48.496Z" fill="#EEA160"/>
<path d="M64.9006 238.883C64.9006 233.634 66.9785 229.15 71.1344 225.431C75.1809 221.713 80.1569 219.854 86.0626 219.854C91.8589 219.854 96.835 221.713 100.991 225.431C105.147 229.15 107.225 233.634 107.225 238.883L105.42 269.068H66.377L64.9006 238.883Z" fill="#676AC6"/>
<path d="M178.856 227.383C172.275 222.789 166.103 217.512 160.341 211.552C166.363 200.485 175.814 191.412 188.693 184.334C191.064 186.894 193.545 189.257 196.135 191.423C202.018 196.509 208.755 200.522 216.345 203.462C221.274 205.348 224.838 208.738 227.038 213.629C229.103 218.598 229.231 223.614 227.421 228.677C225.429 233.578 221.934 237.114 216.936 239.284C212.15 241.512 207.187 241.654 202.047 239.71C196.118 237.329 190.567 234.596 185.393 231.512C183.133 230.227 180.954 228.85 178.856 227.383Z" fill="#BF7958"/>
<path d="M140.758 171.829C142.25 166.681 145.341 162.753 150.028 160.047C154.794 157.474 159.683 156.973 164.697 158.543C169.873 159.93 173.776 162.9 176.405 167.454C179.906 173.827 184.003 179.453 188.696 184.334C175.817 191.413 166.366 200.485 160.343 211.552C153.596 204.197 147.622 195.859 142.42 186.54C140.03 181.937 139.476 177.033 140.758 171.829Z" fill="#E7F3FC"/>
<path d="M161.116 220.08L151.448 210.527L186.171 176.014L195.722 185.367L161.116 220.08Z" fill="#BFD4E5"/>
<path d="M9.12344 211.486C11.8575 203.94 15.3572 196.612 19.6224 189.504C31.8712 192.456 43.0811 199.237 53.252 209.845C51.3928 212.798 49.7523 215.806 48.3306 218.868C44.9403 225.867 42.8077 233.413 41.9327 241.506C41.3859 246.756 39.0346 251.076 34.8787 254.466C30.6135 257.747 25.8015 259.169 20.4427 258.731C15.1932 258.075 10.8733 255.614 7.48298 251.349C4.09268 247.303 2.67094 242.545 3.21777 237.077C3.98332 230.734 5.18632 224.664 6.82679 218.868C7.48297 216.353 8.24853 213.892 9.12344 211.486Z" fill="#BF7958"/>
<path d="M52.9231 160.304C58.2819 160.413 62.8752 162.382 66.703 166.209C70.4214 170.147 72.1712 174.74 71.9525 179.989C71.9525 185.348 70.0933 189.887 66.3749 193.605C61.1254 198.636 56.7508 204.049 53.2512 209.846C43.0803 199.237 31.8704 192.457 19.6216 189.504C24.9805 181.083 31.4877 173.154 39.1432 165.717C42.9709 162.218 47.5642 160.413 52.9231 160.304Z" fill="#E7F3FC"/>
<path d="M11.5849 192.458L18.3108 180.646L60.6348 205.253L54.0729 216.901L11.5849 192.458Z" fill="#BFD4E5"/>
<path d="M158.404 239.21V222.97H59.8125V239.21H158.404Z" fill="#BFD4E5"/>
<path d="M153.483 256.271C156.545 252.115 158.186 246.428 158.404 239.21H59.8125C60.0312 246.428 61.6717 252.115 64.7339 256.271H153.483Z" fill="#676AC6"/>
<path d="M168.904 178.185C171.201 166.374 168.358 160.687 160.374 161.124H57.6809C49.6973 160.687 46.8538 166.374 49.1505 178.185L59.8135 222.97H158.405L168.904 178.185Z" fill="#E7F3FC"/>
<path d="M135.441 136.681C128.551 131.104 120.294 128.315 110.67 128.315C101.046 128.315 92.7894 131.104 85.8994 136.681C79.1188 142.587 75.7285 149.641 75.7285 157.843C75.7285 158.39 75.7832 158.937 75.8926 159.484C76.2207 166.921 79.5563 173.264 85.8994 178.513C92.7894 184.419 101.046 187.372 110.67 187.372C120.294 187.372 128.551 184.419 135.441 178.513C141.785 173.264 145.12 166.921 145.448 159.484C145.558 158.937 145.612 158.39 145.612 157.843C145.612 149.641 142.222 142.587 135.441 136.681Z" fill="#A8603F"/>
<path d="M100.165 223.626L53.9043 227.727C54.7792 233.086 55.7088 238.773 56.6931 244.788L97.5407 239.867C98.6343 234.836 99.5092 229.423 100.165 223.626Z" fill="#D78B49"/>
<path d="M100.167 223.626C100.932 215.97 101.206 207.713 100.987 198.855C86.2229 189.559 74.5209 175.451 65.8812 156.531L50.9529 153.742C46.469 161.835 47.4533 186.497 53.9058 227.727L100.167 223.626Z" fill="#EEA160"/>
<path d="M165.785 227.727L119.523 223.626C120.18 229.423 121.055 234.836 122.148 239.867L162.996 244.788C163.98 238.773 164.91 233.086 165.785 227.727Z" fill="#D78B49"/>
<path d="M118.706 198.855C118.487 207.713 118.76 215.97 119.526 223.626L165.787 227.727C172.24 186.497 173.224 161.835 168.74 153.742L153.812 156.531C145.172 175.451 133.47 189.559 118.706 198.855Z" fill="#EEA160"/>
<path d="M67.6888 157.843L60.9629 169.655L103.943 194.59L110.669 182.614L67.6888 157.843ZM153.649 157.843L110.669 182.614L117.395 194.59L160.375 169.655L153.649 157.843Z" fill="#BFD4E5"/>
<path d="M117.393 194.589L110.667 182.614L103.941 194.589H117.393Z" fill="#E7F3FC"/>
<path d="M238.953 189.504L235.836 189.34C222.275 190.434 211.777 194.59 204.34 201.808C218.448 182.778 230.04 178.622 239.117 189.34L238.953 189.504Z" fill="#A8603F"/>
<path d="M208.604 242.654C205.651 242.545 204.175 240.904 204.175 237.733L204.338 201.807C211.775 194.589 222.273 190.433 235.834 189.339L238.951 189.503L239.115 189.339C242.724 189.23 246.552 189.23 250.598 189.339L251.911 189.339C254.973 189.339 256.941 191.69 257.816 196.393C259.348 203.282 260.058 210.008 259.949 216.57C259.84 235.162 243.709 243.856 211.557 242.654L208.604 242.654Z" fill="#BF7958"/>
<path d="M54.2409 274.154L54.405 271.037C53.3113 257.476 49.1555 246.977 41.9374 239.54C60.9668 253.648 65.1227 265.241 54.405 274.318L54.2409 274.154Z" fill="#A8603F"/>
<path d="M1.09114 243.805C1.20051 240.852 2.84097 239.376 6.01254 239.376L41.9387 239.54C49.1568 246.977 53.3126 257.476 54.4063 271.037L54.2422 274.154L54.4063 274.318C54.5156 277.927 54.5156 281.755 54.4063 285.801V287.114C54.4063 290.176 52.0549 292.144 47.3523 293.019C40.4623 294.55 33.7364 295.261 27.1745 295.152C8.5826 295.042 -0.111866 278.911 1.09114 246.758V243.805Z" fill="#BF7958"/>
<path d="M158.552 133.237C145.693 124.707 130.114 120.441 111.816 120.441C93.5167 120.441 77.7732 124.707 64.5848 133.237C51.7262 141.986 45.2969 152.43 45.2969 164.57C45.2969 176.709 51.7262 187.044 64.5848 195.575C77.7732 204.324 93.5167 208.698 111.816 208.698C130.114 208.698 145.693 204.324 158.552 195.575C171.74 187.044 178.334 176.709 178.334 164.57C178.334 152.43 171.74 141.986 158.552 133.237Z" fill="url(#paint0_radial_11_3)"/>
<path d="M148.434 20.6194L137.719 6.52831C105.687 6.65921 75.9596 10.1106 48.5378 16.8826C33.133 20.3541 26.663 28.3525 29.1277 40.8778L30.2423 46.382C31.6718 38.4722 38.2041 33.2121 49.8394 30.6017C77.2703 23.9387 107.002 20.5417 139.034 20.4108L148.434 20.6194ZM183.958 32.1605L184.11 28.0328C184.615 15.5906 178.061 8.67166 164.447 7.27598L150.587 20.7702L165.749 20.995C175.267 21.962 181.336 25.6838 183.958 32.1605Z" fill="#454A51"/>
<path d="M165.749 20.9954L150.586 20.7706L149.36 21.8599L148.434 20.6198L139.034 20.4112C107.001 20.5421 77.2698 23.9391 49.8389 30.6021C38.2036 33.2125 31.6712 38.4726 30.2418 46.3824L42.8558 109.204C44.8405 118.587 51.4458 122.813 62.6717 121.883L164.358 113.455C175.693 112.515 181.513 107.259 181.817 97.6871L183.958 32.1609C181.336 25.6842 175.266 21.9624 165.749 20.9954Z" fill="#3C3E41"/>
<path d="M32.9258 108.546C28.2278 114.093 26.1815 120.517 26.7867 127.82C27.3919 135.122 30.468 141.122 36.0151 145.82C41.6892 150.727 48.0683 152.887 55.1526 152.3C62.3459 151.703 68.3369 148.518 73.1258 142.744C77.7147 137.206 79.7066 130.786 79.1014 123.484C78.4962 116.182 75.4745 110.177 70.0365 105.47C64.3624 100.563 57.9287 98.4078 50.7355 99.0039C43.6512 99.5911 37.7146 102.772 32.9258 108.546ZM42.9256 137.84C39.621 135.041 37.7835 131.407 37.4131 126.939C37.0608 122.688 38.275 118.802 41.0557 115.279C43.8545 111.975 47.3792 110.146 51.6297 109.794C56.0983 109.423 59.9848 110.638 63.2895 113.436C66.6121 116.453 68.4496 120.087 68.8019 124.337C69.1723 128.806 67.9581 132.693 65.1593 135.997C62.3696 139.411 58.7404 141.303 54.2719 141.673C50.0213 142.025 46.2392 140.748 42.9256 137.84ZM153.903 98.5191C149.205 104.066 147.159 110.491 147.764 117.793C148.37 125.095 151.446 131.095 156.993 135.793C162.667 140.7 169.046 142.86 176.13 142.273C183.324 141.677 189.315 138.492 194.103 132.717C198.692 127.179 200.684 120.759 200.079 113.457C199.474 106.155 196.452 100.15 191.014 95.4433C185.34 90.5364 178.906 88.3811 171.713 88.9773C164.629 89.5644 158.692 92.745 153.903 98.5191ZM162.033 105.253C164.832 101.948 168.357 100.119 172.607 99.7672C176.967 99.4058 180.854 100.62 184.267 103.41C187.59 106.427 189.427 110.06 189.78 114.311C190.15 118.779 188.936 122.666 186.137 125.97C183.238 129.393 179.609 131.285 175.25 131.646C170.999 131.999 167.217 130.721 163.903 127.813C160.49 125.023 158.598 121.394 158.227 116.926C157.875 112.675 159.144 108.784 162.033 105.253Z" fill="#BF7958"/>
<path d="M37.4139 126.938C37.7843 131.407 39.6218 135.041 42.9264 137.839C46.24 140.747 50.0221 142.025 54.2727 141.673C58.7412 141.302 62.3704 139.41 65.1601 135.997C67.9589 132.692 69.1731 128.805 68.8027 124.337C68.4504 120.086 66.6129 116.453 63.2903 113.436C59.9856 110.637 56.0991 109.423 51.6305 109.793C47.38 110.146 43.8553 111.974 41.0565 115.279C38.2758 118.801 37.0616 122.688 37.4139 126.938ZM172.608 99.7667C168.358 100.119 164.833 101.947 162.034 105.252C159.144 108.784 157.876 112.675 158.228 116.925C158.598 121.394 160.49 125.023 163.904 127.813C167.218 130.72 171 131.998 175.25 131.646C179.61 131.285 183.239 129.393 186.138 125.97C188.937 122.665 190.151 118.779 189.78 114.31C189.428 110.06 187.591 106.426 184.268 103.409C180.854 100.62 176.968 99.4054 172.608 99.7667Z" fill="#A8603F"/>
<path d="M156.992 161.636C168.636 159.135 174.761 152.263 175.365 141.019L176.984 55.2899L40.1484 66.6309L59.2289 169.739L156.992 161.636Z" fill="#BF7958"/>
<path d="M72.0227 115.51C72.3388 119.325 73.8087 122.495 76.4323 125.021C79.2919 127.747 82.6835 128.947 86.6071 128.622C90.3127 128.315 93.297 126.586 95.5598 123.436C97.8408 120.503 98.8231 117.13 98.507 113.315C98.1908 109.501 96.6665 106.335 93.9339 103.818C91.1923 101.192 87.9687 100.032 84.2631 100.34C80.3395 100.665 77.1872 102.353 74.8063 105.403C72.6344 108.327 71.7065 111.696 72.0227 115.51ZM80.2375 115.323L80.1698 114.506C80.089 112.208 80.6894 110.183 81.9707 108.431C83.352 106.56 85.1326 105.535 87.3124 105.354C89.6011 105.165 91.5807 105.878 93.2511 107.496C94.8034 109.013 95.7289 110.912 96.0276 113.191L96.0954 114.009C96.1671 116.198 95.5622 118.168 94.2808 119.921C92.8995 121.791 91.0645 122.821 88.7757 123.01C86.5959 123.191 84.6709 122.473 83.0005 120.855C81.4481 119.338 80.5271 117.494 80.2375 115.323ZM131.853 120.428C134.822 123.145 138.213 124.345 142.028 124.029C145.843 123.713 148.772 121.989 150.817 118.856C153.316 115.906 154.407 112.523 154.091 108.708C153.775 104.894 152.142 101.737 149.191 99.2381C146.668 96.5941 143.499 95.4302 139.684 95.7463C135.869 96.0625 132.717 97.7503 130.227 100.81C128.055 103.733 127.127 107.102 127.444 110.917C127.76 114.732 129.23 117.902 131.853 120.428ZM142.133 103.444C143.794 104.953 144.774 106.847 145.073 109.127L145.14 109.944C145.212 112.133 144.553 114.108 143.162 115.869C141.89 117.73 140.164 118.751 137.984 118.932C135.804 119.113 133.77 118.403 131.882 116.804C130.439 115.278 129.572 113.429 129.282 111.258L129.188 110.114C129.125 108.034 129.68 106.123 130.852 104.379C132.452 102.491 134.341 101.457 136.521 101.276C138.701 101.095 140.571 101.818 142.133 103.444Z" fill="white"/>
<path d="M80.1675 114.507L80.2352 115.324C80.5249 117.495 81.4459 119.339 82.9982 120.856C84.6686 122.474 86.5937 123.192 88.7734 123.011C91.0622 122.821 92.8972 121.792 94.2786 119.921C95.5599 118.169 96.1648 116.198 96.0931 114.01L96.0253 113.192C95.7267 110.912 94.8011 109.014 93.2488 107.496C91.5784 105.879 89.5989 105.165 87.3101 105.355C85.1303 105.536 83.3498 106.561 81.9684 108.431C80.6871 110.184 80.0868 112.209 80.1675 114.507ZM145.07 109.127C144.772 106.848 143.792 104.954 142.13 103.445C140.569 101.819 138.698 101.096 136.519 101.277C134.339 101.457 132.449 102.492 130.85 104.38C129.678 106.123 129.123 108.035 129.185 110.115L129.28 111.259C129.57 113.43 130.436 115.278 131.88 116.805C133.768 118.404 135.802 119.113 137.982 118.933C140.162 118.752 141.888 117.731 143.16 115.87C144.55 114.109 145.21 112.134 145.138 109.945L145.07 109.127Z" fill="#3C3E41"/>
<path d="M102.389 102.623L102.27 93.25L66.8225 94.5419L67.1044 103.901L102.389 102.623ZM122.215 91.597L123.642 100.861L158.655 96.3133L157.392 87.0354L122.215 91.597Z" fill="#3C3E41"/>
<path d="M113.386 128.049C105.648 128.69 99.2396 130.813 94.1611 134.416C89.3824 137.665 86.8288 141.279 86.5 145.256C86.3272 145.82 86.3769 146.419 86.6491 147.055C86.9122 147.582 87.2798 148.045 87.7519 148.445C88.224 148.845 88.7915 149.072 89.4545 149.127C98.945 149.767 107.683 147.945 115.668 143.662C124.14 146.581 133.058 146.939 142.423 144.737C143.068 144.574 143.59 144.256 143.99 143.784C144.39 143.312 144.676 142.794 144.849 142.231C145.013 141.559 145.018 140.955 144.864 140.419C143.775 136.559 140.607 133.42 135.359 131.001C129.647 128.292 122.977 127.254 115.348 127.886C115.021 127.913 114.694 127.941 114.367 127.968C114.04 127.995 113.713 128.022 113.386 128.049Z" fill="#3C3E41"/>
<path d="M122.512 126.963C124.566 125.257 125.507 123.368 125.335 121.297C125.172 119.335 123.933 117.627 121.618 116.173C119.321 114.937 116.592 114.45 113.431 114.712C110.38 114.965 107.823 115.89 105.76 117.488C103.716 119.303 102.775 121.192 102.938 123.154C103.109 125.224 104.348 126.932 106.655 128.277C108.97 129.732 111.653 130.332 114.705 130.079C117.866 129.817 120.468 128.779 122.512 126.963Z" fill="#955435"/>
<path d="M42.8976 68.0489L42.7341 68.0625C40.5814 68.5701 38.8734 69.809 37.6102 71.7793C36.3288 73.5315 35.9419 75.484 36.4496 77.6367L46.9978 129.436C47.3874 131.489 48.5173 133.206 50.3876 134.588C52.2398 135.751 54.2423 136.079 56.395 135.571L56.5584 135.558C58.7202 135.159 60.3827 134.033 61.546 132.181C62.7094 130.329 63.0872 128.268 62.6795 125.997L52.1584 74.524C51.6417 72.2624 50.4573 70.5499 48.6051 69.3865C46.8618 68.2142 44.9593 67.7683 42.8976 68.0489ZM168.929 59.4141C167.402 60.8574 166.57 62.737 166.433 65.0529L164.53 117.555C164.501 119.862 165.213 121.833 166.666 123.469C168.118 125.104 169.943 125.941 172.141 125.978L172.305 125.964C174.403 126.12 176.269 125.471 177.905 124.019C179.631 122.339 180.517 120.455 180.564 118.366L182.44 65.5369C182.586 63.33 181.883 61.4679 180.331 59.9505C178.761 58.2151 176.872 57.2743 174.665 57.128L174.502 57.1415C172.313 57.2132 170.455 57.9707 168.929 59.4141Z" fill="#3C3E41"/>
<path d="M159.077 69.6128C172.657 63.988 179.204 58.2329 178.716 52.3475C178.237 46.5711 170.869 42.4082 156.611 39.8588C142.571 37.2914 125.711 37.0976 106.029 39.2775C86.574 41.5484 70.0565 45.4962 56.4763 51.1209C43.0141 56.8457 36.5223 62.5962 37.0011 68.3726C37.4889 74.258 44.8026 78.4255 58.9423 80.8749C73.209 83.5333 90.0698 83.7271 109.525 81.4562C129.206 79.2763 145.724 75.3285 159.077 69.6128Z" fill="#3C3E41"/>
<defs>
<radialGradient id="paint0_radial_11_3" cx="0" cy="0" r="1" gradientUnits="userSpaceOnUse" gradientTransform="translate(111.816 164.57) scale(67.1987 44.5796)">
<stop stop-opacity="0.301961"/>
<stop offset="1" stop-opacity="0"/>
</radialGradient>
</defs>
</svg>
