<svg width="489" height="422" viewBox="0 0 489 422" fill="none" xmlns="http://www.w3.org/2000/svg">
<path d="M489 73.6975C487.982 38.6059 466.497 21.0601 424.546 21.0601H64.3984C22.651 21.0601 1.26823 38.6059 0.25 73.6975V368.204C1.26823 403.471 22.651 421.105 64.3984 421.105H424.546C466.497 421.105 487.982 403.471 489 368.204V73.6975Z" fill="url(#paint0_linear_9_150)"/>
<path d="M489 55.2752C489 18.429 467.515 0.00585938 424.546 0.00585938H64.3984C21.6328 0.00585938 0.25 18.429 0.25 55.2752V73.6983C1.26823 38.6067 22.651 21.0608 64.3984 21.0608H424.546C466.497 21.0608 487.982 38.6067 489 73.6983V55.2752Z" fill="url(#paint1_linear_9_150)"/>
<path d="M148.358 175.916C130.588 175.916 115.494 181.358 103.077 192.241C90.4448 203.124 84.1289 216.129 84.1289 231.255C84.1289 246.566 90.4448 259.57 103.077 270.269C115.494 281.153 130.588 286.594 148.358 286.594C166.129 286.594 181.222 281.153 193.64 270.269C206.272 259.57 212.588 246.566 212.588 231.255C212.588 216.129 206.272 203.124 193.64 192.241C181.222 181.358 166.129 175.916 148.358 175.916Z" fill="white"/>
<path d="M148.356 198.052C137.865 198.052 128.873 201.372 121.38 208.013C113.672 214.469 109.818 222.216 109.818 231.255C109.818 240.478 113.672 248.318 121.38 254.774C128.873 261.23 137.865 264.458 148.356 264.458C159.061 264.458 168.16 261.23 175.654 254.774C183.147 248.318 186.894 240.478 186.894 231.255C186.894 222.216 183.147 214.469 175.654 208.013C168.16 201.372 159.061 198.052 148.356 198.052Z" fill="#3D465D"/>
<path d="M341.046 175.916C323.276 175.916 308.182 181.358 295.764 192.241C283.132 203.124 276.816 216.129 276.816 231.255C276.816 246.566 283.132 259.57 295.764 270.269C308.182 281.153 323.276 286.594 341.046 286.594C358.816 286.594 373.91 281.153 386.328 270.269C398.959 259.57 405.275 246.566 405.275 231.255C405.275 216.129 398.959 203.124 386.328 192.241C373.91 181.358 358.816 175.916 341.046 175.916Z" fill="white"/>
<path d="M341.044 198.052C330.553 198.052 321.561 201.372 314.067 208.013C306.36 214.469 302.506 222.216 302.506 231.255C302.506 240.478 306.36 248.318 314.067 254.774C321.561 261.23 330.553 264.458 341.044 264.458C351.748 264.458 360.848 261.23 368.341 254.774C375.835 248.318 379.581 240.478 379.581 231.255C379.581 222.216 375.835 214.469 368.341 208.013C360.848 201.372 351.748 198.052 341.044 198.052Z" fill="#3D465D"/>
<path d="M67.105 135.518C63.4654 136.255 60.8962 137.916 59.3975 140.498C57.4706 143.081 56.9353 145.94 57.7917 149.076L64.5358 170.381C65.3922 173.517 67.4262 175.731 70.6376 177.022C73.4209 178.682 76.6324 179.143 80.2721 178.405L204.235 149.629C207.661 148.891 210.337 147.139 212.264 144.372C213.976 141.974 214.405 139.207 213.548 136.071L206.804 114.765C205.948 111.63 204.021 109.324 201.023 107.848C197.812 106.372 194.493 106.003 191.068 106.741L67.105 135.518Z" fill="#3D465D"/>
<path d="M298.328 106.741C294.903 106.003 291.584 106.372 288.373 107.848C285.375 109.324 283.449 111.63 282.592 114.765L275.848 136.071C274.992 139.207 275.42 141.974 277.133 144.372C279.06 147.139 281.736 148.891 285.161 149.629L409.124 178.405C412.764 179.143 415.975 178.682 418.759 177.022C421.97 175.731 424.004 173.517 424.86 170.381L431.605 149.076C432.461 145.94 431.926 143.081 429.999 140.498C428.5 137.916 425.931 136.255 422.291 135.518L298.328 106.741Z" fill="#3D465D"/>
<path d="M304.754 317.031C302.399 315.37 299.937 313.71 297.368 312.05C282.809 302.458 265.253 297.662 244.7 297.662C223.718 297.662 205.841 302.458 191.068 312.05C191.068 312.235 190.961 312.327 190.747 312.327C187.964 314.171 185.608 316.108 183.682 318.137C181.327 320.351 180.256 323.026 180.47 326.162C180.684 329.113 182.183 331.603 184.966 333.632C187.535 335.661 190.64 336.584 194.279 336.399C197.705 336.215 200.595 335.016 202.95 332.802C204.021 331.695 205.198 330.681 206.483 329.759C216.974 323.118 229.713 319.798 244.7 319.798C259.258 319.798 271.676 323.118 281.953 329.759L282.274 330.035C284.201 331.142 286.021 332.341 287.733 333.632C290.303 335.661 293.407 336.584 297.047 336.399C300.472 336.215 303.363 335.016 305.718 332.802C308.073 330.404 309.143 327.729 308.929 324.778C308.715 321.642 307.323 319.06 304.754 317.031Z" fill="#3D465D"/>
<defs>
<linearGradient id="paint0_linear_9_150" x1="244.625" y1="0.0050798" x2="244.625" y2="421.105" gradientUnits="userSpaceOnUse">
<stop stop-color="#FFCD59"/>
<stop offset="1" stop-color="#F7A41B"/>
</linearGradient>
<linearGradient id="paint1_linear_9_150" x1="243.098" y1="-1.31008" x2="243.098" y2="227.663" gradientUnits="userSpaceOnUse">
<stop stop-color="#FFE383"/>
<stop offset="1" stop-color="#FFB43C"/>
</linearGradient>
</defs>
</svg>
