<svg width="216" height="186" viewBox="0 0 216 186" fill="none" xmlns="http://www.w3.org/2000/svg">
<path d="M215.902 32.7337C215.453 17.2522 205.975 9.51147 187.467 9.51147H28.5798C10.162 9.51147 0.728511 17.2522 0.279297 32.7337V162.662C0.728511 178.221 10.162 186 28.5798 186H187.467C205.975 186 215.453 178.221 215.902 162.662V32.7337Z" fill="url(#paint0_linear_18_296)"/>
<path d="M215.902 24.606C215.902 8.35042 206.424 0.222656 187.467 0.222656H28.5798C9.7128 0.222656 0.279297 8.35042 0.279297 24.606V32.7337C0.728511 17.2523 10.162 9.51153 28.5798 9.51153H187.467C205.975 9.51153 215.453 17.2523 215.902 32.7337V24.606Z" fill="url(#paint1_linear_18_296)"/>
<path d="M22.8701 67.3281C24.4212 68.1505 26.2108 68.3561 28.239 67.9449L83.5388 55.1469C85.4478 54.7358 86.9391 53.8106 88.0129 52.3715C88.8481 50.9323 88.9674 49.339 88.3708 47.5915L87.476 44.6618C86.9988 42.9143 85.9847 41.6808 84.4336 40.9612C82.644 40.0361 80.7947 39.7791 78.8858 40.1903L23.586 52.9882C21.5577 53.3994 20.126 54.376 19.2909 55.9179C18.2171 57.2542 17.9188 58.7962 18.396 60.5437L19.2909 63.4733C19.8874 65.2208 21.0805 66.5058 22.8701 67.3281Z" fill="#3D465D"/>
<path d="M126.137 52.5265C127.091 53.9656 128.523 54.8908 130.432 55.302L185.732 68.0999C187.76 68.5111 189.609 68.3569 191.28 67.6374C192.95 66.7122 194.083 65.3759 194.68 63.6284L195.575 60.6987C196.052 58.9512 195.813 57.4607 194.859 56.2271C193.904 54.5824 192.413 53.5544 190.385 53.1433L135.085 40.3453C133.176 39.9341 131.387 40.1911 129.716 41.1163C128.046 41.8358 126.972 43.0694 126.495 44.8169L125.6 47.7465C125.003 49.494 125.182 51.0874 126.137 52.5265Z" fill="#3D465D"/>
<path d="M24.6582 80.4353C24.6582 82.1828 25.3741 83.6733 26.8058 84.9069L43.0915 98.9384L26.8058 113.124C25.3741 114.255 24.6582 115.694 24.6582 117.441C24.6582 119.189 25.3741 120.68 26.8058 121.913C28.1182 123.044 29.7885 123.609 31.8168 123.609C33.845 123.609 35.575 123.044 37.0067 121.913L53.2924 107.727L69.7571 121.913C71.0695 123.044 72.7398 123.609 74.768 123.609C76.7963 123.609 78.5263 123.044 79.958 121.913C81.2704 120.68 81.9266 119.189 81.9266 117.441C81.9266 115.694 81.2704 114.255 79.958 113.124L63.4933 98.9384L79.958 84.9069C81.2704 83.6733 81.9266 82.1828 81.9266 80.4353C81.9266 78.6878 81.2704 77.2486 79.958 76.1179C78.5263 74.8843 76.7963 74.2676 74.768 74.2676C72.7398 74.2676 71.0695 74.8843 69.7571 76.1179L53.2924 90.1494L37.0067 76.1179C35.575 74.8843 33.845 74.2676 31.8168 74.2676C29.7885 74.2676 28.1182 74.8843 26.8058 76.1179C25.3741 77.2486 24.6582 78.6878 24.6582 80.4353ZM132.036 80.4353C132.036 82.1828 132.752 83.6733 134.184 84.9069L150.47 98.9384L134.184 113.124C132.752 114.255 132.036 115.694 132.036 117.441C132.036 119.189 132.752 120.68 134.184 121.913C135.496 123.044 137.167 123.609 139.195 123.609C141.223 123.609 142.953 123.044 144.385 121.913L160.671 107.727L177.135 121.913C178.448 123.044 180.118 123.609 182.146 123.609C184.174 123.609 185.904 123.044 187.336 121.913C188.649 120.68 189.305 119.189 189.305 117.441C189.305 115.694 188.649 114.255 187.336 113.124L170.872 98.9384L187.336 84.9069C188.649 83.6733 189.305 82.1828 189.305 80.4353C189.305 78.6878 188.649 77.2486 187.336 76.1179C185.904 74.8843 184.174 74.2676 182.146 74.2676C180.118 74.2676 178.448 74.8843 177.135 76.1179L160.671 90.1494L144.385 76.1179C142.953 74.8843 141.223 74.2676 139.195 74.2676C137.167 74.2676 135.496 74.8843 134.184 76.1179C132.752 77.2486 132.036 78.6878 132.036 80.4353Z" fill="#3D465D"/>
<path d="M127.918 153.985C128.992 154.601 130.006 155.27 130.961 155.989C132.392 157.12 134.122 157.634 136.151 157.531C138.06 157.428 139.67 156.76 140.983 155.527C142.295 154.19 142.892 152.7 142.772 151.055C142.653 149.307 141.877 147.868 140.446 146.738C139.133 145.812 137.761 144.887 136.33 143.962C128.217 138.617 118.433 135.944 106.98 135.944C95.2872 135.944 85.3249 138.617 77.0926 143.962C77.0926 144.065 77.0329 144.116 76.9136 144.116C75.3626 145.144 74.0502 146.224 72.9764 147.354C71.664 148.588 71.0675 150.078 71.1868 151.826C71.3061 153.471 72.1413 154.858 73.6923 155.989C75.124 157.12 76.854 157.634 78.8822 157.531C80.7912 157.428 82.4018 156.76 83.7142 155.527C84.3108 154.91 84.967 154.344 85.6828 153.83C91.529 150.13 98.6279 148.279 106.98 148.279C115.093 148.279 122.012 150.13 127.739 153.83L127.918 153.985Z" fill="#3D465D"/>
<defs>
<linearGradient id="paint0_linear_18_296" x1="108.091" y1="0.222597" x2="108.091" y2="186" gradientUnits="userSpaceOnUse">
<stop stop-color="#E26081"/>
<stop offset="1" stop-color="#D44947"/>
</linearGradient>
<linearGradient id="paint1_linear_18_296" x1="107.417" y1="-0.357899" x2="107.417" y2="100.659" gradientUnits="userSpaceOnUse">
<stop stop-color="#F37F98"/>
<stop offset="1" stop-color="#D74854"/>
</linearGradient>
</defs>
</svg>
