<svg width="309" height="281" viewBox="0 0 309 281" fill="none" xmlns="http://www.w3.org/2000/svg">
<path d="M308.75 49.156C308.107 25.7486 294.535 14.0449 268.034 14.0449H40.5234C14.151 14.0449 0.643229 25.7486 0 49.156V245.603C0.643229 269.127 14.151 280.889 40.5234 280.889H268.034C294.535 280.889 308.107 269.127 308.75 245.603V49.156Z" fill="url(#paint0_linear_2_8881)"/>
<path d="M308.75 36.8667C308.75 12.2889 295.178 0 268.034 0H40.5234C13.5078 0 0 12.2889 0 36.8667V49.1556C0.643229 25.7481 14.151 14.0444 40.5234 14.0444H268.034C294.535 14.0444 308.107 25.7481 308.75 49.1556V36.8667Z" fill="url(#paint1_linear_2_8881)"/>
<path d="M130.001 141.223H33.6758C33.6758 153.782 38.4118 164.449 47.8838 173.225C57.1952 182.153 68.5135 186.616 81.8385 186.616C95.1635 186.616 106.482 182.153 115.793 173.225C125.265 164.449 130.001 153.782 130.001 141.223Z" fill="white"/>
<path d="M110.731 141.223H52.9355C52.9355 148.789 55.8253 155.219 61.6048 160.515C67.2238 165.811 73.9666 168.459 81.8332 168.459C89.8603 168.459 96.6834 165.811 102.302 160.515C107.921 155.219 110.731 148.789 110.731 141.223Z" fill="#3D465D"/>
<path d="M274.489 141.223H178.164C178.164 153.782 182.9 164.449 192.372 173.225C201.684 182.153 213.002 186.616 226.327 186.616C239.652 186.616 250.97 182.153 260.281 173.225C269.753 164.449 274.489 153.782 274.489 141.223Z" fill="white"/>
<path d="M255.219 141.223H197.424C197.424 148.789 200.314 155.219 206.093 160.515C211.712 165.811 218.455 168.459 226.321 168.459C234.349 168.459 241.172 165.811 246.791 160.515C252.41 155.219 255.219 148.789 255.219 141.223Z" fill="#3D465D"/>
<path d="M32.7128 122.156C35.121 123.366 37.6094 123.669 40.178 123.063L133.132 99.459C135.861 98.8538 137.788 97.492 138.912 95.3737C140.356 93.2553 140.758 90.91 140.116 88.3377L135.059 70.8613C134.416 68.2891 132.891 66.4733 130.483 65.4142C128.396 64.0524 125.988 63.6741 123.259 64.2793L30.3047 87.8838C27.736 88.489 25.7292 89.9265 24.2843 92.1961C23 94.1632 22.6789 96.4328 23.3211 99.0051L28.3782 116.481C29.0203 119.054 30.4652 120.945 32.7128 122.156Z" fill="#3D465D"/>
<path d="M169.012 113.303C170.297 115.573 172.223 117.086 174.792 117.843L267.746 141.22C270.475 141.825 272.963 141.523 275.211 140.312C277.459 139.102 278.903 137.21 279.546 134.638L284.603 117.162C285.245 114.59 284.924 112.32 283.639 110.353C282.355 108.083 280.348 106.646 277.619 106.041L184.665 82.663C182.096 81.9065 179.688 82.1334 177.441 83.3439C175.033 84.5544 173.507 86.4458 172.865 89.0181L167.808 106.494C167.166 109.067 167.567 111.336 169.012 113.303Z" fill="#3D465D"/>
<path d="M201.764 192.971C199.517 191.609 197.028 191.306 194.299 192.063C191.731 192.668 189.724 193.954 188.279 195.921C186.995 197.586 185.148 199.175 182.74 200.688C176.8 204.168 169.817 205.908 161.789 205.908C158.097 205.908 154.645 205.605 151.434 205C148.705 204.546 146.217 205 143.969 206.362C141.722 207.421 140.277 209.237 139.635 211.809C138.992 214.079 139.474 216.273 141.079 218.391C142.364 220.207 144.451 221.417 147.341 222.023C151.675 222.93 156.492 223.384 161.789 223.384C174.151 223.384 184.827 220.661 193.818 215.214L193.577 215.44C199.035 212.263 203.049 208.707 205.618 204.773C206.902 202.655 207.223 200.461 206.581 198.191C205.778 195.77 204.173 194.03 201.764 192.971Z" fill="#37393F"/>
<defs>
<linearGradient id="paint0_linear_2_8881" x1="154.375" y1="0.000476652" x2="154.375" y2="280.889" gradientUnits="userSpaceOnUse">
<stop stop-color="#71CF93"/>
<stop offset="1" stop-color="#59B15C"/>
</linearGradient>
<linearGradient id="paint1_linear_2_8881" x1="153.41" y1="-0.877778" x2="153.41" y2="151.856" gradientUnits="userSpaceOnUse">
<stop stop-color="#85DFAF"/>
<stop offset="1" stop-color="#69C581"/>
</linearGradient>
</defs>
</svg>
