<svg width="309" height="281" viewBox="0 0 309 281" fill="none" xmlns="http://www.w3.org/2000/svg">
<path d="M308.75 49.156C308.107 25.7486 294.535 14.0449 268.034 14.0449H40.5234C14.151 14.0449 0.643229 25.7486 0 49.156V245.603C0.643229 269.127 14.151 280.889 40.5234 280.889H268.034C294.535 280.889 308.107 269.127 308.75 245.603V49.156Z" fill="url(#paint0_linear_2_8982)"/>
<path d="M308.75 36.8667C308.75 12.2889 295.178 0 268.034 0H40.5234C13.5078 0 0 12.2889 0 36.8667V49.1556C0.643229 25.7481 14.151 14.0444 40.5234 14.0444H268.034C294.535 14.0444 308.107 25.7481 308.75 49.1556V36.8667Z" fill="url(#paint1_linear_2_8982)"/>
<path d="M118.262 125.512C109.596 115.846 99.0616 111.014 86.6598 111.014C74.258 111.014 63.7239 115.846 55.0576 125.512C46.2419 135.014 41.834 146.563 41.834 160.161H131.486C131.486 146.563 127.078 135.014 118.262 125.512Z" fill="white"/>
<path d="M105.718 139.274C100.488 133.54 94.138 130.673 86.667 130.673C79.3454 130.673 73.0698 133.54 67.8401 139.274C62.461 145.008 59.7715 151.97 59.7715 160.161H113.562C113.562 151.97 110.948 145.008 105.718 139.274Z" fill="#3D465D"/>
<path d="M252.741 125.512C244.074 115.846 233.54 111.014 221.138 111.014C208.737 111.014 198.202 115.846 189.536 125.512C180.72 135.014 176.312 146.563 176.312 160.161H265.964C265.964 146.563 261.556 135.014 252.741 125.512Z" fill="white"/>
<path d="M240.195 139.274C234.965 133.54 228.615 130.673 221.144 130.673C213.822 130.673 207.546 133.54 202.317 139.274C196.938 145.008 194.248 151.97 194.248 160.161H248.039C248.039 151.97 245.424 145.008 240.195 139.274Z" fill="#3D465D"/>
<path d="M37.1309 123.793L40.7169 138.045C41.3146 140.83 42.6594 142.878 44.7513 144.189C46.8431 145.499 49.0844 145.827 51.4751 145.172L120.731 124.776C123.271 124.12 125.139 122.564 126.334 120.107C127.53 117.977 127.828 115.52 127.231 112.735L123.645 98.4821C123.047 95.861 121.702 93.8132 119.61 92.3388C117.519 91.192 115.203 90.9463 112.662 91.6016L43.4065 111.998C41.0158 112.653 39.2227 114.127 38.0274 116.421C36.832 118.714 36.5332 121.172 37.1309 123.793Z" fill="#3D465D"/>
<path d="M181.693 96.0247C182.739 98.1544 184.532 99.5469 187.072 100.202L256.328 120.598C258.719 121.417 261.035 121.253 263.276 120.107C265.219 118.632 266.489 116.584 267.087 113.963L270.673 99.7107C271.27 96.9257 271.046 94.4684 270 92.3387C268.656 89.8813 266.788 88.2431 264.397 87.424L195.141 67.028C192.601 66.3727 190.36 66.7823 188.417 68.2567C186.176 69.4035 184.756 71.3693 184.159 74.1543L180.573 88.4069C179.975 91.0281 180.349 93.5673 181.693 96.0247Z" fill="#3D465D"/>
<path d="M198.505 194.072C196.413 192.597 194.097 192.27 191.557 193.089C189.167 193.744 187.299 195.136 185.954 197.266C184.759 199.068 183.04 200.788 180.799 202.427C175.271 206.195 168.771 208.079 161.3 208.079C157.863 208.079 154.651 207.751 151.662 207.096C149.122 206.604 146.806 207.096 144.714 208.57C142.622 209.717 141.278 211.683 140.68 214.468C140.082 216.925 140.531 219.3 142.025 221.594C143.22 223.56 145.163 224.87 147.852 225.526C151.886 226.509 156.369 227 161.3 227C172.805 227 182.742 224.051 191.109 218.154L190.885 218.399C195.965 214.959 199.701 211.109 202.091 206.85C203.287 204.556 203.586 202.181 202.988 199.724C202.241 197.102 200.747 195.218 198.505 194.072Z" fill="#3D465D"/>
<defs>
<linearGradient id="paint0_linear_2_8982" x1="154.375" y1="0.000476652" x2="154.375" y2="280.889" gradientUnits="userSpaceOnUse">
<stop stop-color="#71CF93"/>
<stop offset="1" stop-color="#59B15C"/>
</linearGradient>
<linearGradient id="paint1_linear_2_8982" x1="153.41" y1="-0.877778" x2="153.41" y2="151.856" gradientUnits="userSpaceOnUse">
<stop stop-color="#85DFAF"/>
<stop offset="1" stop-color="#69C581"/>
</linearGradient>
</defs>
</svg>
