<?xml version="1.0" encoding="utf-8"?>
<!-- Generator: Adobe Illustrator 27.5.0, SVG Export Plug-In . SVG Version: 6.00 Build 0)  -->
<svg version="1.1" id="Capa_1" xmlns="http://www.w3.org/2000/svg" xmlns:xlink="http://www.w3.org/1999/xlink" x="0px" y="0px"
	 viewBox="0 0 2122 2122" style="enable-background:new 0 0 2122 2122;" xml:space="preserve">
<g>
	<g>
		<path style="fill:#F78F41;" d="M561.387,655.844c2.125-0.699,4.27-1.305,6.398-1.98c0.035-0.055,0.07-0.113,0.102-0.168
			C565.715,654.391,563.555,655.133,561.387,655.844z"/>
		<path style="fill:#F78F41;" d="M1095.609,685.898c-84.945-41.574-176.781-63.371-269.387-67.269
			c-3.273,13.547-6.449,26.43-9.34,38.059c37.25,10.625,62.731,32.059,62.731,56.789c0,35.293-51.859,63.902-115.828,63.902
			c-63.973,0-115.828-28.609-115.828-63.902c0-28.84,34.629-53.211,82.195-61.16c-0.113-9.883-0.141-20.406-0.082-31.32
			c-55.031,4.93-109.531,16.086-162.285,32.867c-92.332,143.789-129.508,325.348-118.484,493.238
			c5.973,90.969,27.383,185.309,77.828,262.332c44.375,67.766,108.519,120.887,178.805,160.078
			c69.961,39.016,149.961,65.301,232.285,76.734c-113.93-120.66-175.234-286.23-138.809-472.652
			c17.371-88.91,54.27-169.418,104.875-238.875c-2.988-5.32-4.707-11.445-4.707-17.98c0-20.336,16.488-36.82,36.824-36.82
			c3.863,0,7.586,0.601,11.082,1.703c39.215-43.195,84.105-80.898,132.867-112.277c6.305-15.285,21.34-26.058,38.906-26.058
			c1.613,0,3.199,0.113,4.762,0.289c11.465-6.223,23.078-12.125,34.859-17.668C1138.656,710.129,1117.516,696.621,1095.609,685.898z
			"/>
	</g>
	<path style="fill:#FAAA44;" d="M935.883,815.023c23.242,0,42.086-18.84,42.086-42.082s-18.844-42.082-42.086-42.082
		c-23.238,0-42.082,18.84-42.082,42.082S912.644,815.023,935.883,815.023z"/>
	<path style="fill:#FAAA44;" d="M1080.352,769.344c14.23-9.156,28.824-17.715,43.668-25.769c-1.563-0.176-3.148-0.289-4.762-0.289
		C1101.691,743.285,1086.656,754.059,1080.352,769.344z"/>
	<path style="fill:#FAAA44;" d="M899.578,916.738c0,6.535,1.719,12.66,4.707,17.98c13.477-18.492,27.887-36.227,43.199-53.098
		c-3.496-1.102-7.219-1.703-11.082-1.703C916.066,879.918,899.578,896.402,899.578,916.738z"/>
	<path style="fill:#FAAA44;" d="M824.566,886.098c15.438,0,27.949-12.508,27.949-27.942c0-15.438-12.512-27.945-27.949-27.945
		c-15.434,0-27.945,12.508-27.945,27.945C796.621,873.59,809.133,886.098,824.566,886.098z"/>
	<path style="fill:#F4763E;" d="M731.91,707.977c-0.824-13.059-1.5-32.637-1.758-55.66c-47.566,7.949-82.195,32.32-82.195,61.16
		c0,35.293,51.856,63.902,115.828,63.902c63.969,0,115.828-28.609,115.828-63.902c0-24.731-25.481-46.164-62.731-56.789
		c-5.656,22.762-10.215,40.742-12.289,49.551C798.578,731.793,749.234,716.488,731.91,707.977z"/>
	<path style="fill:#842A32;" d="M730.152,652.316c0.258,23.023,0.934,42.602,1.758,55.66c17.324,8.512,66.668,23.816,72.684-1.738
		c2.074-8.809,6.633-26.789,12.289-49.551c2.891-11.629,6.066-24.512,9.34-38.059c0.727-2.996,1.453-6.02,2.188-9.074
		c-1.211,0.227-2.387,0.445-3.52,0.656c-0.519,0.094-0.996,0.184-1.492,0.277c-1.559,0.285-3.059,0.563-4.453,0.816
		c-0.426,0.074-0.801,0.141-1.203,0.215c-1.285,0.231-2.504,0.449-3.637,0.652c-0.227,0.043-0.457,0.082-0.676,0.121
		c-1.129,0.203-2.148,0.383-3.098,0.551c-0.215,0.035-0.488,0.082-0.691,0.121l0,0c-4.113,0.719-6.375,1.094-6.375,1.094
		c11.805-50.176,31.457-100.027,54.18-144.387c1.578-11.234,2.504-20.813,2.504-27.898c0-44.785-67.652-49.203-98.094-34.895
		c-24.398,11.465-31.285,125.715-31.785,214.117C730.012,631.91,730.039,642.434,730.152,652.316z"/>
	<path style="fill:#5EA763;" d="M809.641,612.965c20.09-38.863,57.742-66.918,89.703-95.555
		c46.215-41.418,91.781-82.477,142.051-119.067c63.48-46.211,130.23-87.598,200.516-122.082
		c3.453,31.152-0.605,64.555-10.641,96.781c10.527-33.777,14.523-68.848,10.141-101.266
		c-65.723-1.992-206.516,13.688-264.367,44.758c-33.09,17.77-80.82,77.441-119.598,153.137
		c-22.723,44.359-42.375,94.211-54.18,144.387C803.266,614.059,805.527,613.684,809.641,612.965z"/>
	<path style="fill:#479459;" d="M1241.91,276.262c-70.285,34.484-137.035,75.871-200.516,122.082
		c-50.27,36.59-95.836,77.648-142.051,119.067c-31.961,28.637-69.613,56.691-89.703,95.555l0,0c0.203-0.039,0.477-0.086,0.691-0.121
		c0.953-0.168,1.957-0.348,3.098-0.551c0.219-0.039,0.449-0.078,0.676-0.121c1.129-0.199,2.355-0.422,3.637-0.652
		c0.402-0.074,0.777-0.141,1.203-0.215c1.387-0.254,2.895-0.531,4.453-0.816c0.496-0.094,0.973-0.184,1.492-0.277
		c1.629-0.301,3.356-0.625,5.145-0.961c0.543-0.102,1.094-0.203,1.656-0.309c1.902-0.359,3.879-0.734,5.941-1.133
		c0.406-0.078,0.82-0.156,1.234-0.234c2.246-0.434,4.555-0.879,6.961-1.352c0.273-0.051,0.555-0.109,0.828-0.164
		c2.332-0.453,4.738-0.93,7.207-1.422c0.359-0.074,0.707-0.145,1.066-0.215c2.543-0.508,5.176-1.043,7.855-1.586
		c0.535-0.109,1.066-0.219,1.605-0.328c2.652-0.543,5.371-1.106,8.137-1.684c0.582-0.117,1.16-0.238,1.746-0.363
		c2.836-0.594,5.723-1.203,8.672-1.832c0.5-0.109,1.012-0.219,1.52-0.328c3.082-0.66,6.211-1.336,9.402-2.039
		c0.277-0.059,0.563-0.125,0.844-0.184c3.148-0.691,6.344-1.402,9.578-2.129c0.336-0.078,0.668-0.148,1.004-0.227
		c3.293-0.742,6.629-1.504,10.004-2.285c0.5-0.113,1-0.227,1.508-0.344c3.285-0.762,6.613-1.543,9.961-2.34
		c0.621-0.145,1.234-0.293,1.859-0.441c3.324-0.793,6.664-1.598,10.027-2.422c0.617-0.152,1.23-0.305,1.852-0.457
		c3.457-0.852,6.938-1.715,10.434-2.598c0.352-0.09,0.703-0.18,1.055-0.269c3.547-0.898,7.102-1.816,10.668-2.75
		c0.246-0.059,0.484-0.125,0.723-0.184c3.586-0.938,7.176-1.898,10.766-2.867c0.547-0.148,1.094-0.297,1.637-0.445
		c3.48-0.945,6.957-1.902,10.426-2.879c0.609-0.172,1.215-0.34,1.824-0.512c3.449-0.973,6.898-1.961,10.328-2.965
		c0.594-0.172,1.188-0.348,1.785-0.523c3.496-1.027,6.984-2.066,10.445-3.121c0.379-0.117,0.758-0.234,1.141-0.352
		c3.535-1.082,7.047-2.18,10.535-3.289c0.152-0.047,0.313-0.098,0.465-0.144c3.508-1.121,6.977-2.262,10.41-3.406
		c0.473-0.16,0.949-0.316,1.422-0.473c3.305-1.113,6.57-2.234,9.801-3.371c0.551-0.195,1.102-0.387,1.648-0.582
		c3.199-1.133,6.355-2.277,9.469-3.43c0.508-0.191,1.004-0.379,1.512-0.57c3.156-1.184,6.273-2.375,9.324-3.586
		c0.34-0.137,0.676-0.273,1.016-0.41c3.133-1.246,6.219-2.504,9.23-3.777c0.078-0.031,0.156-0.066,0.234-0.098
		c3.004-1.273,5.934-2.563,8.801-3.863c0.371-0.168,0.75-0.336,1.121-0.504c2.73-1.25,5.379-2.508,7.973-3.777
		c0.438-0.215,0.875-0.43,1.305-0.644c2.539-1.258,5-2.524,7.387-3.805c0.41-0.219,0.805-0.434,1.207-0.656
		c2.398-1.301,4.723-2.613,6.949-3.941c0.266-0.156,0.52-0.316,0.785-0.473c2.32-1.399,4.566-2.805,6.688-4.223
		c2.5-1.395,4.973-2.856,7.422-4.379c0.895-0.555,1.766-1.16,2.652-1.734c1.539-0.992,3.082-1.969,4.602-3.008
		c1.113-0.77,2.207-1.594,3.313-2.387c1.258-0.902,2.523-1.781,3.766-2.715c1.188-0.895,2.352-1.844,3.523-2.77
		c1.129-0.891,2.27-1.758,3.387-2.672c1.23-1.012,2.434-2.078,3.648-3.121c1.023-0.879,2.055-1.738,3.066-2.641
		c1.273-1.133,2.516-2.316,3.762-3.484c0.922-0.859,1.859-1.699,2.766-2.578c1.289-1.246,2.547-2.535,3.813-3.816
		c0.84-0.848,1.691-1.676,2.52-2.539c1.301-1.359,2.578-2.762,3.855-4.156c0.75-0.824,1.52-1.629,2.266-2.465
		c1.32-1.484,2.605-3.004,3.895-4.52c0.668-0.789,1.352-1.563,2.008-2.355c1.332-1.609,2.633-3.254,3.934-4.898
		c0.582-0.742,1.18-1.465,1.754-2.211c1.332-1.734,2.641-3.5,3.938-5.273c0.504-0.688,1.02-1.367,1.523-2.066
		c1.328-1.848,2.625-3.73,3.91-5.621c0.441-0.641,0.887-1.273,1.316-1.918c1.32-1.969,2.602-3.965,3.871-5.969
		c0.375-0.59,0.758-1.176,1.129-1.77c1.297-2.082,2.559-4.191,3.801-6.313c0.313-0.531,0.633-1.059,0.945-1.594
		c1.273-2.207,2.52-4.441,3.742-6.688c0.246-0.457,0.504-0.91,0.75-1.367c1.25-2.332,2.465-4.684,3.652-7.051
		c0.191-0.383,0.391-0.766,0.586-1.152c1.211-2.445,2.387-4.906,3.527-7.383c0.148-0.32,0.301-0.637,0.449-0.957
		c1.168-2.547,2.289-5.109,3.379-7.684c0.113-0.262,0.223-0.512,0.332-0.77c1.117-2.656,2.188-5.324,3.227-8.008
		c0.066-0.176,0.137-0.355,0.203-0.531c1.051-2.75,2.066-5.516,3.031-8.289c0.039-0.117,0.086-0.234,0.125-0.348
		c0.984-2.84,1.926-5.691,2.816-8.551c0.016-0.051,0.031-0.102,0.051-0.152C1241.305,340.816,1245.363,307.414,1241.91,276.262z"/>
	<path style="fill:#F2663C;" d="M1884.566,893.906c-187.84-251.297-487.203-280.188-725.688-168
		c-11.781,5.543-23.395,11.445-34.859,17.668c-14.844,8.055-29.438,16.613-43.668,25.769
		c-48.762,31.379-93.652,69.082-132.867,112.277c-15.313,16.871-29.723,34.606-43.199,53.098
		c-50.605,69.457-87.504,149.965-104.875,238.875c-36.426,186.422,24.879,351.992,138.809,472.652
		c-82.324-11.434-162.324-37.719-232.285-76.734c-70.285-39.191-134.43-92.313-178.805-160.078
		c-50.445-77.023-71.856-171.363-77.828-262.332c-11.031-167.953,26.184-349.59,118.586-493.406
		c-21.344,6.785-42.387,14.531-63.066,23.152c-1.984,0.824-3.969,1.644-5.941,2.484c-3.512,1.5-7.004,3.035-10.488,4.59
		c-2.777,1.23-5.539,2.484-8.301,3.754c-2.965,1.359-5.922,2.727-8.863,4.125c-3.531,1.68-7.047,3.402-10.555,5.137
		c-2.27,1.121-4.551,2.227-6.809,3.371c-5.844,2.961-11.656,5.981-17.414,9.094c-83.109,44.914-145.859,98.867-192.406,161.106
		c-87.668,117.215-117.855,263.832-118.274,434.855c-0.383,156.207,63.715,313.969,185.027,417.906
		c134.453,115.164,264.816,126.473,438.437,126.445c6.246,0,12.441-0.094,18.602-0.234c1.906-0.047,3.801-0.113,5.703-0.172
		c4.324-0.133,8.633-0.293,12.914-0.488c2.082-0.098,4.152-0.199,6.219-0.313c4.359-0.238,8.691-0.52,13.008-0.828
		c1.727-0.125,3.465-0.23,5.184-0.367c5.969-0.469,11.902-0.996,17.781-1.605c0.586-0.059,1.16-0.129,1.75-0.195
		c5.293-0.559,10.555-1.172,15.777-1.844c1.781-0.23,3.551-0.48,5.324-0.723c4.121-0.559,8.219-1.148,12.297-1.781
		c1.832-0.281,3.664-0.566,5.492-0.859c4.387-0.723,8.754-1.477,13.094-2.27c1.297-0.238,2.605-0.457,3.898-0.703
		c5.684-1.082,11.332-2.215,16.93-3.43c0.641-0.137,1.262-0.293,1.902-0.434c4.895-1.074,9.758-2.203,14.586-3.387
		c1.504-0.363,3.004-0.75,4.508-1.129c4.082-1.031,8.141-2.102,12.172-3.199c1.477-0.406,2.953-0.813,4.422-1.227
		c4.621-1.305,9.211-2.652,13.766-4.055c0.691-0.211,1.394-0.414,2.09-0.625c5.445-1.699,10.844-3.465,16.188-5.301
		c0.512-0.176,1.016-0.359,1.523-0.535c4.688-1.629,9.336-3.309,13.949-5.035c1.176-0.438,2.34-0.891,3.504-1.332
		c4.129-1.582,8.234-3.203,12.301-4.863c1.047-0.43,2.094-0.848,3.137-1.289c10.266-4.262,20.352-8.793,30.238-13.59
		c0.316-0.156,0.621-0.316,0.941-0.469c4.543-2.223,9.039-4.504,13.504-6.836c0.836-0.438,1.672-0.883,2.504-1.32
		c4.191-2.215,8.34-4.48,12.461-6.797c0.605-0.34,1.211-0.672,1.813-1.012c5.703-3.234,11.32-6.594,16.879-10.012
		c0.016,0.004,0.027,0.012,0.039,0.023c166.984,95.039,380.238,120.441,573.879,40.809
		C1996.238,1663.809,2096.301,1177.246,1884.566,893.906z"/>
	<path style="fill:#FEC982;" d="M1849.25,919.918c-303.336-405.809-920.059-186.957-1007.32,259.629
		c-84.84,434.262,401.246,746.926,798.406,583.59C1952.902,1634.598,2045.793,1182.941,1849.25,919.918z"/>
	<path style="fill:#F78F41;" d="M1320.758,1083.508c32.063-17.199,68.199-27.656,105.063-34.547
		c10.543-98.906,20.816-185.18,22.449-278.621c-92.945-4.465-187.059,18.117-270.594,62.238
		c46.703,81.141,97.719,172.496,148.5,260.297C1324.371,1089.754,1322.566,1086.641,1320.758,1083.508z"/>
	<g>
		<path style="fill:#F78F41;" d="M1498.324,775.426c-12.867,105.219-22.641,189.074-32.078,276.82
			c43.148-2.016,83.441,8.418,114.488,37.035c3.105,2.863,6.023,5.875,8.855,8.953c3.973-3.672,7.922-7.379,11.906-11.043
			c57.074-52.484,114.363-104.777,171.441-157.289C1695.473,840.211,1598.855,791.129,1498.324,775.426z"/>
		<path style="fill:#F78F41;" d="M1803.891,969.504c-35.844,32.953-71.734,65.859-107.633,98.758
			c-26.25,24.055-52.25,48.449-78.203,72.902c10.453,22.051,17.133,46.348,21.211,71.18c3.559,21.695,4.699,44.348,3.492,67.195
			c80.875,5.391,161.797,10.168,242.75,14.227C1894.707,1179.238,1868.738,1062.184,1803.891,969.504z"/>
	</g>
	<path style="fill:#F78F41;" d="M1567.371,1471.953c40.168,63.555,80.469,127.027,120.805,190.473
		c103.891-72.734,169.285-191.668,191.059-318.75c-80.988-4.102-161.938-8.941-242.836-14.383
		C1625.711,1381.996,1602.508,1432.734,1567.371,1471.953z"/>
	<path style="fill:#F78F41;" d="M1060.715,1555.621c67.508-59.547,138.559-114.766,208.672-171.137
		c-14.746,11.859-29.52,23.68-44.305,35.484c-1.316-2.496-2.609-5.016-3.848-7.57c-18.234-37.688-25.258-78.914-23-119.824
		c0.234,0.024,0.473,0.043,0.707,0.066c-100.602-10.207-201.09-21.664-301.43-34.539c-5.23,128.867,46.539,242.305,130.602,327.035
		C1038.859,1575.152,1049.734,1565.305,1060.715,1555.621z"/>
	<path style="fill:#F78F41;" d="M1374.836,1259.086c-56.488-4.918-112.965-10.117-169.398-15.813
		c7.016-29.57,18.688-58.102,34.258-84.012c12.027-20.016,26.648-36.574,43.152-50.348c6.742,11.133,13.551,22.227,20.316,33.348
		c-57.32-94.129-113.773-188.781-168.758-284.313c-113.426,73.633-201.066,189.164-228.68,330.524c-1.313,6.703-2.41,13.363-3.41,20
		c100.379,12.867,200.922,24.484,301.621,34.66C1260.867,1248.887,1317.844,1254.121,1374.836,1259.086z"/>
	<path style="fill:#F78F41;" d="M1252.938,1461.34c-35.098,28.012-70.148,56.094-104.559,84.945
		c-28.082,23.551-56.063,47.625-83.191,72.645c76.379,63.039,172.348,105.293,274.035,119.285
		c8.184-69.27,15.012-138.75,21.887-208.148C1318.406,1518.66,1281.246,1494.793,1252.938,1461.34z"/>
	<path style="fill:#F78F41;" d="M1410.605,1537.41c3.145-31.914,6.289-63.813,9.563-95.66
		c-10.285,100.125-19.309,200.75-31.113,300.977c74.105,3.328,149.98-8.48,222.527-38.324c11.613-4.77,22.859-10.09,33.781-15.848
		c-38.723-60.906-77.418-121.836-115.984-182.832C1494.813,1529.035,1453.09,1539.059,1410.605,1537.41z"/>
	<path style="fill:#F99F43;" d="M1320.758,1083.508c1.809,3.133,3.613,6.246,5.418,9.367c2.418,4.176,4.832,8.352,7.25,12.508
		c2.223,3.84,4.453,7.66,6.676,11.484c2.156,3.703,4.309,7.391,6.469,11.074c2.195,3.762,4.395,7.523,6.59,11.266
		c2.848,4.848,5.688,9.664,8.531,14.473c2.637,4.465,5.27,8.906,7.895,13.336c2.844,4.777,5.68,9.547,8.508,14.281
		c1.801,3.004,3.594,5.984,5.387,8.969c2.738,4.563,5.473,9.09,8.199,13.598c1.59,2.625,3.176,5.25,4.762,7.859
		c4.266,7.016,8.523,13.98,12.754,20.84c0.527-7.707,1.07-15.277,1.637-22.785c0.117-1.617,0.246-3.23,0.359-4.844
		c0.547-7.172,1.102-14.277,1.68-21.285c0.012-0.195,0.027-0.391,0.043-0.586c0.621-7.609,1.262-15.117,1.914-22.547
		c0.078-0.914,0.16-1.82,0.238-2.738c0.613-6.961,1.238-13.859,1.871-20.672c0.035-0.359,0.063-0.727,0.102-1.082
		c0.691-7.434,1.395-14.781,2.102-22.047c0.02-0.203,0.039-0.402,0.063-0.602c0.684-7.016,1.375-13.961,2.074-20.836
		c0.043-0.461,0.09-0.926,0.137-1.387c1.461-14.344,2.934-28.391,4.406-42.191l0,0
		C1388.957,1055.852,1352.82,1066.309,1320.758,1083.508z"/>
	<path style="fill:#F99F43;" d="M1466.137,1053.293c-0.703,6.531-1.406,13.078-2.102,19.668c-0.039,0.352-0.078,0.699-0.113,1.055
		c-0.656,6.164-1.309,12.367-1.961,18.594c-0.102,0.988-0.211,1.984-0.313,2.973c-0.684,6.539-1.371,13.109-2.055,19.746
		c-0.07,0.617-0.129,1.238-0.195,1.855c-0.691,6.707-1.391,13.465-2.09,20.297c-0.016,0.16-0.031,0.313-0.047,0.469
		c-0.75,7.277-1.492,14.637-2.25,22.074c-0.008,0.098-0.02,0.199-0.027,0.297c-1.48,14.652-2.988,29.648-4.516,45.059
		c-0.078,0.789-0.156,1.586-0.234,2.383c-0.746,7.508-1.496,15.102-2.258,22.824c47.441-43.863,94.203-88.496,141.613-132.352l0,0
		c-2.832-3.078-5.75-6.09-8.855-8.953c-31.047-28.617-71.34-39.051-114.488-37.035l0,0
		C1466.207,1052.594,1466.176,1052.945,1466.137,1053.293z"/>
	<path style="fill:#F99F43;" d="M1639.266,1212.344c-4.078-24.832-10.758-49.129-21.211-71.18l0,0
		c-0.234,0.219-0.461,0.438-0.695,0.656c-25.723,24.238-51.418,48.531-77.211,72.707c-2.355,2.203-4.711,4.406-7.07,6.605
		c-16.785,15.703-33.602,31.363-50.543,46.871c27.602,2.168,55.215,4.219,82.828,6.191c25.332,1.813,50.664,3.559,76.004,5.246
		c0.465,0.035,0.926,0.07,1.391,0.098l0,0C1643.965,1256.691,1642.824,1234.039,1639.266,1212.344z"/>
	<path style="fill:#F99F43;" d="M1636.398,1329.289c-26.895-1.809-53.777-3.68-80.66-5.629c-28.57-2.063-57.137-4.211-85.691-6.488
		c16.664,26.676,33.375,53.316,50.125,79.938c13.898,22.09,27.824,44.16,41.762,66.223c1.813,2.875,3.625,5.75,5.438,8.621l0,0
		c35.137-39.219,58.34-89.957,69.027-142.66C1636.398,1329.289,1636.398,1329.289,1636.398,1329.289z"/>
	<path style="fill:#F99F43;" d="M1221.234,1412.398c1.238,2.555,2.531,5.074,3.848,7.57c14.785-11.805,29.559-23.625,44.305-35.484
		c3.957-3.176,7.902-6.367,11.848-9.559c15.719-12.691,31.391-25.426,46.934-38.328c11.297-9.391,22.465-18.91,33.559-28.516
		c-25.379-2.238-50.742-4.57-76.105-6.965c-4.141-0.394-8.281-0.789-12.426-1.184c-24.754-2.363-49.508-4.777-74.254-7.293
		c-0.234-0.023-0.473-0.043-0.707-0.066C1195.977,1333.484,1203,1374.711,1221.234,1412.398z"/>
	<path style="fill:#F99F43;" d="M1239.695,1159.262c-15.57,25.91-27.242,54.441-34.258,84.012
		c56.434,5.695,112.91,10.895,169.398,15.813c-18.234-29.469-36.367-58.996-54.445-88.555c-5.758-9.418-11.488-18.848-17.227-28.27
		c-6.766-11.121-13.574-22.215-20.316-33.348C1266.344,1122.688,1251.723,1139.246,1239.695,1159.262z"/>
	<path style="fill:#F99F43;" d="M1349.23,1383.875c-3.195,2.617-6.41,5.215-9.613,7.824c-6.992,5.699-13.98,11.402-21.004,17.063
		c-4.344,3.508-8.707,7-13.055,10.5c-5.977,4.793-11.949,9.598-17.938,14.383c-7.883,6.305-15.77,12.598-23.656,18.895
		c-3.68,2.93-7.352,5.863-11.027,8.797v0.004c28.309,33.453,65.469,57.32,108.172,68.727l0,0c3.18-32.082,6.363-64.141,9.695-96.156
		c2.609-25.09,5.586-50.156,8.805-75.215C1369.531,1367.148,1359.398,1375.535,1349.23,1383.875z"/>
	<path style="fill:#F99F43;" d="M1529.379,1505.723L1529.379,1505.723c-32.887-52.008-65.684-104.074-98.297-156.238
		c-4.047,30.73-7.754,61.48-10.914,92.266c-3.273,31.848-6.418,63.746-9.563,95.66
		C1453.09,1539.059,1494.813,1529.035,1529.379,1505.723z"/>
	<path style="fill:#F9A343;" d="M1671.965,988.949c102.91-48.695-84.93-209.094-136.918-156.402
		C1476.508,891.867,1606.32,1020.016,1671.965,988.949z"/>
	<path style="fill:#F9A343;" d="M1776.316,1066.617c-55.242,19.414-12.77,140.324,38.254,140.941
		C1894.551,1208.523,1825.379,1049.375,1776.316,1066.617z"/>
</g>
</svg>
