<?xml version="1.0" encoding="iso-8859-1"?>
<!-- Uploaded to: SVG Repo, www.svgrepo.com, Generator: SVG Repo Mixer Tools -->
<svg height="800px" width="800px" version="1.1" id="Layer_1" xmlns="http://www.w3.org/2000/svg" xmlns:xlink="http://www.w3.org/1999/xlink" 
	 viewBox="0 0 512 512" xml:space="preserve">
<path style="fill:#E02E00;" d="M215.427,89.318V503.83c114.557,0,207.257-92.699,207.257-207.257S329.984,89.318,215.427,89.318z"/>
<path style="fill:#FF4719;" d="M215.427,89.318C100.854,89.333,8.17,182.026,8.17,296.573c0,114.558,92.699,207.257,207.257,207.257
	c96.493,0,174.576-92.699,174.576-207.257S311.92,89.318,215.427,89.318z"/>
<path style="fill:#C7E7EB;" d="M215.427,158.403v276.343c76.372,0,138.171-61.799,138.171-138.171
	C353.598,220.201,291.799,158.403,215.427,158.403z"/>
<path style="fill:#E5FAFC;" d="M215.427,158.403c-76.372,0-138.171,61.799-138.171,138.171s61.799,138.171,138.171,138.171
	c61.319,0,110.937-61.799,110.937-138.171S276.746,158.403,215.427,158.403z"/>
<path style="fill:#C20035;" d="M215.427,227.488V365.66c38.185,0,69.085-30.9,69.085-69.085S253.613,227.488,215.427,227.488z"/>
<path style="fill:#FF0F47;" d="M215.427,227.488c-38.186,0-69.085,30.9-69.085,69.085s30.9,69.085,69.085,69.085
	c26.144,0,47.298-30.9,47.298-69.085S241.57,227.488,215.427,227.488z"/>
<polygon style="fill:#367596;" points="457.608,8.171 449.187,62.814 398.226,113.774 406.647,59.132 "/>
<polygon style="fill:#27467A;" points="503.83,54.393 452.804,105.419 398.162,113.839 449.187,62.814 "/>
<path d="M511.118,50.695c-1.598-3.153-5.05-4.925-8.532-4.38l-43.624,6.725l6.725-43.623c0.538-3.491-1.229-6.934-4.38-8.532
	c-3.152-1.598-6.974-0.989-9.472,1.51l-50.638,50.638c-1.228,1.229-2.033,2.816-2.296,4.533l-8.016,51.999l-28.987,28.987
	c-39.931-37.071-91.617-57.403-146.469-57.403c-57.588,0-111.699,22.396-152.365,63.062C22.396,184.876,0,238.986,0,296.574
	s22.396,111.698,63.062,152.365C103.729,489.605,157.84,512,215.427,512c57.588,0,111.699-22.396,152.365-63.062
	c40.666-40.667,63.062-94.778,63.062-152.365c0-45.809-14.157-89.534-40.941-126.449c-2.65-3.654-7.762-4.466-11.411-1.815
	c-3.653,2.65-4.465,7.758-1.815,11.411c24.747,34.108,37.827,74.515,37.827,116.854c0,109.776-89.309,199.085-199.086,199.085
	c-109.776,0-199.086-89.309-199.086-199.085s89.31-199.086,199.086-199.086c50.486,0,98.071,18.634,134.907,52.625l-37.348,37.348
	c-26.856-24.049-61.255-37.227-97.56-37.227c-80.693,0-146.342,65.649-146.342,146.342s65.648,146.342,146.342,146.342
	s146.34-65.649,146.34-146.342c0-26.932-7.364-53.25-21.295-76.109c-2.349-3.853-7.376-5.074-11.229-2.725
	c-3.853,2.348-5.072,7.375-2.724,11.229c12.369,20.297,18.907,43.675,18.907,67.606c0,71.683-58.318,130.001-130,130.001
	c-71.683,0-130.001-58.318-130.001-130.001s58.318-130.001,130.001-130.001c31.948,0,62.236,11.48,85.991,32.455l-37.436,37.436
	c-13.699-11.104-30.656-17.147-48.555-17.147c-42.598,0-77.255,34.657-77.255,77.256s34.657,77.255,77.255,77.255
	c42.6,0,77.255-34.656,77.255-77.255c0-7.59-1.098-15.09-3.263-22.297c-1.298-4.322-5.854-6.775-10.176-5.473
	c-4.322,1.297-6.773,5.853-5.473,10.176c1.706,5.68,2.571,11.598,2.571,17.594c0,33.588-27.327,60.915-60.915,60.915
	s-60.915-27.327-60.915-60.915c0-33.589,27.327-60.916,60.915-60.916c13.526,0,26.363,4.38,36.914,12.446l-42.692,42.692
	c-3.191,3.192-3.191,8.364,0,11.555c1.595,1.595,3.686,2.392,5.777,2.392s4.182-0.797,5.777-2.392l146.562-146.562
	c0.009-0.009,0.017-0.015,0.026-0.024c0.009-0.009,0.015-0.017,0.024-0.026l34.622-34.622l51.997-8.017
	c1.717-0.264,3.304-1.069,4.533-2.296l50.638-50.638C512.106,57.668,512.715,53.846,511.118,50.695z M414.64,62.696l31.093-31.091
	l-4.211,27.32l-31.093,31.091L414.64,62.696z M449.304,97.36l-27.319,4.211l31.093-31.093l27.318-4.211L449.304,97.36z"/>
</svg>