<svg width="192" height="268" viewBox="0 0 192 268" fill="none" xmlns="http://www.w3.org/2000/svg">
<path d="M151.87 258.416L134.936 240.746H117.856V227.936C117.856 225.482 116.972 223.371 115.206 221.604C113.439 219.837 111.328 218.954 108.874 218.954H108.727C106.273 218.954 104.162 219.837 102.395 221.604C101.512 222.488 100.825 223.469 100.334 224.549C99.9411 225.629 99.7448 226.758 99.7448 227.936L98.8613 267.25H151.575L151.87 258.416ZM108.874 224.107C110.052 224.107 111.083 224.549 111.966 225.433C112.85 226.316 113.291 227.347 113.291 228.525C113.291 229.703 112.85 230.733 111.966 231.617C111.083 232.5 110.052 232.942 108.874 232.942C107.696 232.942 106.665 232.5 105.782 231.617C104.898 230.733 104.457 229.703 104.457 228.525C104.457 227.347 104.898 226.316 105.782 225.433C106.665 224.549 107.696 224.107 108.874 224.107Z" fill="#334E63"/>
<path d="M111.966 225.432C111.083 224.549 110.052 224.107 108.874 224.107C107.696 224.107 106.665 224.549 105.782 225.432C104.898 226.316 104.457 227.346 104.457 228.524C104.457 229.702 104.898 230.733 105.782 231.617C106.665 232.5 107.696 232.942 108.874 232.942C110.052 232.942 111.083 232.5 111.966 231.617C112.85 230.733 113.291 229.702 113.291 228.524C113.291 227.346 112.85 226.316 111.966 225.432ZM136.851 198.928C136.851 194.216 134.986 190.192 131.255 186.854C127.623 183.516 123.157 181.848 117.856 181.848C112.653 181.848 108.187 183.516 104.457 186.854C100.726 190.192 98.8613 194.216 98.8613 198.928L100.334 224.549C100.825 223.469 101.512 222.487 102.395 221.604C104.162 219.837 106.273 218.953 108.727 218.953H108.874C111.328 218.953 113.439 219.837 115.206 221.604C116.972 223.371 117.856 225.481 117.856 227.935V240.746H134.936H135.084L136.851 198.928Z" fill="#477CA6"/>
<path d="M39.9546 258.416L56.8878 240.746H73.9683V227.936C73.9683 225.482 74.8517 223.371 76.6187 221.604C78.3856 219.837 80.4961 218.954 82.9502 218.954H83.0975C85.5515 218.954 87.6621 219.837 89.429 221.604C90.3125 222.488 90.9996 223.469 91.4904 224.549C91.8831 225.629 92.0794 226.758 92.0794 227.936L92.9629 267.25H40.2491L39.9546 258.416ZM82.9502 224.107C81.7722 224.107 80.7415 224.549 79.8581 225.433C78.9746 226.316 78.5329 227.347 78.5329 228.525C78.5329 229.703 78.9746 230.733 79.8581 231.617C80.7415 232.5 81.7722 232.942 82.9502 232.942C84.1282 232.942 85.1589 232.5 86.0424 231.617C86.9258 230.733 87.3676 229.703 87.3676 228.525C87.3676 227.347 86.9258 226.316 86.0424 225.433C85.1589 224.549 84.1282 224.107 82.9502 224.107Z" fill="#334E63"/>
<path d="M79.8581 225.432C80.7415 224.549 81.7722 224.107 82.9502 224.107C84.1282 224.107 85.1589 224.549 86.0424 225.432C86.9258 226.316 87.3676 227.346 87.3676 228.524C87.3676 229.702 86.9258 230.733 86.0424 231.617C85.1589 232.5 84.1282 232.942 82.9502 232.942C81.7722 232.942 80.7415 232.5 79.8581 231.617C78.9746 230.733 78.5329 229.702 78.5329 228.524C78.5329 227.346 78.9746 226.316 79.8581 225.432ZM54.9736 198.928C54.9736 194.216 56.8387 190.192 60.5689 186.854C64.201 183.516 68.6674 181.848 73.9683 181.848C79.1709 181.848 83.6374 183.516 87.3676 186.854C91.0978 190.192 92.9629 194.216 92.9629 198.928L91.4904 224.549C90.9996 223.469 90.3125 222.487 89.429 221.604C87.6621 219.837 85.5515 218.953 83.0975 218.953H82.9502C80.4961 218.953 78.3856 219.837 76.6187 221.604C74.8517 223.371 73.9683 225.481 73.9683 227.935V240.746H56.8878H56.7406L54.9736 198.928Z" fill="#477CA6"/>
<path d="M167.031 186.413C164.463 186.413 162.058 185.922 159.816 184.94C161.272 190.456 162.106 196.346 162.319 202.61C162.417 205.751 163.742 208.45 166.294 210.708C168.65 212.868 171.497 213.898 174.835 213.8C178.172 213.702 181.019 212.475 183.375 210.119C185.535 207.665 186.565 204.867 186.467 201.726C186.129 192.791 184.853 184.447 182.639 176.694C181.85 178.51 180.672 180.178 179.105 181.701C175.767 184.842 171.743 186.413 167.031 186.413ZM167.031 153.282C169.058 153.282 170.923 153.577 172.626 154.166C166.918 145.136 159.359 137.332 149.95 130.754C147.202 128.791 144.159 128.054 140.821 128.545C137.483 129.036 134.882 130.558 133.017 133.11C130.956 135.662 130.17 138.558 130.661 141.797C131.25 144.939 132.87 147.491 135.52 149.454C141.599 153.821 146.654 158.876 150.686 164.62C151.477 162.259 152.851 160.1 154.809 158.141C158.245 154.902 162.319 153.282 167.031 153.282ZM163.055 164.031C162.662 164.424 162.319 164.866 162.024 165.357C161.141 166.633 160.699 168.105 160.699 169.774C160.699 172.032 161.484 173.946 163.055 175.516C164.724 177.087 166.736 177.872 169.092 177.872C170.859 177.872 172.43 177.48 173.804 176.694C174.197 176.302 174.589 175.909 174.982 175.516C175.767 174.829 176.356 174.191 176.749 173.602C177.338 172.424 177.632 171.148 177.632 169.774C177.632 167.516 176.749 165.602 174.982 164.031C173.411 162.461 171.448 161.675 169.092 161.675C167.62 161.675 166.344 161.97 165.264 162.559C164.478 162.952 163.742 163.442 163.055 164.031Z" fill="#477CA6"/>
<path d="M182.64 176.695C183.72 174.636 184.26 172.378 184.26 169.922C184.26 165.406 182.542 161.48 179.106 158.142C177.205 156.296 175.045 154.971 172.628 154.167C170.924 153.578 169.059 153.283 167.032 153.283C162.321 153.283 158.247 154.903 154.811 158.142C152.853 160.101 151.478 162.26 150.688 164.621C150.099 166.289 149.805 168.056 149.805 169.922C149.805 174.437 151.473 178.364 154.811 181.702C156.374 183.131 158.043 184.21 159.817 184.941C162.059 185.923 164.464 186.413 167.032 186.413C171.744 186.413 175.769 184.843 179.106 181.702C180.674 180.179 181.852 178.51 182.64 176.695ZM162.026 165.357C162.321 164.866 162.664 164.425 163.057 164.032C163.744 163.443 164.48 162.952 165.265 162.56C166.345 161.971 167.621 161.676 169.094 161.676C171.45 161.676 173.413 162.461 174.984 164.032C176.751 165.603 177.634 167.517 177.634 169.775C177.634 171.149 177.34 172.425 176.751 173.603C176.358 174.192 175.769 174.83 174.984 175.517C174.591 175.91 174.198 176.303 173.806 176.695C172.431 177.481 170.861 177.873 169.094 177.873C166.738 177.873 164.726 177.088 163.057 175.517C161.486 173.947 160.701 172.032 160.701 169.775C160.701 168.106 161.143 166.633 162.026 165.357Z" fill="#334E63"/>
<path d="M24.7955 186.413C27.3634 186.413 29.7685 185.922 32.0105 184.94C30.5541 190.456 29.7198 196.346 29.5073 202.61C29.4092 205.751 28.084 208.45 25.5317 210.708C23.1758 212.868 20.329 213.898 16.9915 213.8C13.6539 213.702 10.8072 212.475 8.45125 210.119C6.29165 207.665 5.26093 204.867 5.3591 201.726C5.6973 192.791 6.97343 184.447 9.18748 176.694C9.97624 178.51 11.1542 180.178 12.7214 181.701C16.0589 184.842 20.0836 186.413 24.7955 186.413ZM24.7955 153.282C22.7686 153.282 20.9034 153.577 19.2002 154.166C24.9082 145.136 32.4668 137.332 41.8759 130.754C44.6245 128.791 47.6676 128.054 51.0051 128.545C54.3427 129.036 56.944 130.558 58.8091 133.11C60.8706 135.662 61.6559 138.558 61.1651 141.797C60.5761 144.939 58.9564 147.491 56.306 149.454C50.2275 153.821 45.1721 158.876 41.1397 164.62C40.3494 162.259 38.9751 160.1 37.0168 158.141C33.5811 154.902 29.5073 153.282 24.7955 153.282ZM28.7711 164.031C29.1638 164.424 29.5073 164.866 29.8018 165.357C30.6853 166.633 31.127 168.105 31.127 169.774C31.127 172.032 30.3417 173.946 28.7711 175.516C27.1023 177.087 25.09 177.872 22.734 177.872C20.9671 177.872 19.3965 177.48 18.0222 176.694C17.6295 176.302 17.2369 175.909 16.8442 175.516C16.0589 174.829 15.4699 174.191 15.0773 173.602C14.4883 172.424 14.1938 171.148 14.1938 169.774C14.1938 167.516 15.0773 165.602 16.8442 164.031C18.4148 162.461 20.3781 161.675 22.734 161.675C24.2065 161.675 25.4826 161.97 26.5624 162.559C27.3477 162.952 28.084 163.442 28.7711 164.031Z" fill="#477CA6"/>
<path d="M9.18579 176.695C8.10599 174.636 7.56609 172.378 7.56609 169.922C7.56609 165.406 9.28395 161.48 12.7197 158.142C14.6216 156.296 16.7812 154.971 19.1985 154.167C20.9018 153.578 22.7669 153.283 24.7938 153.283C29.5056 153.283 33.5794 154.903 37.0151 158.142C38.9734 160.101 40.3477 162.26 41.138 164.621C41.727 166.289 42.0215 168.056 42.0215 169.922C42.0215 174.437 40.3527 178.364 37.0151 181.702C35.4518 183.131 33.783 184.21 32.0088 184.941C29.7668 185.923 27.3618 186.413 24.7938 186.413C20.0819 186.413 16.0572 184.843 12.7197 181.702C11.1525 180.179 9.97455 178.51 9.18579 176.695ZM29.8001 165.357C29.5056 164.866 29.1621 164.425 28.7694 164.032C28.0823 163.443 27.346 162.952 26.5607 162.56C25.4809 161.971 24.2048 161.676 22.7324 161.676C20.3764 161.676 18.4132 162.461 16.8425 164.032C15.0756 165.603 14.1921 167.517 14.1921 169.775C14.1921 171.149 14.4866 172.425 15.0756 173.603C15.4683 174.192 16.0572 174.83 16.8425 175.517C17.2352 175.91 17.6279 176.303 18.0205 176.695C19.3948 177.481 20.9654 177.873 22.7324 177.873C25.0883 177.873 27.1006 177.088 28.7694 175.517C30.34 173.947 31.1253 172.032 31.1253 169.775C31.1253 168.106 30.6836 166.633 29.8001 165.357Z" fill="#334E63"/>
<path d="M57.7756 147.098C61.604 143.368 63.5181 138.852 63.5181 133.552C63.5181 128.251 61.604 123.735 57.7756 120.005C54.0454 116.275 49.5298 114.41 44.229 114.41C38.9282 114.41 34.4617 116.275 30.8297 120.005C27.0995 123.735 25.2344 128.251 25.2344 133.552C25.2344 138.852 27.0995 143.368 30.8297 147.098C34.4617 150.828 38.9282 152.693 44.229 152.693C49.5298 152.693 54.0454 150.828 57.7756 147.098ZM158.05 147.098C161.78 143.368 163.645 138.852 163.645 133.552C163.645 128.251 161.78 123.735 158.05 120.005C154.319 116.275 149.804 114.41 144.503 114.41C139.202 114.41 134.736 116.275 131.104 120.005C127.275 123.735 125.361 128.251 125.361 133.552C125.361 138.852 127.275 143.368 131.104 147.098C134.736 150.828 139.202 152.693 144.503 152.693C149.804 152.693 154.319 150.828 158.05 147.098Z" fill="#334E63"/>
<path d="M133.903 214.537C136.651 210.709 138.124 205.555 138.32 199.076H50.2676C50.4639 205.555 51.9364 210.709 54.6849 214.537H133.903Z" fill="#5393C5"/>
<path d="M118.737 184.351C121.387 180.032 122.712 175.124 122.712 169.627C122.712 161.774 119.964 155.049 114.467 149.454C108.871 143.859 102.147 141.061 94.2939 141.061C86.4408 141.061 79.7166 143.859 74.1213 149.454C68.526 155.049 65.7283 161.774 65.7283 169.627C65.7283 175.124 67.1026 180.032 69.8512 184.351H50.2676V199.076H138.32V184.351H118.737ZM109.166 165.062L104.307 180.523C104.208 180.915 103.963 181.259 103.57 181.553C103.178 181.848 102.736 181.995 102.245 181.995H86.7844C86.3918 181.995 85.9991 181.848 85.6064 181.553C85.1156 181.259 84.8211 180.915 84.723 180.523L79.8639 165.062C79.7657 164.571 79.7657 164.08 79.8639 163.59C80.0602 163.197 80.3547 162.804 80.7474 162.412L93.4104 153.135C93.7049 152.841 94.0976 152.693 94.5884 152.693C94.9811 152.693 95.4228 152.841 95.9136 153.135L108.429 162.412C108.724 162.804 108.969 163.197 109.166 163.59C109.264 164.08 109.264 164.571 109.166 165.062Z" fill="#334E63"/>
<path d="M104.307 180.523L109.166 165.062C109.265 164.572 109.265 164.081 109.166 163.59C108.97 163.197 108.725 162.805 108.43 162.412L95.9144 153.136C95.4236 152.841 94.9818 152.694 94.5892 152.694C94.0983 152.694 93.7057 152.841 93.4112 153.136L80.7481 162.412C80.3555 162.805 80.061 163.197 79.8646 163.59C79.7665 164.081 79.7665 164.572 79.8646 165.062L84.7237 180.523C84.8219 180.916 85.1164 181.259 85.6072 181.554C85.9999 181.848 86.3925 181.996 86.7852 181.996H102.246C102.737 181.996 103.178 181.848 103.571 181.554C103.964 181.259 104.209 180.916 104.307 180.523Z" fill="#FF6699"/>
<path d="M147.891 143.859C150.345 134.043 148.137 128.889 141.265 128.398H125.51C125.51 128.202 125.51 127.957 125.51 127.662C125.608 127.171 125.657 126.681 125.657 126.19C125.657 118.827 122.663 112.496 116.675 107.195C110.491 102.189 103.08 99.6855 94.4412 99.6855C85.8028 99.6855 78.3915 102.189 72.2071 107.195C66.2192 112.496 63.2252 118.827 63.2252 126.19C63.2252 126.681 63.2743 127.171 63.3724 127.662C63.3724 127.957 63.4215 128.202 63.5197 128.398H48.3534C41.1875 128.006 38.6352 133.159 40.6967 143.859L50.2676 184.352H69.8512C67.1026 180.032 65.7284 175.124 65.7284 169.627C65.7284 161.774 68.526 155.05 74.1213 149.454C79.7167 143.859 86.4409 141.061 94.2939 141.061C102.147 141.061 108.871 143.859 114.467 149.454C119.964 155.05 122.712 161.774 122.712 169.627C122.712 175.124 121.387 180.032 118.737 184.352H138.32L147.891 143.859Z" fill="#477CA6"/>
<path d="M170.126 239.568C169.929 239.372 169.782 239.421 169.684 239.716C169.487 240.01 169.34 240.354 169.242 240.746V251.053C169.242 251.348 169.389 251.741 169.684 252.231C169.88 252.33 170.126 252.379 170.42 252.379C175.917 252.281 180.629 250.268 184.556 246.342H184.703C188.826 242.219 190.985 237.212 191.182 231.323C191.28 225.335 189.366 220.279 185.439 216.156L184.997 215.715C184.944 216.806 184.747 217.885 184.408 218.954C183.408 222.682 181.249 225.578 177.93 227.641C178.42 228.715 178.666 229.844 178.666 231.028C178.469 233.286 177.684 235.249 176.31 236.918C176.212 236.918 176.064 236.967 175.868 237.065C174.396 238.636 172.481 239.47 170.126 239.568ZM156.726 206.88C155.912 207.059 155.078 207.255 154.223 207.469C148.726 208.745 144.407 211.935 141.265 217.04C138.321 222.144 137.486 227.543 138.762 233.237C138.762 233.335 138.762 233.433 138.762 233.531C140.235 238.93 143.278 243.102 147.892 246.047C148.186 246.243 148.48 246.342 148.775 246.342C148.971 246.243 149.119 246.047 149.217 245.753L154.959 236.771C155.156 236.574 155.254 236.378 155.254 236.182C155.057 235.789 154.861 235.495 154.665 235.298C152.898 234.12 151.72 232.451 151.131 230.292C151.131 230.194 151.131 230.096 151.131 229.997C150.64 227.838 150.984 225.776 152.162 223.813C153.116 222.271 154.294 221.142 155.696 220.426C154.583 217.205 154.435 213.917 155.254 210.561C155.631 209.27 156.122 208.043 156.726 206.88Z" fill="#BFD4E5"/>
<path d="M183.082 207.321C181.119 203.689 178.125 201.235 174.1 199.959C170.173 198.781 166.296 199.222 162.468 201.284C160 202.751 158.086 204.616 156.725 206.879C156.121 208.043 155.63 209.27 155.253 210.56C154.434 213.916 154.582 217.204 155.694 220.426C155.973 221.066 156.268 221.704 156.578 222.34C158.639 225.972 161.682 228.377 165.707 229.555C169.732 230.635 173.56 230.193 177.192 228.23C177.467 228.071 177.713 227.874 177.928 227.641C181.247 225.577 183.407 222.681 184.407 218.953C184.746 217.885 184.942 216.805 184.996 215.714C185.306 212.858 184.668 210.061 183.082 207.321Z" fill="#5393C5"/>
<path d="M21.7006 239.568C21.897 239.372 22.0442 239.421 22.1424 239.716C22.3387 240.01 22.4859 240.354 22.5841 240.746V251.053C22.5841 251.348 22.4369 251.741 22.1424 252.231C21.946 252.33 21.7006 252.379 21.4061 252.379C15.909 252.281 11.1971 250.268 7.27059 246.342H7.12334C3.00048 242.219 0.840879 237.212 0.644552 231.323C0.546389 225.335 2.46057 220.279 6.38711 216.156L6.82885 215.715C6.88254 216.806 7.07886 217.885 7.41783 218.954C8.41787 222.682 10.5775 225.578 13.8966 227.641C13.4058 228.715 13.1604 229.844 13.1604 231.028C13.3567 233.286 14.142 235.249 15.5163 236.918C15.6145 236.918 15.7617 236.967 15.9581 237.065C17.4305 238.636 19.3447 239.47 21.7006 239.568ZM35.0999 206.88C35.914 207.059 36.7484 207.255 37.6031 207.469C43.1003 208.745 47.4195 211.935 50.5607 217.04C53.5056 222.144 54.34 227.543 53.0639 233.237C53.0639 233.335 53.0639 233.433 53.0639 233.531C51.5914 238.93 48.5483 243.102 43.9347 246.047C43.6402 246.243 43.3457 246.342 43.0512 246.342C42.8549 246.243 42.7076 246.047 42.6095 245.753L36.8669 236.771C36.6706 236.574 36.5724 236.378 36.5724 236.182C36.7687 235.789 36.9651 235.495 37.1614 235.298C38.9283 234.12 40.1063 232.451 40.6953 230.292C40.6953 230.194 40.6953 230.096 40.6953 229.997C41.1861 227.838 40.8425 225.776 39.6645 223.813C38.7101 222.271 37.5322 221.142 36.1307 220.426C37.2434 217.205 37.3907 213.917 36.5724 210.561C36.1947 209.27 35.7039 208.043 35.0999 206.88Z" fill="#BFD4E5"/>
<path d="M8.74427 207.321C10.7075 203.689 13.7015 201.235 17.7262 199.959C21.6528 198.781 25.5302 199.222 29.3586 201.284C31.8261 202.751 33.7403 204.616 35.1012 206.879C35.7051 208.043 36.1959 209.27 36.5736 210.56C37.3919 213.916 37.2447 217.204 36.1319 220.426C35.8527 221.066 35.5583 221.704 35.2484 222.34C33.187 225.972 30.1439 228.377 26.1192 229.555C22.0945 230.635 18.2661 230.193 14.6341 228.23C14.3588 228.071 14.1134 227.874 13.8979 227.641C10.5787 225.577 8.41911 222.681 7.41906 218.953C7.08009 217.885 6.88377 216.805 6.83008 215.714C6.51987 212.858 7.15793 210.061 8.74427 207.321Z" fill="#5393C5"/>
<path d="M139.038 104.102C127.497 96.4451 113.514 92.6167 97.0888 92.6167C80.6641 92.6167 66.5329 96.4451 54.6953 104.102C43.1537 111.955 37.3828 121.33 37.3828 132.226C37.3828 143.122 43.1537 152.398 54.6953 160.055C66.5329 167.908 80.6641 171.835 97.0888 171.835C113.514 171.835 127.497 167.908 139.038 160.055C150.876 152.398 156.795 143.122 156.795 132.226C156.795 121.33 150.876 111.955 139.038 104.102Z" fill="url(#paint0_radial_11_198)"/>
<path d="M136.26 88.0527C146.371 78.04 151.427 65.9168 151.427 51.6831C151.427 37.4494 146.371 25.2771 136.26 15.1663C126.15 5.05542 113.977 0 99.7436 0C85.5099 0 73.3377 5.05542 63.2268 15.1663C53.116 25.2771 48.0605 37.4494 48.0605 51.6831C48.0605 65.9168 53.116 78.04 63.2268 88.0527C73.3377 98.2617 85.5099 103.366 99.7436 103.366C113.977 103.366 126.15 98.2617 136.26 88.0527ZM129.045 51.6831C129.045 59.7325 126.199 66.6039 120.505 72.2974C114.714 78.0891 107.793 80.9849 99.7436 80.9849C91.6942 80.9849 84.8228 78.0891 79.1293 72.2974C73.3377 66.6039 70.4418 59.7325 70.4418 51.6831C70.4418 43.6337 73.3377 36.7622 79.1293 31.0688C84.8228 25.2771 91.6942 22.3813 99.7436 22.3813C107.793 22.3813 114.714 25.2771 120.505 31.0688C126.199 36.7622 129.045 43.6337 129.045 51.6831Z" fill="#BFD4E5"/>
<path d="M120.503 72.2975C126.196 66.604 129.043 59.7326 129.043 51.6832C129.043 43.6337 126.196 36.7623 120.503 31.0688C114.711 25.2772 107.791 22.3813 99.7413 22.3813C91.6919 22.3813 84.8204 25.2772 79.1269 31.0688C73.3353 36.7623 70.4395 43.6337 70.4395 51.6832C70.4395 59.7326 73.3353 66.604 79.1269 72.2975C84.8204 78.0892 91.6919 80.985 99.7413 80.985C107.791 80.985 114.711 78.0892 120.503 72.2975Z" fill="white"/>
<path d="M54.2413 19.2893C52.3762 20.3691 51.1491 21.9888 50.5601 24.1484L44.0813 48.2966C43.4924 50.4562 43.7378 52.5667 44.8176 54.6282C46.0937 56.4933 47.8116 57.7203 49.9712 58.3093H50.1184C52.278 58.8983 54.3394 58.7019 56.3027 57.7203C58.266 56.4442 59.5421 54.7263 60.1311 52.5667L66.4626 28.4185C67.0516 26.2589 66.7571 24.1975 65.5792 22.2342C64.4994 20.2709 62.9287 18.9948 60.8673 18.4058H60.7201C58.5605 17.8168 56.4009 18.1113 54.2413 19.2893Z" fill="#477CA6"/>
<path d="M149.36 24.1484C148.771 21.9888 147.544 20.3691 145.679 19.2893C143.519 18.1113 141.36 17.8168 139.2 18.4058H139.053C136.893 18.9948 135.273 20.2709 134.194 22.2342C133.016 24.1975 132.721 26.2589 133.31 28.4185L139.789 52.5667C140.378 54.7263 141.654 56.4442 143.617 57.7203C145.581 58.7019 147.642 58.8983 149.802 58.3093H149.949C152.01 57.7203 153.679 56.4933 154.955 54.6282C156.035 52.5667 156.28 50.4562 155.691 48.2966L149.36 24.1484Z" fill="#477CA6"/>
<path d="M28.7682 76.5678C24.1545 81.1815 21.8477 86.7277 21.8477 93.2065C21.8477 99.6853 24.1545 105.182 28.7682 109.698C33.48 114.41 39.0263 116.766 45.4069 116.766C51.8857 116.766 57.481 114.41 62.1929 109.698C66.7084 105.182 68.9661 99.6853 68.9661 93.2065C68.9661 86.7277 66.7084 81.1815 62.1929 76.5678C57.481 71.8559 51.8857 69.5 45.4069 69.5C39.0263 69.5 33.48 71.8559 28.7682 76.5678ZM35.5415 103.219C32.7929 100.471 31.4186 97.133 31.4186 93.2065C31.4186 89.3781 32.7929 86.0406 35.5415 83.1938C38.29 80.4452 41.5785 79.0709 45.4069 79.0709C49.4316 79.0709 52.8182 80.4452 55.5668 83.1938C58.3154 86.0406 59.6897 89.3781 59.6897 93.2065C59.6897 97.133 58.3154 100.471 55.5668 103.219C52.8182 106.066 49.4316 107.489 45.4069 107.489C41.5785 107.489 38.29 106.066 35.5415 103.219ZM137.73 76.5678C133.116 81.1815 130.809 86.7277 130.809 93.2065C130.809 99.6853 133.116 105.182 137.73 109.698C142.442 114.41 147.988 116.766 154.368 116.766C160.847 116.766 166.443 114.41 171.154 109.698C175.67 105.182 177.928 99.6853 177.928 93.2065C177.928 86.7277 175.67 81.1815 171.154 76.5678C166.443 71.8559 160.847 69.5 154.368 69.5C147.988 69.5 142.442 71.8559 137.73 76.5678ZM144.503 83.1938C147.252 80.4452 150.54 79.0709 154.368 79.0709C158.295 79.0709 161.682 80.4452 164.528 83.1938C167.277 86.0406 168.651 89.3781 168.651 93.2065C168.651 97.133 167.277 100.471 164.528 103.219C161.682 106.066 158.295 107.489 154.368 107.489C150.54 107.489 147.252 106.066 144.503 103.219C141.656 100.471 140.233 97.133 140.233 93.2065C140.233 89.3781 141.656 86.0406 144.503 83.1938Z" fill="#5393C5"/>
<path d="M31.4199 93.2063C31.4199 97.1329 32.7942 100.47 35.5428 103.219C38.2914 106.066 41.5798 107.489 45.4082 107.489C49.4329 107.489 52.8196 106.066 55.5681 103.219C58.3167 100.47 59.691 97.1329 59.691 93.2063C59.691 89.378 58.3167 86.0404 55.5681 83.1937C52.8196 80.4451 49.4329 79.0708 45.4082 79.0708C41.5798 79.0708 38.2914 80.4451 35.5428 83.1937C32.7942 86.0404 31.4199 89.378 31.4199 93.2063ZM154.37 79.0708C150.541 79.0708 147.253 80.4451 144.504 83.1937C141.658 86.0404 140.234 89.378 140.234 93.2063C140.234 97.1329 141.658 100.47 144.504 103.219C147.253 106.066 150.541 107.489 154.37 107.489C158.296 107.489 161.683 106.066 164.53 103.219C167.278 100.47 168.653 97.1329 168.653 93.2063C168.653 89.378 167.278 86.0404 164.53 83.1937C161.683 80.4451 158.296 79.0708 154.37 79.0708Z" fill="#477CA6"/>
<path d="M47.7659 132.52H71.3251C71.227 113.28 62.0978 100.813 43.9375 95.1199L47.7659 132.52ZM135.819 132.52C146.322 131.146 152.31 125.551 153.782 115.734L156.433 89.9663C138.665 99.0955 129.438 113.28 128.751 132.52H135.819Z" fill="#334E63"/>
<path d="M156.431 89.9667L161.584 40.1978H38.3398L43.9352 95.1202C62.0954 100.814 71.2246 113.28 71.3228 132.521H128.748C129.436 113.28 138.663 99.0959 156.431 89.9667Z" fill="#5393C5"/>
<path d="M117.411 95.4152C122.025 90.8016 124.331 85.2553 124.331 78.7765C124.331 72.1996 122.025 66.6533 117.411 62.1378C112.797 57.5241 107.251 55.2173 100.772 55.2173C94.1952 55.2173 88.6489 57.5241 84.1334 62.1378C79.5197 66.6533 77.2129 72.1996 77.2129 78.7765C77.2129 85.2553 79.5197 90.8016 84.1334 95.4152C88.6489 100.029 94.1952 102.336 100.772 102.336C107.251 102.336 112.797 100.029 117.411 95.4152ZM116.527 78.7765C116.527 83.0957 114.957 86.7769 111.816 89.8199C108.772 92.9612 105.091 94.5318 100.772 94.5318C96.3548 94.5318 92.5755 92.9612 89.4342 89.8199C86.3912 86.7769 84.8696 83.0957 84.8696 78.7765C84.8696 74.3592 86.3912 70.5799 89.4342 67.4386C92.5755 64.4937 96.3548 63.0213 100.772 63.0213C105.091 63.0213 108.772 64.4937 111.816 67.4386C114.957 70.5799 116.527 74.3592 116.527 78.7765Z" fill="#477CA6"/>
<path d="M111.815 89.8196C114.956 86.7766 116.527 83.0954 116.527 78.7762C116.527 74.3589 114.956 70.5796 111.815 67.4384C108.772 64.4934 105.091 63.021 100.772 63.021C96.3543 63.021 92.575 64.4934 89.4337 67.4384C86.3907 70.5796 84.8691 74.3589 84.8691 78.7762C84.8691 83.0954 86.3907 86.7766 89.4337 89.8196C92.575 92.9609 96.3543 94.5315 100.772 94.5315C105.091 94.5315 108.772 92.9609 111.815 89.8196ZM109.901 78.7762C109.901 80.5432 109.263 82.0156 107.987 83.1936C106.907 84.4697 105.483 85.1078 103.717 85.1078C101.95 85.1078 100.428 84.4697 99.1519 83.1936C97.974 82.0156 97.385 80.5432 97.385 78.7762C97.385 77.0093 97.974 75.4878 99.1519 74.2116C100.428 73.0337 101.95 72.4447 103.717 72.4447C105.483 72.4447 106.907 73.0337 107.987 74.2116C109.263 75.4878 109.901 77.0093 109.901 78.7762Z" fill="#FFCC00"/>
<path d="M107.986 83.1942C109.263 82.0163 109.901 80.5438 109.901 78.7769C109.901 77.0099 109.263 75.4884 107.986 74.2123C106.907 73.0343 105.483 72.4453 103.716 72.4453C101.949 72.4453 100.428 73.0343 99.1517 74.2123C97.9737 75.4884 97.3848 77.0099 97.3848 78.7769C97.3848 80.5438 97.9737 82.0163 99.1517 83.1942C100.428 84.4703 101.949 85.1084 103.716 85.1084C105.483 85.1084 106.907 84.4703 107.986 83.1942Z" fill="white"/>
<path d="M115.939 112.348C115.939 111.759 115.89 111.219 115.792 110.729C115.104 110.532 114.368 110.434 113.583 110.434H85.7536C85.0665 110.434 84.3793 110.532 83.6922 110.729C83.594 111.219 83.5449 111.759 83.5449 112.348V112.496C83.5449 114.361 84.1339 115.931 85.3119 117.207C86.6862 118.582 88.3059 119.269 90.171 119.269H109.166C111.031 119.269 112.601 118.582 113.877 117.207C115.252 115.931 115.939 114.361 115.939 112.496V112.348Z" fill="#BFD4E5"/>
<path d="M122.27 119.122C122.27 116.766 121.386 114.705 119.62 112.938C118.442 111.76 117.165 111.023 115.791 110.729C115.889 111.22 115.938 111.76 115.938 112.349V112.496C115.938 114.361 115.251 115.932 113.877 117.208C112.601 118.582 111.03 119.269 109.165 119.269H90.1705C88.3054 119.269 86.6857 118.582 85.3114 117.208C84.1334 115.932 83.5444 114.361 83.5444 112.496V112.349C83.5444 111.76 83.5935 111.22 83.6917 110.729C82.2192 111.023 80.894 111.76 79.7161 112.938C78.0473 114.705 77.2129 116.766 77.2129 119.122C77.2129 121.478 78.0473 123.49 79.7161 125.159C81.483 126.926 83.4954 127.809 85.7531 127.809H113.582C115.938 127.809 117.951 126.926 119.62 125.159C121.386 123.49 122.27 121.478 122.27 119.122Z" fill="#334E63"/>
<path d="M145.976 85.6972C147.743 84.0284 148.627 82.0161 148.627 79.6601C148.627 77.3042 147.743 75.2428 145.976 73.4758C144.308 71.807 142.295 70.9727 139.939 70.9727C137.584 70.9727 135.522 71.807 133.755 73.4758C132.086 75.2428 131.252 77.3042 131.252 79.6601C131.252 82.0161 132.086 84.0284 133.755 85.6972C135.522 87.366 137.584 88.2004 139.939 88.2004C142.295 88.2004 144.308 87.366 145.976 85.6972Z" fill="#477CA6"/>
<path d="M67.3449 85.6972C69.1118 84.0284 69.9953 82.0161 69.9953 79.6601C69.9953 77.3042 69.1118 75.2428 67.3449 73.4758C65.6761 71.807 63.7128 70.9727 61.455 70.9727C59.0991 70.9727 57.0377 71.807 55.2707 73.4758C53.602 75.2428 52.7676 77.3042 52.7676 79.6601C52.7676 82.0161 53.602 84.0284 55.2707 85.6972C57.0377 87.366 59.0991 88.2004 61.455 88.2004C63.7128 88.2004 65.6761 87.366 67.3449 85.6972Z" fill="#477CA6"/>
<defs>
<radialGradient id="paint0_radial_11_198" cx="0" cy="0" r="1" gradientUnits="userSpaceOnUse" gradientTransform="translate(97.0888 132.226) scale(60.3164 40.0139)">
<stop stop-opacity="0.301961"/>
<stop offset="1" stop-opacity="0"/>
</radialGradient>
</defs>
</svg>
