<svg xmlns="http://www.w3.org/2000/svg" viewBox="0 0 48 48" id="store"><g><polygon fill="#ffe6a2" points="44.55 4.09 44.55 43.88 3.45 43.88 3.45 4.1 44.55 4.09"></polygon><rect width="9.72" height="19.01" x="30.81" y="24.87" fill="#ffb044"></rect><rect width="17.491" height="10.735" x="8.526" y="24.874" fill="#ffb044"></rect><rect width="41.126" height="3.336" x="3.425" y=".75" fill="#ffc261"></rect><rect width="46.5" height="3.37" x=".75" y="43.881" fill="#ffc261"></rect><rect width="27.36" height="2.16" x="3.45" y="41.72" fill="#ffd486"></rect><rect width="4.02" height="2.16" x="40.53" y="41.72" fill="#ffd486"></rect><rect width="9.72" height="2.16" x="30.81" y="41.72" fill="#ffa844"></rect><path fill="#ffd486" d="M44.55,6.02V20.75a4.449,4.449,0,0,1-1.42.38,4.562,4.562,0,0,1-4.96-3.81L38.11,17h-.08a4.664,4.664,0,0,1-9.32.15V17h-.04a4.666,4.666,0,0,1-9.33,0H19.3l-.01.15A4.664,4.664,0,0,1,9.97,17H9.89l-.06.32a4.562,4.562,0,0,1-4.96,3.81,4.449,4.449,0,0,1-1.42-.38V6.02Z"></path><path fill="#ee6148" d="M37.22 17.59a4.667 4.667 0 0 1-8.51-2.38l-.6-11.12h8.22l1.65 10.12A4.6 4.6 0 0 1 37.22 17.59zM11.67 4.09L9.83 15.38a4.584 4.584 0 0 1-4.5 3.84 3.54 3.54 0 0 1-.46-.02A4.576 4.576 0 0 1 .91 13.45L3.45 4.09z"></path><path fill="#ee6148" d="M19.89 4.09l-.6 11.12a4.685 4.685 0 0 1-4.66 4.41 4.665 4.665 0 0 1-4.67-4.65 4.866 4.866 0 0 1 .06-.76L11.67 4.09zM28.69 14.95a4.688 4.688 0 1 1-9.37-.27l.57-10.59h8.22l.57 10.59C28.68 14.77 28.69 14.86 28.69 14.95zM46.47 17.2a4.567 4.567 0 0 1-3.34 2 3.54 3.54 0 0 1-.46.02 4.56 4.56 0 0 1-4.5-3.84L36.33 4.09h8.22l2.54 9.36A4.571 4.571 0 0 1 46.47 17.2z"></path><path fill="#ff6e56" d="M37.22 17.59a4.671 4.671 0 0 1-6.49-4.05l-.51-9.45h6.11l1.65 10.12A4.6 4.6 0 0 1 37.22 17.59zM11.67 4.09L9.83 15.38a4.505 4.505 0 0 1-.71 1.8 4.431 4.431 0 0 1-1.78.37 3.54 3.54 0 0 1-.46-.02 4.565 4.565 0 0 1-3.95-5.74l2.09-7.7zM19.89 4.09l-.6 11.12a4.61 4.61 0 0 1-.81 2.37 4.475 4.475 0 0 1-1.83.38 4.673 4.673 0 0 1-4.67-4.66 4.866 4.866 0 0 1 .06-.76l1.38-8.45zM28.69 14.95a4.674 4.674 0 0 1-.81 2.63 4.792 4.792 0 0 1-1.86.38 4.7 4.7 0 0 1-4.69-4.95l.49-8.92h6.29l.57 10.59C28.68 14.77 28.69 14.86 28.69 14.95zM46.47 17.2a4.735 4.735 0 0 1-1.32.33 3.54 3.54 0 0 1-.46.02 4.571 4.571 0 0 1-4.51-3.84L38.62 4.09h5.93l2.54 9.36A4.571 4.571 0 0 1 46.47 17.2z"></path></g><g><path d="M8.526 24.124a.75.75 0 0 0-.75.75V35.608a.75.75 0 0 0 .75.75H26.017a.75.75 0 0 0 .75-.75V24.874a.75.75 0 0 0-.75-.75zM25.267 34.858H9.276V25.624H25.267zM4.793 19.943a5.282 5.282 0 0 0 5.032-2.487 5.392 5.392 0 0 0 9.47.205 5.565 5.565 0 0 0 .755 1.014 5.441 5.441 0 0 0 7.9 0 5.565 5.565 0 0 0 .755-1.014 5.4 5.4 0 0 0 9.47-.206 5.312 5.312 0 0 0 9.638-4.2L45.3 3.985V.75a.75.75 0 0 0-.75-.75H3.425a.75.75 0 0 0-.75.75V4.072L.187 13.258a5.319 5.319 0 0 0 4.606 6.685zm9.835-1.069a3.914 3.914 0 0 1-3.864-4.543l1.543-9.495H19.1l-.531 9.8h0l-.029.531A3.917 3.917 0 0 1 14.628 18.874zm12.233-1.23a3.941 3.941 0 0 1-6.8-2.924l.031-.577.5-9.307h6.8l.5 9.307.031.577A3.905 3.905 0 0 1 26.861 17.644zm9.493-.148a3.916 3.916 0 0 1-6.892-2.326l-.029-.531h0l-.531-9.8h6.791l1.543 9.495A3.908 3.908 0 0 1 36.354 17.5zm9.469-.679a3.82 3.82 0 0 1-6.916-1.555L37.212 4.836h6.766l2.387 8.814A3.813 3.813 0 0 1 45.823 16.817zM4.175 1.5H43.8V3.336H4.175zM1.635 13.65L4.022 4.836h6.766L9.743 11.264l-.46 2.826h0l-.19 1.171A3.82 3.82 0 1 1 1.635 13.65z"></path><path d="M47.25,43.13H45.3V21.609a.75.75,0,1,0-1.5,0V43.13H41.285V24.874a.75.75,0,0,0-.75-.75H30.814a.75.75,0,0,0-.75.75V43.13H4.2V21.617a.75.75,0,0,0-1.5,0V43.13H.75a.75.75,0,0,0-.75.75v3.37A.75.75,0,0,0,.75,48h46.5a.75.75,0,0,0,.75-.75V43.88A.75.75,0,0,0,47.25,43.13ZM31.564,25.624h8.221V43.13H31.564ZM46.5,46.5H1.5V44.63h45Z"></path></g></svg>