<svg width="188" height="301" viewBox="0 0 188 301" fill="none" xmlns="http://www.w3.org/2000/svg">
<path d="M150.461 36.3673C134.088 23.5629 114.304 17.1606 91.1095 17.1606C68.0196 17.1606 48.1832 23.5629 31.6004 36.3673C25.1982 41.4051 20.0554 46.8627 16.1721 52.7402C13.5483 60.4019 12.2363 68.5883 12.2363 77.2995C12.2363 77.5094 12.2363 77.6668 12.2363 77.7718C12.2363 78.2966 12.2363 78.7689 12.2363 79.1887C12.3413 84.7513 12.7086 90.1564 13.3383 95.4041L15.8573 133.66C15.8573 134.919 15.9097 136.179 16.0147 137.438C16.6444 145.1 18.3762 152.289 21.2099 159.006C24.7784 167.823 30.236 175.904 37.5828 183.251C52.1715 197.945 69.8563 205.291 90.6372 205.291C111.313 205.291 128.946 197.945 143.534 183.251C151.406 175.484 157.178 167.245 160.852 158.534C162.216 155.281 163.266 151.975 164 148.616C168.094 131.089 169.93 113.876 169.51 96.9784C169.405 93.8298 169.458 90.7861 169.668 87.8474C169.668 87.3226 169.72 86.7454 169.825 86.1157C169.93 83.3869 169.983 80.6056 169.983 77.7718C169.983 77.6668 169.983 77.5094 169.983 77.2995C169.983 68.5883 168.671 60.4019 166.047 52.7402C162.059 46.8627 156.863 41.4051 150.461 36.3673Z" fill="#BF7958"/>
<path d="M91.1093 17.16C114.304 17.16 134.088 23.5623 150.461 36.3667C156.863 41.4045 162.058 46.8621 166.047 52.7396C162.268 41.6144 155.866 31.5913 146.84 22.6701C131.412 7.5567 112.835 0 91.1093 0C69.3837 0 50.7543 7.5567 35.2211 22.6701C26.195 31.6962 19.8453 41.7194 16.1719 52.7396C20.0552 46.8621 25.1979 41.4045 31.6002 36.3667C48.183 23.5623 68.0193 17.16 91.1093 17.16Z" fill="#DB855C"/>
<path d="M66.1786 205.524C67.4401 209.605 69.0355 213.056 70.9649 215.876C75.269 222.11 78.7197 226.897 81.317 230.237C83.9143 233.428 83.7658 236.767 80.8714 240.255C77.977 243.595 74.3406 245.45 69.9621 245.821C65.6578 246.117 61.836 244.893 58.4965 242.147C49.814 235.096 43.061 226.636 38.2376 216.766L66.1786 205.524Z" fill="#FFD7B1"/>
<path d="M38.2395 216.765C35.1228 210.532 32.7854 203.741 31.2272 196.394C29.1495 186.598 28.4449 175.8 29.1132 164.001C29.4844 159.622 31.2656 155.986 34.4568 153.092C37.7964 150.049 41.6183 148.602 45.9226 148.751C50.3011 148.825 53.9374 150.458 56.8315 153.649C59.7257 156.84 61.0614 160.625 60.8386 165.004C60.3189 172.796 60.7268 180.031 62.0624 186.711C62.9527 193.983 64.3254 200.254 66.1805 205.523L38.2395 216.765Z" fill="#79ADCB"/>
<path d="M66.9596 197.397L71.6346 207.861L37.5709 223.222L31.3375 211.867L66.9596 197.397Z" fill="#5A93B4"/>
<path d="M122.495 205.524C121.234 209.605 119.638 213.056 117.709 215.876C113.405 222.11 109.954 226.897 107.357 230.237C104.76 233.428 104.908 236.767 107.802 240.255C110.697 243.595 114.333 245.45 118.712 245.821C123.016 246.117 126.838 244.893 130.177 242.147C138.86 235.096 145.613 226.636 150.436 216.766L122.495 205.524Z" fill="#FFD7B1"/>
<path d="M150.434 216.765C153.551 210.532 155.888 203.741 157.447 196.394C159.524 186.598 160.229 175.8 159.561 164.001C159.189 159.622 157.408 155.986 154.217 153.092C150.877 150.049 147.055 148.602 142.751 148.751C138.373 148.825 134.736 150.458 131.842 153.649C128.948 156.84 127.612 160.625 127.835 165.004C128.355 172.796 127.947 180.031 126.611 186.711C125.721 193.983 124.348 200.254 122.493 205.523L150.434 216.765Z" fill="#79ADCB"/>
<path d="M121.714 197.398L117.039 207.862L151.103 223.222L157.336 211.868L121.714 197.398Z" fill="#5A93B4"/>
<path d="M136.924 272.513L137.396 256.77H107.799V272.513H136.766H136.924Z" fill="#FFD7B1"/>
<path d="M154.556 300.85L154.871 291.404C144.69 288.571 138.655 282.273 136.766 272.513H107.799V300.85H154.556Z" fill="#BF7958"/>
<path d="M138.811 227.802C138.811 222.764 136.817 218.461 132.828 214.893C128.945 211.324 124.17 209.54 118.502 209.54C112.939 209.54 108.164 211.324 104.176 214.893C100.187 218.461 98.1934 222.764 98.1934 227.802C104.386 232.84 107.587 242.496 107.797 256.77H137.394L138.811 227.802Z" fill="#EEA160"/>
<path d="M53.1662 272.513L52.6939 256.77H82.291V272.513H53.3236H53.1662Z" fill="#FFD7B1"/>
<path d="M35.5338 300.85L35.219 291.404C45.3996 288.571 51.4344 282.273 53.3236 272.513H82.291V300.85H35.5338Z" fill="#BF7958"/>
<path d="M51.2792 227.802C51.2792 222.764 53.2733 218.461 57.2615 214.893C61.1449 211.324 65.9203 209.54 71.5878 209.54C77.1504 209.54 81.9258 211.324 85.9141 214.893C89.9024 218.461 91.8965 222.764 91.8965 227.802C85.7042 232.84 82.5031 242.496 82.2932 256.77H52.696L51.2792 227.802Z" fill="#EEA160"/>
<path d="M46.2383 189.546L46.868 192.065C50.3315 203.295 51.9583 215.942 51.7484 230.006C65.3925 215.208 63.5558 201.721 46.2383 189.546ZM140.225 192.065L140.855 189.546C123.537 201.721 121.7 215.208 135.345 230.006C135.135 215.942 136.761 203.295 140.225 192.065Z" fill="#5A93B4"/>
<path d="M133.455 244.49C134.819 239.452 135.449 234.625 135.344 230.007H51.7476C51.6426 234.625 52.2723 239.452 53.6368 244.49H133.455Z" fill="#EEA160"/>
<path d="M140.856 189.546L140.226 192.065C142.85 183.669 146.418 176.165 150.931 169.553C153.03 159.057 150.879 153.6 144.476 153.18C143.952 153.18 143.427 153.18 142.902 153.18H44.1926C36.5309 152.76 33.8021 158.218 36.0062 169.553C40.6242 176.165 44.2451 183.669 46.8689 192.065L46.2392 189.546C63.5567 201.721 65.3934 215.208 51.7493 230.006H135.345C121.701 215.208 123.538 201.721 140.856 189.546ZM124.955 190.806C124.955 192.485 121.911 193.85 115.824 194.899C109.632 196.263 102.18 196.946 93.4687 196.946C84.8624 196.946 77.4631 196.263 71.2708 194.899C65.1835 193.85 62.1398 192.485 62.1398 190.806C62.1398 189.022 65.1835 187.447 71.2708 186.083C77.4631 185.033 84.8624 184.509 93.4687 184.509C102.18 184.509 109.632 185.033 115.824 186.083C121.911 187.447 124.955 189.022 124.955 190.806Z" fill="#79ADCB"/>
<path d="M115.825 194.899C121.912 193.849 124.956 192.485 124.956 190.806C124.956 189.021 121.912 187.447 115.825 186.083C109.632 185.033 102.181 184.508 93.4695 184.508C84.8632 184.508 77.464 185.033 71.2717 186.083C65.1843 187.447 62.1406 189.021 62.1406 190.806C62.1406 192.485 65.1843 193.849 71.2717 194.899C77.464 196.263 84.8632 196.945 93.4695 196.945C102.181 196.945 109.632 196.263 115.825 194.899Z" fill="#69A1C2"/>
<path d="M139.125 235.044V219.301H50.9629V235.044H139.125Z" fill="#BF7958"/>
<path d="M135.346 259.446H135.503C137.602 259.446 139.334 258.711 140.698 257.242C142.063 255.668 142.535 253.831 142.115 251.732L139.281 234.257H123.381L126.215 251.732C126.634 253.831 127.684 255.668 129.363 257.242C131.147 258.711 133.142 259.446 135.346 259.446Z" fill="#BF7958"/>
<path d="M126.529 150.031C126.529 142.159 123.328 135.39 116.926 129.722C110.419 124.37 102.6 121.693 93.4688 121.693C84.3378 121.693 76.5187 124.37 70.0115 129.722C63.6093 135.39 60.4082 142.159 60.4082 150.031C60.4082 150.556 60.4607 151.081 60.5656 151.605C60.8805 158.742 64.0291 164.83 70.0115 169.867C76.5187 175.535 84.3378 178.369 93.4688 178.369C102.6 178.369 110.419 175.535 116.926 169.867C122.909 164.83 126.057 158.742 126.372 151.605C126.477 151.081 126.529 150.556 126.529 150.031Z" fill="#F0C49A"/>
<path d="M57.5774 140.585L44.668 152.393C64.5043 184.404 89.6409 210.905 120.078 231.896L132.83 220.246C105.017 200.304 79.9326 173.751 57.5774 140.585Z" fill="#BF7958"/>
<path d="M141.157 126.416C128.817 118.23 113.866 114.137 96.3051 114.137C78.7442 114.137 63.6355 118.23 50.9789 126.416C38.6388 134.813 32.4688 144.836 32.4688 156.486C32.4688 168.136 38.6388 178.054 50.9789 186.24C63.6355 194.637 78.7442 198.835 96.3051 198.835C113.866 198.835 128.817 194.637 141.157 186.24C153.813 178.054 160.142 168.136 160.142 156.486C160.142 144.836 153.813 134.813 141.157 126.416Z" fill="url(#paint0_radial_11_101)"/>
<path d="M132.956 112.095C138.326 116.664 144.461 118.633 151.359 118.004C158.257 117.375 163.934 114.328 168.389 108.862C172.843 103.397 174.751 97.1633 174.112 90.1605C173.474 83.1576 170.469 77.3718 165.099 72.8029C159.729 68.2341 153.595 66.2644 146.696 66.8937C139.798 67.523 134.121 70.5702 129.667 76.0354C125.212 81.5005 123.304 87.7345 123.943 94.7374C124.582 101.74 127.586 107.526 132.956 112.095ZM137.38 82.6036C140.03 79.3056 143.445 77.4658 147.626 77.0844C151.807 76.703 155.551 77.8896 158.859 80.6442C161.967 83.5223 163.707 86.9995 164.078 91.0758C164.469 95.3612 163.387 99.0959 160.832 102.28C158.078 105.587 154.61 107.432 150.429 107.813C146.248 108.195 142.556 107.003 139.353 104.239C136.16 101.58 134.368 98.1073 133.977 93.822C133.605 89.7457 134.739 86.0062 137.38 82.6036Z" fill="#FFD7B1"/>
<path d="M147.627 77.0845C143.446 77.4659 140.031 79.3056 137.381 82.6037C134.74 86.0063 133.606 89.7457 133.978 93.822C134.369 98.1073 136.161 101.58 139.355 104.239C142.558 107.003 146.25 108.195 150.43 107.813C154.611 107.432 158.079 105.588 160.834 102.28C163.389 99.0959 164.471 95.3612 164.08 91.0759C163.708 86.9996 161.968 83.5224 158.86 80.6442C155.552 77.8896 151.808 76.703 147.627 77.0845Z" fill="#E7B687"/>
<path d="M7.9251 105.321C8.56396 112.324 11.5685 118.11 16.9386 122.678C22.3088 127.247 28.443 129.217 35.3413 128.588C42.1352 127.968 47.8117 124.921 52.371 119.446C56.8258 113.981 58.7337 107.747 58.0949 100.744C57.456 93.7411 54.4515 87.9553 49.0814 83.3864C43.6067 78.8271 37.4725 76.8574 30.6786 77.4772C23.7803 78.1065 18.1037 81.1537 13.649 86.6189C9.1942 92.084 7.28625 98.318 7.9251 105.321ZM18.1158 104.391C17.744 100.315 18.826 96.5802 21.362 93.1871C24.0121 89.8891 27.4275 88.0493 31.6083 87.6679C35.8937 87.277 39.5856 88.4683 42.6842 91.242C45.8968 94.1106 47.689 97.583 48.0609 101.659C48.4519 105.945 47.3175 109.684 44.658 112.878C42.1124 116.166 38.697 118.006 34.4117 118.397C30.2308 118.778 26.5389 117.587 23.3358 114.823C20.2468 112.154 18.5068 108.677 18.1158 104.391Z" fill="#FFD7B1"/>
<path d="M21.3588 93.1878C18.8228 96.5809 17.7407 100.316 18.1126 104.392C18.5036 108.677 20.2435 112.154 23.3326 114.824C26.5357 117.588 30.2276 118.779 34.4084 118.398C38.6938 118.007 42.1092 116.167 44.6547 112.878C47.3143 109.685 48.4486 105.945 48.0577 101.66C47.6858 97.5837 45.8936 94.1113 42.6809 91.2426C39.5824 88.469 35.8904 87.2776 31.6051 87.6686C27.4243 88.05 24.0088 89.8897 21.3588 93.1878Z" fill="#E7B687"/>
<path d="M151.528 116.408L152.247 44.5715L21.0215 56.543L34.7269 127.063C40.4329 142.246 52.3374 152.015 70.4404 156.371C79.4016 158.715 88.0535 159.401 96.3961 158.429C104.881 157.866 113.318 155.621 121.708 151.694C138.724 144.134 148.664 132.372 151.528 116.408Z" fill="#FFD7B1"/>
<path d="M100.234 117.292C102.296 115.629 103.236 113.804 103.055 111.818C102.883 109.937 101.628 108.313 99.2904 106.945C97.0761 105.777 94.4534 105.331 91.4223 105.608C88.6002 105.865 86.206 106.769 84.2395 108.318C82.2921 110.077 81.4043 111.896 81.5759 113.778C81.7571 115.764 82.9596 117.393 85.1835 118.666C87.4169 120.043 89.9447 120.602 92.7667 120.345C95.7978 120.068 98.2871 119.051 100.234 117.292Z" fill="#E7B687"/>
<path d="M52.0922 107.773C52.0541 107.355 52.0207 106.989 51.9921 106.675C51.6488 102.913 52.56 99.615 54.7256 96.7827C56.5208 94.5111 58.8103 93.0375 61.5942 92.362L43.5645 94.0068C48.2594 96.951 51.102 101.54 52.0922 107.773ZM73.559 112.612C74.8316 110.388 75.3249 107.708 75.0388 104.573C74.7528 101.437 73.778 98.8386 72.1145 96.7772C70.4509 94.7157 68.5217 93.7851 66.3268 93.9854C64.3409 94.1665 62.7164 95.4213 61.4534 97.7498C60.1903 100.078 59.7018 102.81 59.9879 105.946C60.274 109.081 61.244 111.628 62.898 113.585C64.571 115.751 66.4005 116.743 68.3864 116.562C70.5813 116.362 72.3055 115.045 73.559 112.612Z" fill="#BF7958"/>
<path d="M62.8377 92.0906C62.4196 92.1287 62.0063 92.2191 61.5978 92.3618C58.8139 93.0373 56.5243 94.5109 54.7291 96.7824C52.5636 99.6148 51.6524 102.912 51.9957 106.675C52.0243 106.989 52.0576 107.354 52.0958 107.772C52.5909 110.889 54.0455 113.549 56.4598 115.753C59.2257 118.346 62.4901 119.471 66.2528 119.128C69.702 118.813 72.4998 117.135 74.6463 114.094C76.9164 111.252 77.8846 108.002 77.5509 104.344C77.2076 100.581 75.6626 97.5075 72.9157 95.1233C70.2733 92.7296 67.2276 91.6901 63.7784 92.0048C63.4649 92.0334 63.1513 92.062 62.8377 92.0906ZM75.0424 104.573C75.3285 107.708 74.8352 110.388 73.5626 112.612C72.3091 115.045 70.5849 116.361 68.39 116.562C66.4041 116.743 64.5746 115.75 62.9015 113.584C61.2476 111.627 60.2775 109.081 59.9915 105.946C59.7054 102.81 60.1939 100.078 61.457 97.7495C62.72 95.4211 64.3445 94.1663 66.3304 93.9851C68.5253 93.7849 70.4545 94.7155 72.118 96.7769C73.7816 98.8384 74.7563 101.437 75.0424 104.573Z" fill="white"/>
<path d="M130.858 99.4802C130.887 99.7937 130.92 100.16 130.958 100.578C130.804 94.2683 132.717 89.2458 136.698 85.5102L118.825 87.1407C121.685 87.3014 124.203 88.3363 126.38 90.2455C129.022 92.6392 130.515 95.7175 130.858 99.4802ZM107.811 101.583C108.097 104.718 109.068 107.265 110.722 109.221C112.395 111.387 114.276 112.375 116.367 112.184C118.457 111.994 120.129 110.682 121.383 108.249C122.655 106.025 123.148 103.345 122.862 100.21C122.576 97.074 121.602 94.4755 119.938 92.4141C118.274 90.3526 116.398 89.4173 114.307 89.608C112.217 89.7987 110.54 91.0582 109.277 93.3866C108.014 95.7151 107.525 98.4471 107.811 101.583Z" fill="#BF7958"/>
<path d="M118.826 87.1409C118.398 87.0746 117.975 87.0604 117.557 87.0986C117.244 87.1272 116.93 87.1558 116.617 87.1844C113.167 87.4991 110.36 89.0725 108.195 91.9049C105.924 94.7467 104.961 98.049 105.304 101.812C105.638 105.47 107.178 108.491 109.925 110.875C112.587 113.478 115.642 114.622 119.091 114.307C122.854 113.964 125.861 112.267 128.112 109.216C130.087 106.612 131.037 103.733 130.96 100.578C130.921 100.16 130.888 99.7939 130.859 99.4804C130.516 95.7177 129.023 92.6394 126.381 90.2457C124.204 88.3365 121.686 87.3016 118.826 87.1409ZM110.723 109.222C109.069 107.265 108.099 104.719 107.813 101.583C107.527 98.4473 108.015 95.7153 109.278 93.3868C110.541 91.0584 112.218 89.7989 114.308 89.6082C116.399 89.4175 118.276 90.3528 119.939 92.4143C121.603 94.4757 122.578 97.0742 122.864 100.21C123.15 103.345 122.656 106.025 121.384 108.249C120.13 110.682 118.458 111.994 116.368 112.185C114.278 112.375 112.396 111.388 110.723 109.222Z" fill="white"/>
<path d="M135.124 76.9592L134.424 69.277L104.791 68.5024L105.377 74.9304L135.124 76.9592Z" fill="#BF7958"/>
<path d="M43.2824 80.4375L46.0071 87.7771L72.0288 73.2306L69.7178 66.9599L43.2824 80.4375Z" fill="#BF7958"/>
<path d="M93.8802 125.619C91.0581 125.877 88.7448 127.089 86.94 129.256C85.2303 131.309 84.4471 133.699 84.5905 136.426C84.6001 136.531 84.6096 136.635 84.6191 136.74C84.8766 139.562 86.0888 141.875 88.2559 143.68C90.4229 145.484 92.9175 146.258 95.7395 146.001C98.5616 145.743 100.875 144.531 102.68 142.364C104.484 140.197 105.258 137.702 105.001 134.88C104.991 134.776 104.982 134.671 104.972 134.567C104.62 131.859 103.417 129.65 101.364 127.94C99.1968 126.135 96.7022 125.362 93.8802 125.619Z" fill="#BF7958"/>
<path d="M152.672 101.285L153.603 71.6382C129.459 75.0001 103.217 68.6468 74.877 52.5781C87.543 81.6696 113.475 97.9053 152.672 101.285Z" fill="#DB855C"/>
<path d="M153.607 71.6383L154.552 42.1482L18.4668 54.563L22.7076 78.5213C45.1413 76.0531 62.5322 67.4054 74.8803 52.5782C103.221 68.6468 129.463 75.0002 153.607 71.6383Z" fill="#BF7958"/>
<path d="M141.683 43.1633C139.801 41.0164 137.506 38.9599 134.797 36.9938C122.299 28.2273 105.546 24.8023 84.5372 26.7189C63.5286 28.6355 47.7191 34.9784 37.1086 45.7477C36.4247 46.337 35.8547 47.0213 35.3989 47.8007C33.651 49.4356 32.288 51.2462 31.3099 53.2324C30.2083 55.0192 30.2374 57.0716 31.3974 59.3898C44.1749 50.4252 62.3745 44.8655 85.9961 42.7105C109.409 40.5746 128.257 42.7019 142.54 49.0923C143.271 46.707 142.986 44.7307 141.683 43.1633Z" fill="#71A2BE"/>
<defs>
<radialGradient id="paint0_radial_11_101" cx="0" cy="0" r="1" gradientUnits="userSpaceOnUse" gradientTransform="translate(96.3051 156.486) scale(64.489 42.782)">
<stop stop-opacity="0.301961"/>
<stop offset="1" stop-opacity="0"/>
</radialGradient>
</defs>
</svg>
